{"glyphs":{"0":{"ha":783,"x_min":83,"x_max":714,"o":"m 357 -49 q 271 -32 315 -49 q 164 44 208 -8 q 103 167 119 97 q 88 246 93 208 q 83 317 83 283 q 160 549 83 450 q 235 642 188 589 q 331 733 283 694 q 554 819 426 813 l 558 819 q 601 810 579 819 q 657 782 622 800 q 668 761 663 778 q 671 733 674 744 q 646 721 669 732 l 629 714 l 617 711 l 603 710 l 582 706 l 596 689 q 610 669 603 679 q 624 651 617 660 q 653 610 642 628 q 671 583 665 593 q 714 429 711 511 q 694 311 714 369 q 639 182 674 253 q 504 3 578 58 q 357 -49 436 -49 m 306 74 q 352 85 328 74 q 393 114 376 97 q 574 585 561 282 l 574 586 l 572 594 q 571 613 572 608 q 544 688 569 672 q 531 690 536 690 q 478 665 511 690 q 423 624 451 647 q 363 568 394 600 q 225 244 232 438 q 229 176 222 213 q 250 115 233 147 q 288 76 267 83 q 296 74 292 75 q 306 74 300 74 z "},"1":{"ha":651,"x_min":79,"x_max":526,"o":"m 490 -4 q 422 3 447 -6 q 393 47 397 11 q 390 89 392 64 q 388 147 389 114 q 387 278 386 200 q 390 463 388 357 q 392 588 392 535 q 393 678 393 642 q 392 690 393 686 q 390 697 390 693 q 390 704 390 701 q 387 706 389 706 q 382 707 385 706 l 371 711 q 287 615 321 656 q 233 546 253 574 q 214 517 224 532 q 194 486 204 501 q 158 454 181 467 q 116 453 136 442 q 85 515 96 465 q 107 567 79 536 l 207 697 l 343 878 q 407 911 371 911 q 457 903 431 911 q 490 892 483 894 q 519 871 513 885 q 526 833 526 857 l 526 803 q 526 733 526 765 q 524 674 525 701 q 521 624 522 647 q 518 583 519 601 l 510 364 q 508 317 508 346 q 508 251 508 289 l 508 56 q 501 19 508 40 q 490 -4 494 -3 z "},"2":{"ha":867,"x_min":83,"x_max":797,"o":"m 408 -43 q 158 19 296 -43 q 154 31 154 22 q 190 142 154 57 q 301 351 226 224 q 319 382 307 360 q 349 440 331 404 q 390 522 368 476 q 435 625 411 568 q 426 674 438 651 q 396 696 415 696 q 365 685 381 696 q 318 625 351 672 l 296 594 l 275 571 q 210 506 238 529 q 160 482 183 482 q 139 489 150 482 q 83 564 83 524 q 125 654 83 607 q 194 710 146 678 q 315 785 242 742 q 410 803 365 803 q 475 795 446 803 q 533 755 504 788 q 592 647 561 722 q 575 585 592 617 q 550 536 560 554 q 538 513 540 518 q 300 54 424 282 q 465 72 392 60 q 622 114 538 85 q 652 127 629 117 q 704 147 675 138 q 756 156 733 156 q 794 136 783 156 l 797 124 q 774 85 797 106 q 714 46 750 65 q 637 10 678 26 q 561 -18 596 -6 q 408 -43 486 -43 z "},"3":{"ha":635,"x_min":83,"x_max":565,"o":"m 293 -85 q 143 -39 238 -85 l 168 -28 q 181 -24 175 -25 q 189 -21 186 -22 q 289 25 250 -14 q 353 126 328 64 q 410 383 410 264 q 409 406 410 393 q 407 436 408 418 q 365 500 399 500 q 324 482 350 500 l 201 393 q 168 382 183 382 q 140 389 153 382 q 107 411 128 396 q 106 417 106 411 q 121 453 106 429 l 186 554 l 250 654 q 265 696 260 665 q 267 709 267 703 q 268 719 268 715 q 239 747 268 747 q 193 739 229 747 q 126 726 150 726 q 86 738 101 726 q 84 748 85 743 q 83 756 83 753 q 92 774 83 765 q 109 785 96 776 q 144 804 122 793 q 279 853 210 853 q 379 821 336 853 q 425 738 425 782 q 401 665 425 706 l 381 636 q 344 588 350 597 q 419 577 386 582 q 476 556 451 572 q 523 499 501 539 q 565 381 544 458 q 540 188 565 276 q 458 25 515 100 q 376 -59 415 -33 q 293 -85 338 -85 z "},"4":{"ha":822,"x_min":79,"x_max":753,"o":"m 471 -175 q 429 -133 432 -185 l 425 75 l 431 183 l 433 233 q 435 249 435 242 q 435 264 435 257 q 433 276 433 271 q 433 288 433 282 l 388 275 q 265 242 339 265 q 218 236 249 236 q 131 258 169 236 q 85 314 92 279 q 85 322 85 317 q 83 333 85 326 q 106 425 79 372 q 230 655 160 544 q 386 865 300 765 q 419 885 397 879 q 451 894 443 892 q 507 899 467 899 q 593 888 554 899 q 636 851 632 878 q 640 817 639 836 q 642 776 642 799 q 638 700 642 740 q 631 652 636 681 q 618 585 625 624 q 610 552 615 571 q 600 507 606 533 q 595 487 599 501 q 592 460 592 472 q 610 464 601 461 q 626 469 619 467 q 635 472 629 471 q 651 476 642 474 q 683 481 671 481 q 753 428 729 481 q 719 408 750 422 q 683 390 697 397 q 658 381 668 383 q 594 359 614 369 q 567 326 574 349 q 558 254 561 303 l 536 -43 q 515 -142 532 -107 q 499 -161 511 -151 q 471 -175 486 -171 m 249 340 q 339 369 293 356 q 432 397 385 383 q 447 411 440 399 q 454 433 453 424 q 483 649 472 547 q 486 681 485 663 q 490 722 488 699 l 493 758 q 221 343 292 569 q 235 340 226 342 q 249 340 244 339 z "},"5":{"ha":972,"x_min":83,"x_max":958,"o":"m 340 -18 q 83 75 193 -18 l 85 85 q 111 87 100 86 q 129 88 122 88 q 164 92 147 90 q 196 93 181 93 q 223 92 210 93 q 249 88 236 90 q 265 85 256 86 q 285 85 274 85 q 365 106 332 85 q 424 163 399 126 q 461 260 461 207 q 444 331 461 300 q 376 440 417 397 q 267 492 336 482 q 204 517 244 494 q 158 551 161 539 q 167 572 157 560 q 178 585 171 578 q 194 603 185 593 q 260 677 226 635 q 331 774 294 719 q 391 833 358 815 q 472 853 424 851 q 551 860 504 854 q 658 876 597 867 q 749 890 714 885 q 799 896 783 894 q 854 900 843 900 l 943 892 q 954 879 950 890 q 958 853 958 868 q 953 820 958 836 q 936 800 947 804 q 914 794 926 797 q 886 789 901 792 l 807 779 q 658 759 725 769 q 539 738 590 749 q 481 693 525 736 q 385 558 436 649 q 395 551 386 557 q 419 532 404 544 q 458 499 440 514 q 490 475 476 485 q 507 463 499 469 q 525 450 515 457 q 614 283 614 379 q 579 150 614 221 q 503 36 544 79 q 401 -14 463 -7 q 340 -18 371 -18 z "},"6":{"ha":760,"x_min":83,"x_max":690,"o":"m 469 -8 q 448 -8 457 -8 q 432 -7 439 -8 q 278 50 361 1 q 83 329 193 99 q 83 342 83 336 q 85 354 83 349 q 308 842 99 618 q 362 874 329 864 q 429 885 394 885 q 510 864 483 885 q 526 843 519 856 q 539 810 533 831 q 530 793 540 804 q 513 782 519 782 q 432 763 467 782 q 331 636 399 742 q 328 630 329 633 q 325 624 326 626 q 321 617 324 621 q 315 608 318 613 q 258 483 279 542 q 238 363 236 425 q 271 210 239 279 q 294 176 286 176 q 310 192 299 176 q 326 217 318 207 q 372 269 351 250 q 421 308 393 288 q 501 333 454 333 q 590 313 547 333 q 690 178 635 289 q 670 102 690 142 q 622 40 650 63 q 469 -8 558 -10 m 444 101 q 522 124 486 101 q 558 175 558 146 q 550 201 558 188 q 503 235 529 235 q 479 228 493 235 q 445 209 458 217 q 421 182 432 201 q 393 114 410 163 q 444 101 413 101 z "},"7":{"ha":849,"x_min":83,"x_max":779,"o":"m 418 -44 q 375 -28 386 -44 q 366 -6 369 -18 q 361 24 363 7 q 368 65 360 43 q 403 158 383 104 q 449 282 424 213 l 482 365 q 508 432 496 399 q 529 497 519 465 q 567 585 540 529 q 579 612 569 590 q 600 660 589 633 q 615 706 611 686 q 617 722 617 710 q 602 755 617 744 q 565 764 588 765 q 458 757 531 763 q 271 742 385 751 q 240 740 253 740 q 221 739 228 739 q 146 760 175 739 q 83 842 117 781 q 125 847 107 844 q 154 851 143 850 l 210 857 q 283 865 250 860 q 622 878 394 885 q 714 865 676 876 q 779 799 779 846 q 760 733 779 775 q 731 673 744 703 q 707 611 718 643 q 680 542 696 581 q 644 456 664 503 q 617 381 631 424 q 588 283 603 338 q 574 238 581 260 q 561 197 568 217 l 549 160 q 523 83 535 117 q 500 26 511 50 q 443 -40 472 -31 q 418 -44 431 -44 z "},"8":{"ha":761,"x_min":83,"x_max":650,"o":"m 363 3 q 228 38 292 3 q 83 246 163 71 q 84 258 83 251 q 86 275 85 265 q 97 358 89 321 q 125 438 106 394 q 176 542 144 481 l 199 583 q 214 603 201 590 l 232 625 q 169 653 193 638 q 131 697 144 669 q 107 778 107 738 q 119 838 107 810 q 157 913 132 867 q 269 1010 213 978 q 393 1046 325 1042 q 439 1044 414 1047 q 492 1031 464 1040 q 567 986 532 1018 q 632 925 603 954 q 638 901 638 919 q 630 848 638 879 q 610 790 622 817 q 583 750 597 763 q 565 735 574 742 q 547 721 556 728 q 531 703 531 708 q 550 681 531 700 q 568 661 560 671 q 585 640 576 651 q 619 587 604 622 q 642 513 633 551 q 650 440 650 474 q 646 373 650 404 q 631 301 642 342 q 599 193 619 260 q 507 55 569 107 q 363 3 444 3 m 299 711 q 324 717 313 711 q 500 889 438 764 q 506 914 506 899 q 493 942 506 931 q 460 953 481 953 q 361 926 404 953 q 265 756 318 900 q 299 711 265 711 m 331 101 q 376 122 356 101 q 410 172 396 143 q 472 313 449 254 q 508 433 496 372 q 499 522 511 469 q 451 663 488 575 q 349 592 385 619 q 288 524 314 564 q 238 321 238 447 q 240 273 238 299 q 244 219 242 247 q 265 154 249 186 q 304 108 282 122 q 331 101 321 101 z "},"9":{"ha":726,"x_min":83,"x_max":657,"o":"m 557 -67 q 471 -10 488 -67 q 443 100 453 60 q 432 183 433 140 l 432 231 q 435 340 432 275 q 443 489 438 404 q 444 508 444 500 q 442 521 443 515 q 426 529 438 529 q 404 525 417 529 q 385 519 397 524 q 356 508 374 515 q 290 496 321 496 q 210 517 251 496 q 135 571 168 538 q 90 642 103 604 q 83 690 83 663 q 121 801 83 746 q 272 963 189 904 q 463 1021 354 1021 q 567 1000 519 1021 q 647 936 615 979 q 657 893 657 919 q 653 875 657 879 q 599 858 631 858 q 582 861 588 858 q 541 885 563 867 q 510 911 519 903 q 383 883 450 915 q 208 678 317 850 q 207 660 207 674 q 211 628 207 644 q 224 604 215 613 q 258 596 235 596 q 296 601 279 596 q 499 747 400 635 q 547 767 514 767 q 615 746 585 767 q 639 710 639 731 q 631 674 639 701 q 563 238 563 439 q 569 108 563 172 q 590 -19 576 44 l 593 -39 q 557 -67 593 -67 z "},"A":{"ha":986,"x_min":69,"x_max":917,"o":"m 858 -19 l 843 -17 q 772 71 772 0 q 774 88 772 83 q 774 111 771 96 q 774 135 775 124 q 771 157 774 147 q 756 219 764 183 q 736 301 747 256 q 701 339 728 339 q 679 335 692 339 q 603 310 636 321 q 546 293 571 300 l 479 274 q 424 259 451 265 q 374 247 397 253 q 299 190 326 235 q 271 142 288 171 q 235 78 254 114 q 165 31 208 31 q 90 68 121 31 q 69 114 69 92 q 78 146 69 129 l 174 340 q 300 598 253 501 q 363 726 347 694 q 600 960 453 889 q 665 975 633 975 q 742 953 707 975 q 797 893 778 932 q 838 744 825 835 q 854 571 846 685 l 857 499 q 910 139 858 301 q 915 114 913 128 q 917 82 917 100 q 916 59 917 72 q 914 29 915 46 q 897 -6 913 7 q 858 -19 882 -19 m 389 393 q 565 424 483 410 q 713 447 646 438 q 708 599 711 536 q 701 711 706 661 q 685 813 696 761 q 574 740 617 800 q 449 528 501 643 q 435 499 444 518 q 413 447 426 479 l 389 393 z "},"Á":{"ha":1017,"x_min":82,"x_max":947,"o":"m 308 1008 q 307 1054 299 1031 q 344 1089 317 1075 q 391 1116 368 1101 q 436 1146 414 1131 l 515 1204 q 593 1218 558 1238 q 614 1201 604 1213 q 651 1153 649 1167 q 639 1129 654 1140 q 551 1051 619 1094 q 308 1008 483 1006 m 942 -26 q 913 -15 925 -17 q 869 8 881 -6 q 679 228 751 136 q 640 262 660 253 q 586 267 619 271 q 534 262 557 264 q 496 261 511 260 q 426 267 460 263 q 364 276 393 271 q 328 281 346 281 q 288 267 303 281 q 268 221 274 253 q 241 150 254 181 q 217 99 228 119 q 188 77 210 86 q 149 68 165 68 q 136 69 139 68 q 112 86 125 74 q 90 114 99 99 q 83 139 82 129 q 117 317 103 240 q 147 460 132 394 q 182 592 163 526 q 216 685 196 639 q 274 800 236 731 l 303 856 q 347 900 314 879 q 474 947 379 922 q 581 897 546 933 q 632 792 617 861 q 660 672 643 739 q 696 525 676 606 l 710 471 q 738 421 718 440 q 777 366 764 394 q 790 299 790 338 q 801 262 790 281 q 831 214 811 243 q 845 191 839 201 q 857 174 851 181 q 902 99 881 139 q 946 17 924 60 q 947 10 947 15 q 947 1 947 6 q 946 -7 947 -3 l 942 -26 m 578 410 q 474 714 524 558 q 388 653 411 714 q 358 563 376 622 q 315 414 339 503 l 578 410 z "},"Ă":{"ha":1000,"x_min":83,"x_max":931,"o":"m 619 975 q 568 1010 606 978 q 516 1054 547 1025 q 442 1126 485 1083 q 433 1140 440 1132 q 425 1153 428 1147 q 422 1160 424 1156 q 418 1169 421 1164 q 415 1188 413 1181 q 435 1198 419 1194 q 463 1201 451 1201 q 496 1192 482 1201 q 535 1158 510 1183 q 588 1108 551 1146 l 607 1088 q 613 1093 610 1090 q 621 1100 615 1096 q 631 1111 628 1106 l 647 1131 q 681 1178 672 1161 q 696 1197 686 1188 q 717 1210 706 1206 q 724 1211 721 1211 q 729 1211 728 1211 q 751 1202 743 1211 q 760 1179 760 1193 q 760 1174 760 1178 q 758 1165 760 1171 q 733 1112 750 1139 q 713 1079 717 1085 q 687 1034 697 1053 q 671 1001 676 1015 q 619 975 661 974 m 872 -86 l 857 -83 q 786 4 786 -67 q 788 21 786 17 l 788 44 q 787 69 788 57 q 785 90 786 81 q 770 154 779 118 q 750 235 761 190 q 715 272 742 272 q 693 268 706 272 q 652 256 671 263 q 618 244 633 250 q 587 234 601 239 q 560 226 572 229 l 493 207 q 438 192 465 199 q 388 181 411 186 q 313 124 336 171 q 285 75 301 103 q 249 11 269 47 q 179 -36 222 -36 q 104 1 135 -36 q 83 47 83 25 q 92 79 83 63 l 188 274 l 376 660 q 614 893 464 829 q 679 908 647 908 q 756 887 721 908 q 811 826 792 865 q 851 678 839 768 q 868 504 864 617 l 871 432 q 924 72 871 233 q 928 47 926 61 q 931 15 931 33 q 930 -8 931 6 q 928 -37 929 -21 q 911 -73 926 -60 q 872 -86 896 -86 m 403 326 q 578 357 497 343 q 726 381 660 371 q 722 532 725 469 q 715 644 719 594 q 699 746 710 694 q 588 674 625 738 q 463 461 524 572 q 449 432 458 451 q 426 381 440 413 l 403 326 z "},"Ắ":{"ha":1000,"x_min":49,"x_max":896,"o":"m 522 1190 q 503 1207 511 1197 q 517 1234 513 1226 q 529 1246 522 1242 q 554 1257 536 1250 q 719 1372 657 1301 q 775 1400 740 1390 q 800 1399 785 1406 q 822 1369 818 1393 q 814 1311 829 1340 q 778 1275 803 1286 q 678 1228 726 1249 q 586 1193 631 1208 q 522 1190 551 1179 m 685 990 q 603 1003 638 986 q 543 1038 569 1019 l 472 1108 q 469 1130 464 1114 q 486 1157 474 1146 q 511 1157 499 1168 l 565 1107 q 629 1082 590 1082 q 642 1082 636 1082 q 651 1083 649 1082 q 711 1117 692 1100 q 742 1158 731 1135 q 775 1186 757 1186 q 819 1172 807 1186 q 831 1128 831 1157 q 804 1061 831 1092 q 744 1010 774 1025 q 685 990 715 994 m 838 -49 l 822 -46 q 751 42 751 -29 q 753 58 751 54 q 753 82 750 67 q 753 106 754 94 q 750 128 753 118 q 735 190 743 154 q 715 272 726 226 q 681 310 707 310 q 658 306 671 310 q 583 281 615 292 q 525 264 550 271 l 458 244 q 403 230 431 236 q 353 218 376 224 q 278 161 306 206 q 250 113 267 142 q 214 49 233 85 q 144 1 188 1 q 69 39 100 1 q 49 85 49 63 q 57 117 49 100 l 153 311 q 279 569 232 472 q 342 697 326 665 q 579 931 432 860 q 644 946 613 946 q 722 924 686 946 q 776 864 757 903 q 817 715 804 806 q 833 542 825 656 l 836 469 q 853 280 840 369 q 889 110 867 190 q 894 85 892 99 q 896 53 896 71 q 895 30 896 43 q 893 0 894 17 q 876 -35 892 -22 q 838 -49 861 -49 m 368 364 q 544 394 463 381 q 692 418 625 408 q 688 569 690 507 q 680 682 685 632 q 664 783 675 732 q 553 711 596 771 q 428 499 481 614 q 415 469 424 489 q 392 418 406 450 l 368 364 z "},"Ặ":{"ha":1000,"x_min":49,"x_max":896,"o":"m 685 1004 q 604 1016 638 999 q 543 1051 571 1033 l 472 1122 q 469 1143 464 1126 q 486 1171 474 1160 q 511 1171 499 1182 q 538 1146 525 1158 q 564 1121 551 1133 q 629 1096 589 1096 q 651 1097 646 1096 q 711 1131 692 1113 q 742 1172 731 1150 q 775 1200 757 1200 q 819 1185 807 1200 q 831 1142 831 1171 q 804 1075 831 1106 q 745 1023 774 1039 q 685 1004 717 1007 m 838 -46 l 822 -43 q 751 44 751 -26 q 753 61 751 57 q 753 85 750 69 q 753 109 754 97 q 750 131 753 121 q 735 193 743 157 q 715 275 726 229 q 681 313 707 313 q 658 308 671 313 q 583 284 615 294 q 525 267 550 274 l 458 247 q 403 233 431 239 q 353 221 376 226 q 278 164 306 208 q 250 116 267 144 q 214 51 233 88 q 144 4 188 4 q 69 42 100 4 q 49 88 49 65 q 57 119 49 103 l 153 314 q 279 572 232 475 q 342 700 326 668 q 579 933 432 863 q 644 949 613 949 q 722 927 686 949 q 776 867 757 906 q 817 718 804 808 q 833 544 825 658 l 836 472 q 889 113 838 275 q 894 88 892 101 q 896 56 896 74 q 895 33 896 46 q 893 3 894 19 q 876 -33 892 -19 q 838 -46 861 -46 m 368 367 q 544 397 463 383 q 692 421 625 411 q 688 572 690 510 q 680 685 685 635 q 664 786 675 735 q 553 714 596 774 q 428 501 481 617 q 415 472 424 492 q 392 421 406 453 l 368 367 m 469 -240 q 438 -233 457 -246 q 410 -195 419 -221 q 410 -139 400 -169 q 463 -79 419 -108 q 510 -65 488 -64 q 561 -86 533 -67 q 589 -135 586 -104 q 560 -183 592 -164 q 545 -193 554 -186 q 522 -210 536 -200 q 495 -227 508 -219 q 469 -240 482 -235 z "},"Ằ":{"ha":1000,"x_min":49,"x_max":896,"o":"m 614 1136 q 574 1154 590 1136 l 547 1182 q 483 1249 508 1222 q 444 1292 458 1276 q 429 1321 435 1304 q 424 1350 424 1338 q 424 1359 426 1363 q 433 1365 421 1356 q 453 1363 439 1368 q 475 1350 468 1357 q 563 1276 524 1310 q 629 1215 601 1243 q 646 1182 639 1206 l 654 1160 l 647 1144 l 646 1144 q 614 1136 632 1136 m 647 997 q 565 1009 600 992 q 501 1044 529 1026 l 429 1118 q 426 1139 421 1122 q 444 1167 431 1156 q 469 1167 457 1178 q 524 1117 499 1142 q 590 1090 550 1090 q 603 1090 597 1090 q 613 1092 610 1090 q 673 1127 653 1108 q 706 1169 693 1146 q 722 1190 714 1185 q 740 1196 729 1196 q 784 1181 772 1196 q 796 1138 796 1167 q 769 1068 796 1099 q 709 1016 739 1032 q 647 997 679 1000 m 646 1142 q 643 1139 643 1139 q 646 1143 643 1139 l 647 1144 q 646 1142 650 1147 m 838 -43 l 822 -40 q 751 47 751 -24 q 753 64 751 60 q 753 88 750 72 q 753 112 754 100 q 750 133 753 124 q 735 196 743 160 q 715 278 726 232 q 681 315 707 315 q 658 311 671 315 q 583 287 615 297 q 525 269 550 276 l 458 250 q 403 235 431 242 q 353 224 376 229 q 278 167 306 211 q 250 119 267 147 q 214 54 233 90 q 144 7 188 7 q 69 44 100 7 q 49 90 49 68 q 57 122 49 106 l 153 317 q 279 574 232 478 q 342 703 326 671 q 579 936 432 865 q 644 951 613 951 q 722 930 686 951 q 776 869 757 908 q 817 721 804 811 q 833 547 825 661 l 836 475 q 889 115 838 278 q 894 90 892 104 q 896 58 896 76 q 895 35 896 49 q 893 6 894 22 q 876 -30 892 -17 q 838 -43 861 -43 m 368 393 q 544 424 463 410 q 692 447 625 438 q 688 599 690 536 q 680 711 685 661 q 664 813 675 761 q 553 740 596 800 q 428 528 481 643 q 415 499 424 518 q 392 447 406 479 l 368 393 z "},"Ẳ":{"ha":1000,"x_min":49,"x_max":896,"o":"m 644 1129 q 618 1171 618 1156 q 690 1228 618 1197 q 688 1261 701 1246 q 667 1278 681 1272 q 639 1282 653 1285 l 585 1278 q 581 1290 585 1278 q 578 1317 576 1301 q 592 1340 579 1332 q 635 1348 606 1347 q 693 1338 664 1349 q 705 1332 700 1335 q 714 1326 710 1329 q 724 1313 717 1324 q 742 1283 732 1303 q 744 1222 751 1243 q 714 1165 740 1193 q 644 1129 688 1138 m 711 986 q 624 999 660 981 q 557 1036 588 1018 l 481 1114 q 476 1137 471 1119 q 495 1167 482 1154 q 522 1167 508 1179 q 581 1113 554 1140 q 650 1086 607 1086 l 675 1086 q 739 1124 718 1104 q 774 1168 760 1143 q 808 1197 789 1197 q 856 1182 843 1197 q 868 1136 868 1167 q 840 1063 868 1097 q 776 1007 807 1024 q 711 986 744 990 m 838 -42 l 822 -39 q 751 49 751 -22 q 753 65 751 61 q 753 89 750 74 q 753 113 754 101 q 750 135 753 125 q 735 197 743 161 q 715 279 726 233 q 681 317 707 317 q 658 313 671 317 q 583 288 615 299 q 525 271 550 278 l 458 251 q 403 237 431 243 q 353 225 376 231 q 278 168 306 213 q 250 120 267 149 q 214 56 233 92 q 144 8 188 8 q 69 46 100 8 q 49 92 49 69 q 57 124 49 107 l 153 318 q 279 576 232 479 q 342 704 326 672 q 579 938 432 867 q 644 953 613 953 q 722 931 686 953 q 776 871 757 910 q 817 722 804 813 q 833 549 825 663 l 836 476 q 853 287 840 376 q 889 117 867 197 q 894 92 892 106 q 896 60 896 78 q 895 37 896 50 q 893 7 894 24 q 876 -28 892 -15 q 838 -42 861 -42 m 368 393 q 544 424 463 410 q 692 447 625 438 q 688 599 690 536 q 680 711 685 661 q 664 813 675 761 q 553 740 596 800 q 428 528 481 643 q 415 499 424 518 q 392 447 406 479 l 368 393 z "},"Ẵ":{"ha":1000,"x_min":49,"x_max":925,"o":"m 792 1240 q 688 1275 747 1236 l 661 1293 q 623 1316 639 1307 q 596 1331 607 1325 q 574 1336 585 1336 q 538 1300 544 1336 q 517 1278 532 1278 q 499 1283 506 1278 q 484 1287 499 1283 q 455 1300 469 1290 q 439 1329 440 1310 q 447 1360 438 1347 q 488 1394 457 1372 q 532 1413 511 1413 q 569 1408 544 1413 q 599 1394 586 1403 q 631 1369 613 1385 q 681 1335 658 1347 q 739 1324 704 1324 q 752 1324 746 1324 q 761 1325 758 1325 q 815 1356 797 1340 q 844 1394 833 1372 q 858 1414 851 1410 q 874 1418 864 1418 q 915 1406 904 1418 q 925 1367 925 1393 q 900 1304 925 1333 q 847 1258 874 1272 q 792 1240 819 1243 m 728 1015 q 640 1028 676 1010 q 572 1065 603 1047 l 496 1144 q 492 1167 486 1149 q 510 1197 497 1185 q 538 1197 524 1210 q 597 1142 569 1171 q 667 1115 624 1115 q 681 1115 675 1115 q 692 1117 688 1115 q 757 1153 736 1135 q 790 1199 778 1172 q 826 1228 807 1228 q 875 1213 863 1228 q 888 1165 888 1197 q 858 1092 888 1125 q 794 1035 825 1053 q 728 1015 763 1018 m 838 -19 l 822 -17 q 751 71 751 0 q 753 88 751 83 q 753 111 750 96 q 753 135 754 124 q 750 157 753 147 q 735 219 743 183 q 715 301 726 256 q 681 339 707 339 q 658 335 671 339 q 583 310 615 321 q 525 293 550 300 l 458 274 q 403 259 431 265 q 353 247 376 253 q 278 190 306 235 q 250 142 267 171 q 214 78 233 114 q 144 31 188 31 q 69 68 100 31 q 49 114 49 92 q 57 146 49 129 l 153 340 q 279 598 232 501 q 342 726 326 694 q 579 960 432 889 q 644 975 613 975 q 722 953 686 975 q 776 893 757 932 q 817 744 804 835 q 833 571 825 685 l 836 499 q 889 139 838 301 q 894 114 892 128 q 896 82 896 100 q 895 59 896 72 q 893 29 894 46 q 876 -6 892 7 q 838 -19 861 -19 m 368 393 q 544 424 463 410 q 692 447 625 438 q 688 599 690 536 q 680 711 685 661 q 664 813 675 761 q 553 740 596 800 q 428 528 481 643 q 415 499 424 518 q 392 447 406 479 l 368 393 z "},"Ǎ":{"ha":1000,"x_min":49,"x_max":896,"o":"m 576 1004 q 478 1076 515 1004 q 451 1135 463 1108 q 431 1185 439 1163 q 428 1194 429 1190 q 428 1200 428 1199 q 443 1229 428 1218 q 483 1240 458 1240 q 539 1217 511 1240 l 567 1135 q 578 1122 569 1131 q 599 1101 586 1114 q 656 1157 632 1133 q 693 1194 679 1181 q 735 1237 713 1214 q 783 1288 757 1260 q 840 1272 813 1288 q 863 1236 863 1260 q 846 1201 863 1217 q 745 1113 793 1154 q 653 1035 697 1071 q 576 1004 618 1004 m 838 -43 l 822 -40 q 751 47 751 -24 q 753 64 751 60 q 753 88 750 72 q 753 112 754 100 q 750 133 753 124 q 735 196 743 160 q 715 278 726 232 q 681 315 707 315 q 658 311 671 315 q 583 287 615 297 q 525 269 550 276 l 458 250 q 403 235 431 242 q 353 224 376 229 q 278 167 306 211 q 250 119 267 147 q 214 54 233 90 q 144 7 188 7 q 69 44 100 7 q 49 90 49 68 q 57 122 49 106 l 153 317 q 279 574 232 478 q 342 703 326 671 q 579 936 432 865 q 644 951 613 951 q 722 930 686 951 q 776 869 757 908 q 817 721 804 811 q 833 547 825 661 l 836 475 q 889 115 838 278 q 894 90 892 104 q 896 58 896 76 q 895 35 896 49 q 893 6 894 22 q 876 -30 892 -17 q 838 -43 861 -43 m 368 369 q 544 400 463 386 q 692 424 625 414 q 688 575 690 513 q 680 688 685 638 q 664 789 675 738 q 553 717 596 776 q 428 504 481 619 q 415 475 424 494 q 392 424 406 456 l 368 369 z "},"Â":{"ha":919,"x_min":83,"x_max":850,"o":"m 490 1026 q 457 1036 471 1026 q 440 1060 440 1043 q 453 1085 440 1072 l 506 1131 l 583 1197 q 636 1219 610 1219 q 701 1169 679 1219 q 721 1129 713 1147 q 735 1096 729 1111 q 736 1085 736 1093 q 710 1058 736 1065 q 663 1072 681 1054 q 642 1096 660 1074 l 621 1118 l 556 1054 q 494 1026 531 1029 l 490 1026 m 776 -26 q 704 49 718 -26 l 694 103 q 669 243 686 139 q 639 308 664 290 q 631 310 636 310 q 619 311 626 311 q 587 310 607 311 q 539 306 567 308 q 488 301 500 301 q 448 303 464 303 q 425 304 432 304 q 367 301 390 304 q 328 280 344 299 q 290 214 311 261 q 276 169 282 188 q 264 139 269 150 q 233 102 253 117 q 189 85 214 88 q 174 83 186 83 q 108 113 133 83 q 100 133 101 119 q 97 160 99 146 l 96 174 q 97 181 96 176 q 99 193 97 186 q 100 204 100 200 q 100 211 100 208 q 99 220 100 217 q 97 226 99 224 q 83 256 83 242 q 92 271 83 265 q 117 290 100 279 l 124 296 q 200 374 176 332 q 251 468 224 415 q 308 585 278 521 l 400 767 q 421 801 407 781 q 454 853 435 822 l 469 876 q 475 885 472 881 q 481 894 478 889 q 488 906 483 900 q 494 918 492 911 q 594 982 533 982 q 615 980 604 982 q 638 975 625 978 q 690 936 674 964 q 714 864 707 908 l 757 613 l 792 401 q 799 356 794 383 q 811 293 804 329 l 849 68 q 850 60 850 65 q 850 50 850 56 q 832 -3 850 15 q 776 -26 815 -26 m 369 390 l 639 399 l 576 775 l 369 390 z "},"Ấ":{"ha":1000,"x_min":49,"x_max":896,"o":"m 458 1200 q 440 1213 446 1206 q 454 1246 450 1240 q 481 1263 458 1251 q 622 1379 571 1311 q 669 1410 635 1396 q 693 1410 681 1417 q 706 1401 700 1408 q 715 1386 713 1394 q 713 1332 722 1357 q 683 1296 701 1306 q 515 1207 596 1243 q 458 1200 483 1192 m 806 917 q 776 929 786 917 q 646 1072 692 1013 q 633 1092 636 1085 q 504 968 631 1094 q 467 936 483 947 q 442 954 447 936 q 438 986 438 972 q 443 1004 438 997 q 479 1058 458 1029 q 524 1119 500 1088 q 540 1143 531 1131 q 561 1167 550 1156 l 590 1200 q 628 1217 606 1217 q 663 1200 649 1217 q 677 1183 667 1196 q 703 1146 688 1169 q 725 1114 715 1128 q 742 1090 735 1100 q 786 1033 765 1060 q 825 985 807 1007 q 836 974 828 981 q 843 960 843 967 q 806 917 833 917 m 838 -53 l 822 -50 q 751 38 751 -33 q 753 54 751 50 q 753 78 750 63 q 753 102 754 90 q 750 124 753 114 q 735 186 743 150 q 715 268 726 222 q 681 306 707 306 q 658 301 671 306 q 583 277 615 288 q 525 260 550 267 l 458 240 q 403 226 431 232 q 353 214 376 219 q 278 157 306 201 q 250 109 267 138 q 214 44 233 81 q 144 -3 188 -3 q 69 35 100 -3 q 49 81 49 58 q 57 113 49 96 l 153 307 q 279 565 232 468 q 342 693 326 661 q 579 926 432 856 q 644 942 613 942 q 722 920 686 942 q 776 860 757 899 q 817 711 804 801 q 833 538 825 651 l 836 465 q 853 276 840 365 q 889 106 867 186 q 894 81 892 94 q 896 49 896 67 q 895 26 896 39 q 893 -4 894 13 q 876 -40 892 -26 q 838 -53 861 -53 m 368 360 q 544 390 463 376 q 692 414 625 404 q 688 565 690 503 q 680 678 685 628 q 664 779 675 728 q 553 707 596 767 q 428 494 481 610 q 415 465 424 485 q 392 414 406 446 l 368 360 z "},"Ậ":{"ha":1000,"x_min":49,"x_max":896,"o":"m 831 915 q 800 928 810 915 q 723 1009 757 972 q 665 1076 689 1046 q 656 1090 660 1085 q 651 1097 653 1096 q 518 968 650 1100 q 479 936 500 950 q 453 955 458 936 q 449 988 449 974 q 454 1006 449 999 q 538 1126 488 1058 q 556 1150 546 1138 q 576 1175 565 1163 q 607 1210 599 1197 q 646 1226 622 1226 q 682 1210 668 1226 q 697 1190 686 1204 q 724 1153 707 1176 q 747 1120 738 1135 q 764 1096 757 1106 q 810 1037 788 1064 q 851 986 832 1010 q 863 975 854 982 q 869 960 869 965 q 831 915 858 915 m 838 -47 l 822 -44 q 751 43 751 -28 q 753 60 751 56 q 753 83 750 68 q 753 108 754 96 q 750 129 753 119 q 735 192 743 156 q 715 274 726 228 q 681 311 707 311 q 658 307 671 311 q 583 283 615 293 q 525 265 550 272 l 458 246 q 403 231 431 238 q 353 219 376 225 q 278 163 306 207 q 250 115 267 143 q 214 50 233 86 q 144 3 188 3 q 69 40 100 3 q 49 86 49 64 q 57 118 49 101 l 153 313 q 279 570 232 474 q 342 699 326 667 q 579 932 432 861 q 644 947 613 947 q 722 926 686 947 q 776 865 757 904 q 817 717 804 807 q 833 543 825 657 l 836 471 q 853 281 840 371 q 889 111 867 192 q 894 86 892 100 q 896 54 896 72 q 895 31 896 44 q 893 1 894 18 q 876 -34 892 -21 q 838 -47 861 -47 m 368 365 q 544 396 463 382 q 692 419 625 410 q 688 571 690 508 q 680 683 685 633 q 664 785 675 733 q 553 713 596 772 q 428 500 481 615 q 415 471 424 490 q 392 419 406 451 l 368 365 m 469 -240 q 438 -233 457 -246 q 410 -195 419 -221 q 410 -139 400 -169 q 463 -79 419 -108 q 510 -65 488 -64 q 561 -86 533 -67 q 589 -135 586 -104 q 560 -183 592 -164 q 545 -193 554 -186 q 522 -210 536 -200 q 495 -227 508 -219 q 469 -240 482 -235 z "},"Ầ":{"ha":1000,"x_min":49,"x_max":903,"o":"m 857 1083 q 811 1104 832 1083 l 782 1135 q 728 1190 751 1167 q 689 1231 704 1214 q 672 1263 678 1244 q 665 1296 665 1282 q 665 1306 667 1310 q 676 1313 663 1303 q 699 1311 682 1317 q 724 1297 715 1306 q 816 1220 779 1251 q 872 1174 853 1189 q 883 1158 879 1167 q 893 1135 888 1149 l 903 1111 l 894 1096 q 892 1094 893 1096 q 857 1083 878 1086 m 785 932 q 754 944 764 932 q 686 1014 711 989 q 656 1044 661 1039 q 626 1054 643 1061 q 528 965 608 1046 q 489 933 510 947 q 463 952 468 933 q 458 985 458 971 q 464 1003 458 996 q 497 1052 481 1029 q 528 1094 513 1075 q 546 1118 536 1106 q 567 1143 556 1131 q 597 1178 589 1165 q 636 1194 613 1194 q 672 1178 658 1194 q 687 1158 676 1172 q 714 1121 697 1144 q 738 1088 728 1103 q 754 1064 747 1074 q 774 1042 761 1057 q 806 1003 786 1026 q 817 992 808 999 q 824 976 824 982 q 785 932 813 932 m 892 1090 q 889 1086 889 1086 q 892 1092 889 1086 l 894 1096 q 892 1090 896 1097 m 838 -44 l 822 -42 q 751 46 751 -25 q 753 63 751 58 q 753 86 750 71 q 753 110 754 99 q 750 132 753 122 q 735 194 743 158 q 715 276 726 231 q 681 314 707 314 q 658 310 671 314 q 583 285 615 296 q 525 268 550 275 l 458 249 q 403 234 431 240 q 353 222 376 228 q 278 165 306 210 q 250 117 267 146 q 214 53 233 89 q 144 6 188 6 q 69 43 100 6 q 49 89 49 67 q 57 121 49 104 l 153 315 q 279 573 232 476 q 342 701 326 669 q 579 935 432 864 q 644 950 613 950 q 722 928 686 950 q 776 868 757 907 q 817 719 804 810 q 833 546 825 660 l 836 474 q 853 284 840 374 q 889 114 867 194 q 894 89 892 103 q 896 57 896 75 q 895 34 896 47 q 893 4 894 21 q 876 -31 892 -18 q 838 -44 861 -44 m 368 368 q 544 399 463 385 q 692 422 625 413 q 688 574 690 511 q 680 686 685 636 q 664 788 675 736 q 553 715 596 775 q 428 503 481 618 q 415 474 424 493 q 392 422 406 454 l 368 368 z "},"Ẩ":{"ha":986,"x_min":69,"x_max":917,"o":"m 543 1185 q 508 1239 508 1219 q 603 1315 508 1271 q 599 1358 617 1336 q 572 1382 590 1374 q 536 1386 554 1390 l 465 1381 q 460 1397 465 1381 q 457 1433 456 1413 q 475 1464 458 1453 q 530 1474 492 1474 q 607 1460 568 1475 q 622 1453 615 1457 q 633 1446 628 1449 q 671 1389 643 1440 q 674 1308 682 1332 q 633 1231 668 1268 q 543 1185 599 1194 m 824 928 q 796 939 804 928 q 675 1072 719 1017 q 663 1092 665 1085 q 542 975 661 1094 q 507 946 525 956 q 483 963 488 946 q 479 992 479 979 q 497 1029 479 1003 q 522 1065 506 1043 q 560 1118 538 1088 q 576 1140 567 1129 q 596 1161 586 1150 q 613 1180 606 1172 q 622 1193 619 1188 q 638 1204 628 1200 q 657 1208 647 1208 q 694 1196 678 1208 q 740 1142 710 1183 q 761 1111 751 1124 q 776 1090 771 1099 q 813 1041 799 1061 q 833 1010 826 1021 q 851 983 843 993 q 858 967 858 974 q 824 928 849 928 m 858 -19 l 843 -17 q 772 71 772 0 q 774 88 772 83 q 774 111 771 96 q 774 135 775 124 q 771 157 774 147 q 756 219 764 183 q 736 301 747 256 q 701 339 728 339 q 679 335 692 339 q 603 310 636 321 q 546 293 571 300 l 479 274 q 424 259 451 265 q 374 247 397 253 q 299 190 326 235 q 271 142 288 171 q 235 78 254 114 q 165 31 208 31 q 90 68 121 31 q 69 114 69 92 q 78 146 69 129 l 174 340 q 300 598 253 501 q 363 726 347 694 q 600 960 453 889 q 665 975 633 975 q 742 953 707 975 q 797 893 778 932 q 838 744 825 835 q 854 571 846 685 l 857 499 q 910 139 858 301 q 915 114 913 128 q 917 82 917 100 q 916 59 917 72 q 914 29 915 46 q 897 -6 913 7 q 858 -19 882 -19 m 389 393 q 565 424 483 410 q 713 447 646 438 q 708 599 711 536 q 701 711 706 661 q 685 813 696 761 q 574 740 617 800 q 449 528 501 643 q 435 499 444 518 q 413 447 426 479 l 389 393 z "},"Ẫ":{"ha":1000,"x_min":49,"x_max":919,"o":"m 771 1189 q 656 1228 724 1183 q 647 1233 654 1229 q 625 1247 639 1238 q 553 1289 576 1279 q 528 1296 536 1296 q 501 1285 511 1296 q 488 1256 492 1274 q 464 1231 482 1231 q 444 1236 454 1231 q 428 1240 444 1236 q 395 1256 411 1244 q 378 1288 379 1267 q 388 1321 376 1307 q 432 1360 399 1335 q 482 1381 457 1381 q 524 1376 494 1381 q 557 1359 542 1369 q 592 1332 572 1349 q 648 1294 622 1307 q 713 1282 674 1282 q 736 1283 732 1282 q 797 1318 776 1300 q 829 1361 817 1336 q 844 1382 838 1376 q 863 1388 851 1388 q 908 1373 896 1388 q 919 1329 919 1358 q 892 1260 919 1292 q 831 1208 861 1224 q 771 1189 801 1192 m 819 892 q 789 904 799 892 q 712 985 746 949 q 654 1053 678 1022 q 645 1067 649 1061 q 640 1074 642 1072 q 507 944 639 1076 q 468 913 489 926 q 442 931 447 913 q 438 964 438 950 q 443 982 438 975 q 526 1103 476 1035 q 544 1126 535 1114 q 565 1151 554 1139 q 596 1186 588 1174 q 635 1203 611 1203 q 671 1186 657 1203 q 685 1167 675 1181 q 713 1129 696 1153 q 736 1097 726 1111 q 753 1072 746 1082 q 799 1013 776 1040 q 840 963 821 986 q 851 951 843 958 q 858 936 858 942 q 819 892 847 892 m 838 -49 l 822 -46 q 751 42 751 -29 q 753 58 751 54 q 753 82 750 67 q 753 106 754 94 q 750 128 753 118 q 735 190 743 154 q 715 272 726 226 q 681 310 707 310 q 658 306 671 310 q 583 281 615 292 q 525 264 550 271 l 458 244 q 403 230 431 236 q 353 218 376 224 q 278 161 306 206 q 250 113 267 142 q 214 49 233 85 q 144 1 188 1 q 69 39 100 1 q 49 85 49 63 q 57 117 49 100 l 153 311 q 279 569 232 472 q 342 697 326 665 q 579 931 432 860 q 644 946 613 946 q 722 924 686 946 q 776 864 757 903 q 817 715 804 806 q 833 542 825 656 l 836 469 q 889 110 838 272 q 894 85 892 99 q 896 53 896 71 q 895 30 896 43 q 893 0 894 17 q 876 -35 892 -22 q 838 -49 861 -49 m 368 364 q 544 394 463 381 q 692 418 625 408 q 688 569 690 507 q 680 682 685 632 q 664 783 675 732 q 553 711 596 771 q 428 499 481 614 q 415 469 424 489 q 392 418 406 450 l 368 364 z "},"Ä":{"ha":986,"x_min":83,"x_max":917,"o":"m 461 1072 q 420 1090 440 1078 q 396 1106 400 1103 q 383 1113 390 1108 q 367 1124 376 1118 l 404 1186 q 481 1167 447 1188 q 514 1119 514 1146 q 513 1115 514 1118 q 511 1107 513 1111 q 488 1082 506 1094 q 461 1072 471 1069 m 868 1021 q 846 1025 857 1021 q 786 1065 822 1033 q 757 1088 768 1079 q 740 1100 746 1097 q 760 1108 747 1103 q 790 1124 772 1114 q 822 1138 807 1132 q 847 1143 836 1143 q 897 1122 878 1140 q 917 1072 917 1103 q 903 1034 917 1047 q 868 1021 889 1021 m 808 -26 q 733 51 747 -26 l 722 108 q 712 165 718 128 q 696 256 706 203 q 664 324 689 306 q 656 326 661 325 q 644 326 651 326 q 610 325 631 326 q 560 321 589 324 q 506 317 521 317 l 440 319 q 381 317 404 319 q 340 294 358 314 q 300 225 322 275 q 284 178 290 197 q 272 147 278 158 q 194 90 249 97 q 178 89 190 89 q 110 119 136 89 q 101 140 103 126 q 97 168 99 154 l 96 183 q 97 191 96 186 q 99 203 97 196 q 101 215 100 210 q 101 222 101 219 q 97 238 101 232 q 83 268 83 256 q 92 285 83 279 q 101 293 94 288 q 118 306 108 299 l 125 311 q 174 351 153 331 q 206 392 194 371 q 318 613 254 479 l 415 803 q 436 840 422 817 q 471 893 450 863 l 488 918 l 499 938 q 506 949 501 943 q 514 961 510 954 q 618 1028 554 1028 q 663 1021 635 1028 q 719 981 701 1010 q 743 906 736 951 l 788 642 l 825 421 q 833 374 828 403 q 844 308 838 346 l 883 72 q 885 65 885 69 q 885 54 885 60 q 867 -1 885 17 q 808 -26 849 -26 m 382 410 l 664 418 l 599 813 l 382 410 z "},"Ǟ":{"ha":1000,"x_min":49,"x_max":910,"o":"m 476 1119 q 383 1158 419 1114 q 578 1243 340 1232 q 613 1238 592 1243 q 642 1233 633 1232 l 692 1228 q 755 1222 728 1224 q 799 1222 782 1221 q 838 1215 824 1222 q 869 1199 851 1208 q 883 1186 879 1189 q 861 1136 908 1154 l 835 1128 q 781 1123 808 1125 q 721 1122 753 1121 q 646 1122 658 1125 q 547 1124 589 1125 q 476 1119 504 1122 m 504 976 q 451 1004 485 981 l 421 1021 q 436 1047 428 1032 q 454 1078 444 1061 q 507 1068 482 1079 q 549 1008 532 1057 q 529 985 546 996 q 504 976 513 975 m 867 931 q 831 940 846 931 q 785 975 815 950 q 779 980 788 974 q 753 1001 771 986 q 774 1010 764 1006 q 794 1021 785 1015 q 849 1039 832 1039 q 892 1021 875 1038 q 910 976 910 1004 q 897 942 910 954 q 867 931 885 931 m 838 -19 l 822 -17 q 751 71 751 0 q 753 88 751 83 q 753 111 750 96 q 753 135 754 124 q 750 157 753 147 q 735 219 743 183 q 715 301 726 256 q 681 339 707 339 q 658 335 671 339 q 583 310 615 321 q 525 293 550 300 l 458 274 q 403 259 431 265 q 353 247 376 253 q 278 190 306 235 q 250 142 267 171 q 214 78 233 114 q 144 31 188 31 q 69 68 100 31 q 49 114 49 92 q 57 146 49 129 l 153 340 q 279 598 232 501 q 342 726 326 694 q 579 960 432 889 q 644 975 613 975 q 722 953 686 975 q 776 893 757 932 q 817 744 804 835 q 833 571 825 685 l 836 499 q 889 139 838 301 q 894 114 892 128 q 896 82 896 100 q 895 59 896 72 q 893 29 894 46 q 876 -6 892 7 q 838 -19 861 -19 m 368 393 q 544 424 463 410 q 692 447 625 438 q 688 599 690 536 q 680 711 685 661 q 664 813 675 761 q 553 740 596 800 q 428 528 481 643 q 415 499 424 518 q 392 447 406 479 l 368 393 z "},"Ạ":{"ha":1000,"x_min":49,"x_max":896,"o":"m 838 -19 l 822 -17 q 751 71 751 0 q 753 88 751 83 q 753 111 750 96 q 753 135 754 124 q 750 157 753 147 q 735 219 743 183 q 715 301 726 256 q 681 339 707 339 q 658 335 671 339 q 583 310 615 321 q 525 293 550 300 l 458 274 q 403 259 431 265 q 353 247 376 253 q 278 190 306 235 q 250 142 267 171 q 214 78 233 114 q 144 31 188 31 q 69 68 100 31 q 49 114 49 92 q 57 146 49 129 l 153 340 q 279 598 232 501 q 342 726 326 694 q 579 960 432 889 q 644 975 613 975 q 722 953 686 975 q 776 893 757 932 q 817 744 804 835 q 833 571 825 685 l 836 499 q 889 139 838 301 q 894 114 892 128 q 896 82 896 100 q 895 59 896 72 q 893 29 894 46 q 876 -6 892 7 q 838 -19 861 -19 m 368 393 q 544 424 463 410 q 692 447 625 438 q 688 599 690 536 q 680 711 685 661 q 664 813 675 761 q 553 740 596 800 q 428 528 481 643 q 415 499 424 518 q 392 447 406 479 l 368 393 m 469 -240 q 438 -233 457 -246 q 410 -195 419 -221 q 410 -139 400 -169 q 463 -79 419 -108 q 510 -65 488 -64 q 561 -86 533 -67 q 589 -135 586 -104 q 560 -183 592 -164 q 545 -193 554 -186 q 522 -210 536 -200 q 495 -227 508 -219 q 469 -240 482 -235 z "},"À":{"ha":1015,"x_min":69,"x_max":946,"o":"m 599 1008 q 567 1027 583 1017 q 532 1049 550 1038 q 472 1091 514 1060 q 364 1172 429 1122 q 344 1188 357 1179 q 317 1207 332 1197 q 300 1239 301 1238 l 317 1275 q 328 1294 328 1300 q 340 1297 328 1292 q 356 1300 346 1300 q 429 1274 389 1300 q 522 1212 472 1247 q 626 1132 571 1176 q 661 1069 661 1106 q 639 1026 661 1032 q 599 1008 631 1008 m 879 0 q 799 17 843 0 q 776 35 781 22 q 772 56 774 42 q 769 93 771 71 l 763 131 q 728 320 740 253 q 710 401 715 388 q 628 389 679 393 q 577 381 597 385 q 546 374 557 376 q 504 369 533 368 l 449 371 q 392 363 411 374 q 343 257 383 357 q 320 199 329 221 q 308 171 311 178 q 241 101 283 124 q 146 79 199 79 q 97 94 117 79 q 69 150 78 110 q 134 169 113 146 q 172 238 156 192 l 200 318 q 224 381 206 333 q 265 489 242 428 q 310 603 289 550 q 367 724 332 658 q 450 865 401 789 q 508 922 474 903 q 579 942 542 942 q 701 875 651 942 q 738 817 721 849 q 778 732 754 785 l 803 679 q 818 619 814 654 q 874 542 825 557 q 889 531 882 539 q 895 520 892 525 q 901 513 899 515 q 861 442 861 485 q 874 374 861 418 q 897 288 885 335 q 917 202 908 242 q 929 146 926 163 l 944 71 q 946 57 946 68 l 944 21 l 914 8 q 879 0 893 0 m 451 521 q 511 525 476 525 l 560 525 q 633 530 603 525 q 688 549 663 535 q 670 590 682 564 q 639 651 658 615 q 581 779 599 731 q 499 640 529 697 q 451 521 469 582 z "},"Ả":{"ha":1000,"x_min":49,"x_max":896,"o":"m 700 979 q 669 1026 669 1010 q 753 1094 669 1056 q 749 1132 765 1114 q 726 1153 742 1146 q 694 1157 710 1160 l 632 1151 q 626 1165 631 1151 q 624 1197 622 1179 q 640 1225 625 1215 q 689 1234 656 1233 q 757 1221 722 1235 q 779 1210 769 1218 q 813 1158 788 1206 q 815 1088 824 1110 q 779 1020 810 1053 q 700 979 749 988 m 838 -19 l 822 -17 q 751 71 751 0 q 753 88 751 83 q 753 110 751 96 q 753 134 754 122 q 750 156 753 146 q 735 218 743 182 q 715 299 726 254 q 681 336 707 336 q 658 332 671 336 q 583 308 615 318 q 525 292 550 299 l 458 272 q 403 257 431 264 q 353 246 376 250 q 278 189 306 233 q 250 142 267 169 q 214 78 233 114 q 144 31 188 31 q 69 68 100 31 q 49 113 49 92 q 57 144 49 128 l 153 338 q 279 593 232 497 q 342 721 326 689 q 579 953 431 882 q 644 968 613 968 q 722 947 686 968 q 776 888 757 926 q 801 822 790 858 q 817 739 811 785 q 833 567 825 678 l 836 494 q 889 138 838 299 q 896 82 896 114 q 895 59 896 72 q 893 29 894 46 q 876 -6 892 7 q 838 -19 861 -19 m 368 390 q 544 421 463 407 q 692 444 625 435 q 688 595 690 533 q 680 706 685 657 q 664 807 675 756 q 553 735 596 794 q 485 633 517 686 q 428 524 454 581 q 415 496 424 515 q 392 444 406 476 l 368 390 z "},"Ā":{"ha":983,"x_min":83,"x_max":914,"o":"m 600 1085 l 600 1094 l 321 1094 q 308 1095 315 1094 q 294 1097 300 1096 q 267 1119 282 1108 q 249 1139 251 1129 q 260 1173 249 1153 q 283 1196 272 1193 q 351 1210 317 1207 q 419 1214 385 1214 q 464 1208 442 1214 q 506 1201 486 1201 q 663 1199 586 1197 q 815 1196 739 1200 q 839 1186 828 1196 q 861 1169 850 1176 q 840 1144 850 1160 q 819 1126 831 1129 q 712 1103 767 1113 q 600 1085 657 1094 m 233 -29 q 174 -8 207 -31 q 144 46 143 15 l 147 74 q 153 132 147 111 q 155 148 154 142 q 156 158 156 154 q 122 219 156 194 q 93 238 103 229 q 83 264 83 247 q 93 282 83 276 q 111 290 99 285 q 146 301 124 294 q 215 385 194 326 q 440 858 290 599 q 472 904 453 881 q 510 950 490 928 l 543 989 q 585 1010 560 1008 q 622 1001 596 1013 q 722 882 711 968 l 729 829 q 732 799 731 813 q 735 776 733 786 l 793 376 q 854 368 797 375 q 879 365 864 367 q 914 361 894 364 q 860 292 911 299 q 789 244 789 283 q 803 197 789 224 l 815 163 q 833 97 826 126 q 842 44 840 68 q 835 19 843 33 q 821 3 828 4 q 803 1 817 1 q 760 15 774 1 q 701 138 711 60 q 695 172 700 149 q 682 226 690 194 l 674 260 q 594 264 635 267 q 500 256 547 263 q 404 236 453 249 q 321 136 329 218 q 313 83 318 108 q 299 33 307 57 q 233 -29 278 -25 m 404 365 q 426 367 415 367 q 447 367 438 367 q 465 365 457 365 q 479 365 474 365 l 517 365 q 647 378 596 365 q 622 532 633 431 q 615 578 622 540 q 599 667 608 617 q 576 763 589 718 q 545 715 563 744 q 507 642 528 685 q 404 365 464 554 z "},"Ą":{"ha":967,"x_min":83,"x_max":897,"o":"m 767 -349 q 665 -302 701 -342 q 628 -201 628 -262 l 629 -181 q 647 -99 632 -140 q 695 -26 674 -53 q 732 11 717 1 q 739 15 735 13 q 733 39 736 25 l 722 96 q 712 153 718 115 q 696 243 706 190 q 664 311 689 293 q 656 313 661 313 q 644 314 651 314 q 610 313 631 314 q 560 308 589 311 q 506 304 521 304 l 440 307 q 381 304 404 307 q 340 282 358 301 q 300 213 322 263 q 284 165 290 185 q 272 135 278 146 q 194 78 249 85 q 178 76 190 76 q 110 107 136 76 q 101 128 103 114 q 97 156 99 142 l 96 171 q 97 178 96 174 q 99 190 97 183 q 101 202 100 197 q 101 210 101 207 q 97 225 101 219 q 83 256 83 243 q 92 272 83 267 q 101 281 94 275 q 118 293 108 286 l 125 299 q 174 338 153 318 q 206 379 194 358 q 318 600 254 467 l 415 790 q 436 827 422 804 q 471 881 450 850 l 488 906 l 499 925 q 506 936 501 931 q 514 949 510 942 q 618 1015 554 1015 q 663 1008 635 1015 q 719 968 701 997 q 743 893 736 939 l 788 629 l 825 408 q 833 362 828 390 q 844 296 838 333 l 883 60 q 885 52 885 57 q 885 42 885 47 q 867 -14 885 4 q 831 -36 853 -32 q 810 -50 822 -43 q 793 -61 800 -56 q 782 -72 786 -67 q 739 -146 757 -107 q 731 -187 731 -162 q 801 -256 731 -244 q 824 -257 807 -257 q 843 -258 839 -257 q 876 -265 856 -258 q 897 -297 897 -275 q 886 -321 897 -310 l 875 -329 q 857 -339 868 -336 q 801 -347 824 -344 q 767 -349 778 -350 m 382 397 l 664 406 l 599 800 l 382 397 z "},"Å":{"ha":978,"x_min":83,"x_max":910,"o":"m 732 943 q 640 967 686 943 q 581 1029 593 992 q 568 1096 568 1065 q 668 1225 568 1189 q 692 1229 679 1229 q 756 1203 721 1229 q 767 1196 761 1200 q 783 1189 774 1192 q 798 1183 792 1186 q 810 1178 804 1181 q 831 1164 821 1172 q 843 1149 842 1156 q 854 1076 854 1097 q 836 1011 854 1042 q 771 950 804 961 q 732 943 750 943 m 711 1033 q 745 1040 728 1033 q 772 1054 763 1046 q 797 1108 797 1086 q 790 1133 797 1117 q 775 1147 788 1135 q 758 1157 764 1158 q 685 1136 726 1157 q 647 1097 660 1125 q 656 1069 649 1083 q 671 1046 664 1054 q 711 1033 682 1033 m 857 -40 q 849 -40 854 -40 q 838 -37 844 -39 q 799 2 817 -32 q 765 90 781 36 q 735 201 750 143 q 675 219 733 213 q 612 224 647 222 q 536 225 576 225 q 440 222 486 225 q 382 218 393 219 q 307 164 331 213 q 246 53 285 115 q 175 8 219 11 q 103 44 135 6 q 83 89 83 68 q 92 119 83 106 q 254 415 153 232 q 600 915 354 599 q 667 929 632 929 q 742 908 707 929 q 794 849 776 888 q 810 788 801 833 q 827 682 818 742 q 843 564 836 622 q 854 464 850 506 q 864 343 854 418 q 890 147 874 268 q 896 112 893 132 q 903 67 899 92 q 908 27 906 42 q 908 7 910 13 q 892 -28 907 -15 q 857 -40 878 -40 m 665 340 q 688 341 676 340 q 711 343 700 342 q 711 365 711 356 q 710 382 711 375 q 701 615 708 518 q 683 772 694 713 q 597 683 657 768 q 516 560 567 640 q 396 361 465 481 q 447 365 422 367 q 494 360 467 364 q 558 351 522 357 q 602 345 568 350 q 665 340 636 340 z "},"Ǻ":{"ha":1051,"x_min":83,"x_max":1054,"o":"m 732 943 q 640 967 686 943 q 581 1029 593 992 q 568 1096 568 1065 q 668 1225 568 1189 q 692 1229 679 1229 q 756 1203 721 1229 q 767 1196 761 1200 q 783 1189 774 1192 q 798 1183 792 1186 q 810 1178 804 1181 q 831 1164 821 1172 q 843 1149 842 1156 q 849 1118 847 1132 q 960 1244 921 1172 q 997 1282 971 1264 q 1018 1286 1008 1289 q 1043 1267 1033 1283 q 1050 1217 1054 1243 q 1029 1178 1046 1193 q 956 1118 992 1146 q 888 1067 921 1090 q 851 1051 869 1054 q 836 1011 847 1031 q 771 950 804 961 q 732 943 750 943 m 711 1033 q 745 1040 728 1033 q 772 1054 763 1046 q 797 1108 797 1086 q 790 1133 797 1117 q 775 1147 788 1135 q 758 1157 764 1158 q 685 1136 726 1157 q 647 1097 660 1125 q 656 1069 649 1083 q 671 1046 664 1054 q 711 1033 682 1033 m 857 -40 q 849 -40 854 -40 q 838 -37 844 -39 q 799 2 817 -32 q 765 90 781 36 q 735 201 750 143 q 675 219 733 213 q 612 224 647 222 q 536 225 576 225 q 440 222 486 225 q 382 218 393 219 q 307 164 331 213 q 246 53 285 115 q 175 8 219 11 q 103 44 135 6 q 83 89 83 68 q 92 119 83 106 q 254 415 153 232 q 600 915 354 599 q 667 929 632 929 q 742 908 707 929 q 794 849 776 888 q 810 788 801 833 q 827 682 818 742 q 843 564 836 622 q 854 464 850 506 q 864 343 854 418 q 890 147 874 268 q 896 112 893 132 q 903 67 899 92 q 908 27 906 42 q 908 7 910 13 q 892 -28 907 -15 q 857 -40 878 -40 m 665 340 q 688 341 676 340 q 711 343 700 342 q 711 365 711 356 q 710 382 711 375 q 701 615 708 518 q 683 772 694 713 q 597 683 657 768 q 516 560 567 640 q 396 361 465 481 q 447 365 422 367 q 494 360 467 364 q 558 351 522 357 q 602 345 568 350 q 665 340 636 340 z "},"Ã":{"ha":1051,"x_min":83,"x_max":982,"o":"m 788 1082 q 722 1090 754 1082 q 694 1100 713 1093 q 647 1118 675 1107 l 586 1147 q 534 1126 556 1135 q 499 1113 513 1118 q 469 1107 488 1107 q 432 1122 447 1107 q 422 1138 425 1129 q 422 1151 418 1147 q 468 1194 446 1175 q 508 1228 490 1214 q 558 1243 528 1243 q 588 1239 574 1243 q 637 1223 614 1232 q 678 1204 660 1214 l 708 1188 q 733 1176 717 1182 q 771 1165 749 1171 q 813 1174 796 1165 q 860 1228 829 1183 q 908 1251 875 1251 q 953 1239 932 1251 q 982 1194 982 1222 q 969 1161 982 1178 q 893 1103 943 1125 q 788 1082 843 1082 m 882 -26 q 874 -26 879 -26 q 863 -24 869 -25 q 806 58 831 -17 q 780 136 792 94 q 757 224 768 178 q 694 242 756 235 q 628 246 664 244 q 550 247 593 247 q 451 245 499 247 q 392 240 404 243 q 315 185 339 231 q 286 131 301 160 q 251 71 271 103 q 179 24 225 24 q 104 61 138 24 q 83 107 83 85 q 92 139 83 122 q 163 275 121 199 q 257 446 204 351 q 400 668 310 540 q 618 960 490 796 q 686 975 653 975 q 763 953 728 975 q 818 892 799 932 q 835 829 826 876 q 853 720 844 782 q 868 597 861 658 q 879 494 875 536 q 889 369 879 446 q 917 167 899 293 l 929 85 q 934 43 932 58 q 935 22 936 28 q 919 -13 933 0 q 882 -26 904 -26 m 685 367 q 708 367 696 367 q 732 369 719 368 q 732 393 732 383 q 731 410 732 403 q 722 651 729 550 q 703 813 715 753 q 614 721 679 808 q 406 388 550 633 q 460 392 433 392 q 507 388 479 392 q 574 378 535 385 q 619 372 583 376 q 685 367 654 367 z "},"Æ":{"ha":1421,"x_min":83,"x_max":1351,"o":"m 722 -26 q 597 206 642 -26 q 580 244 592 233 q 550 256 568 256 q 522 251 542 256 q 505 249 513 250 q 490 246 497 247 q 478 244 485 244 q 464 240 471 243 q 435 236 447 236 l 371 236 q 317 226 335 236 q 265 83 297 217 q 262 68 264 76 q 254 50 260 60 q 244 32 249 40 q 238 18 240 24 q 182 0 207 0 q 150 6 171 0 q 128 10 139 8 q 108 13 118 11 q 83 83 83 44 q 97 139 83 107 l 133 222 q 253 492 200 375 q 356 711 306 610 q 464 915 406 813 q 568 990 506 990 q 603 985 590 990 q 631 980 618 982 q 653 978 643 978 q 722 986 685 978 q 771 997 760 994 q 879 1018 844 1010 l 933 1029 q 967 1036 949 1032 q 1008 1043 986 1040 q 1043 1047 1028 1046 q 1068 1049 1058 1049 q 1160 1019 1121 1049 q 1178 999 1169 1011 q 1185 975 1186 986 q 1174 952 1185 964 q 1154 935 1164 940 q 1106 922 1139 928 l 1071 915 l 1019 903 q 924 878 963 889 q 865 860 885 867 q 729 801 810 840 l 681 781 q 678 740 679 758 q 678 710 678 722 q 688 570 678 640 q 718 428 699 500 q 753 424 732 425 q 806 422 775 422 q 1119 439 897 422 l 1193 444 l 1203 444 q 1235 436 1225 444 q 1256 417 1247 429 q 1267 394 1265 406 q 1261 369 1269 385 q 1244 351 1253 354 q 1167 338 1233 349 q 982 307 1101 326 q 769 271 779 276 q 754 253 761 267 q 746 228 747 240 q 748 206 746 224 q 753 167 750 188 q 760 131 757 147 q 767 115 764 115 q 799 110 782 113 q 835 108 815 108 q 906 115 869 108 q 992 131 942 121 q 1049 142 1024 138 q 1089 149 1074 147 q 1137 154 1111 153 q 1183 156 1163 156 q 1210 157 1204 157 l 1246 157 q 1310 144 1283 157 q 1351 100 1336 132 q 1323 56 1344 68 q 1267 39 1301 43 q 1197 28 1239 33 q 1097 15 1154 22 q 1048 10 1069 13 q 1013 6 1026 8 q 968 1 992 3 q 918 0 944 0 q 819 -6 854 -3 q 746 -22 783 -10 q 722 -26 733 -26 m 468 360 q 545 374 517 360 q 568 415 574 389 l 560 475 q 553 517 558 485 q 542 606 549 550 q 517 744 528 717 q 456 643 492 719 q 413 539 438 606 q 357 375 389 472 q 468 360 421 360 z "},"Ǽ":{"ha":1421,"x_min":83,"x_max":1351,"o":"m 594 1069 q 571 1088 583 1075 q 588 1119 582 1110 q 602 1135 593 1129 q 632 1149 611 1140 q 829 1253 753 1172 q 893 1288 850 1274 q 921 1286 906 1293 q 949 1251 942 1276 q 939 1211 956 1215 q 897 1167 925 1182 q 779 1113 836 1136 q 669 1072 722 1090 q 594 1069 628 1054 m 722 -26 q 597 206 642 -26 q 580 244 592 233 q 550 256 568 256 q 522 251 542 256 q 505 249 513 250 q 490 246 497 247 q 478 244 485 244 q 464 240 471 243 q 435 236 447 236 l 371 236 q 317 226 335 236 q 265 83 297 217 q 262 68 264 76 q 254 50 260 60 q 244 32 249 40 q 238 18 240 24 q 182 0 207 0 q 150 6 171 0 q 128 10 139 8 q 108 13 118 11 q 83 83 83 44 q 97 139 83 107 l 133 222 q 253 492 200 375 q 356 711 306 610 q 464 915 406 813 q 568 990 506 990 q 603 985 590 990 q 631 980 618 982 q 653 978 643 978 q 722 986 685 978 q 771 997 760 994 q 879 1018 844 1010 l 933 1029 q 967 1036 949 1032 q 1008 1043 986 1040 q 1043 1047 1028 1046 q 1068 1049 1058 1049 q 1160 1019 1121 1049 q 1178 999 1169 1011 q 1185 975 1186 986 q 1174 952 1185 964 q 1154 935 1164 940 q 1106 922 1139 928 l 1071 915 l 1019 903 q 924 878 963 889 q 865 860 885 867 q 806 834 839 849 q 729 801 772 819 l 681 781 q 678 740 679 758 q 678 710 678 722 q 688 570 678 640 q 718 428 699 500 q 753 424 732 425 q 806 422 775 422 q 1119 439 897 422 l 1193 444 l 1203 444 q 1235 436 1225 444 q 1256 417 1247 429 q 1267 394 1265 406 q 1261 369 1269 385 q 1244 351 1253 354 q 1167 338 1233 349 q 982 307 1101 326 q 769 271 779 276 q 754 253 761 267 q 746 228 747 240 q 748 206 746 224 q 753 167 750 188 q 760 131 757 147 q 767 115 764 115 q 799 110 782 113 q 835 108 815 108 q 906 115 869 108 q 992 131 942 121 q 1049 142 1024 138 q 1089 149 1074 147 q 1137 154 1111 153 q 1183 156 1163 156 q 1210 157 1204 157 l 1246 157 q 1310 144 1283 157 q 1351 100 1336 132 q 1323 56 1344 68 q 1267 39 1301 43 q 1197 28 1239 33 q 1097 15 1154 22 q 1048 10 1069 13 q 1013 6 1026 8 q 968 1 992 3 q 918 0 944 0 q 819 -6 854 -3 q 746 -22 783 -10 q 722 -26 733 -26 m 468 360 q 544 374 517 360 q 568 415 572 389 l 560 475 q 553 517 558 485 q 542 606 549 550 q 517 744 528 717 q 456 643 492 719 q 413 539 438 606 q 357 375 389 472 q 468 360 421 360 z "},"Ǣ":{"ha":1421,"x_min":83,"x_max":1351,"o":"m 553 1101 q 414 1140 468 1096 q 706 1225 350 1215 q 728 1224 715 1225 q 757 1219 740 1222 q 801 1215 789 1213 l 876 1210 q 972 1204 932 1206 q 1036 1204 1011 1203 q 1094 1197 1074 1204 q 1143 1181 1115 1190 q 1164 1168 1156 1172 q 1131 1118 1200 1136 q 1090 1110 1115 1115 q 1010 1105 1051 1107 q 921 1104 968 1103 q 807 1104 826 1107 q 657 1106 721 1107 q 553 1101 593 1104 m 722 -26 q 597 206 642 -26 q 580 244 592 233 q 550 256 568 256 q 522 251 542 256 q 505 249 513 250 q 490 246 497 247 q 478 244 485 244 q 464 240 471 243 q 435 236 447 236 l 371 236 q 317 226 335 236 q 265 83 297 217 q 262 68 264 76 q 254 50 260 60 q 244 32 249 40 q 238 18 240 24 q 182 0 207 0 q 150 6 171 0 q 128 10 139 8 q 108 13 118 11 q 83 83 83 44 q 97 139 83 107 l 133 222 q 253 492 200 375 q 356 711 306 610 q 464 915 406 813 q 568 990 506 990 q 603 985 590 990 q 631 980 618 982 q 653 978 643 978 q 722 986 685 978 q 771 997 760 994 q 879 1018 844 1010 l 933 1029 q 967 1036 949 1032 q 1008 1043 986 1040 q 1043 1047 1028 1046 q 1068 1049 1058 1049 q 1160 1019 1121 1049 q 1178 999 1169 1011 q 1185 975 1186 986 q 1174 952 1185 964 q 1154 935 1164 940 q 1106 922 1139 928 l 1071 915 l 1019 903 q 924 878 963 889 q 865 860 885 867 q 729 801 810 840 l 681 781 q 678 740 679 758 q 678 710 678 722 q 688 570 678 640 q 718 428 699 500 q 753 424 732 425 q 806 422 775 422 q 1119 439 897 422 l 1193 444 l 1203 444 q 1235 436 1225 444 q 1256 417 1247 429 q 1267 394 1265 406 q 1261 369 1269 385 q 1244 351 1253 354 q 1167 338 1233 349 q 982 307 1101 326 q 769 271 779 276 q 754 253 761 267 q 746 228 747 240 q 748 206 746 224 q 753 167 750 188 q 760 131 757 147 q 767 115 764 115 q 799 110 782 113 q 835 108 815 108 q 906 115 869 108 q 992 131 942 121 q 1049 142 1024 138 q 1089 149 1074 147 q 1137 154 1111 153 q 1183 156 1163 156 q 1210 157 1204 157 l 1246 157 q 1310 144 1283 157 q 1351 100 1336 132 q 1323 56 1344 68 q 1267 39 1301 43 q 1197 28 1239 33 q 1097 15 1154 22 q 1048 10 1069 13 q 1013 6 1026 8 q 968 1 992 3 q 918 0 944 0 q 819 -6 854 -3 q 746 -22 783 -10 q 722 -26 733 -26 m 468 360 q 545 374 517 360 q 568 415 574 389 l 560 475 q 553 517 558 485 q 542 606 549 550 q 517 744 528 717 q 456 643 492 719 q 413 539 438 606 q 357 375 389 472 q 468 360 421 360 z "},"B":{"ha":889,"x_min":83,"x_max":819,"o":"m 414 -76 q 290 -29 346 -76 q 266 -10 279 -19 q 238 11 253 0 q 235 2 236 7 q 232 -8 233 -3 q 224 -26 228 -19 q 182 -51 207 -51 q 142 -33 160 -51 q 92 71 92 13 q 90 149 92 115 q 88 204 89 182 q 85 274 86 232 q 83 371 83 315 q 86 471 83 424 q 94 560 89 518 q 153 789 110 683 q 252 915 186 869 q 408 969 318 961 q 445 972 429 971 q 472 972 461 972 q 644 928 575 972 q 701 869 681 906 q 721 792 721 833 q 706 722 721 760 l 692 694 q 681 672 686 683 q 668 646 675 660 q 654 620 665 639 q 624 569 643 601 q 672 543 658 549 q 783 459 746 515 q 819 335 819 403 q 785 203 819 267 q 507 -53 700 44 q 414 -76 457 -76 m 357 39 q 499 107 440 56 q 615 240 558 158 q 669 360 658 307 q 674 397 674 381 q 653 454 674 435 q 599 474 633 474 q 560 468 576 474 q 432 389 496 449 q 365 360 399 360 q 322 372 346 360 q 278 406 296 388 q 247 453 260 424 l 279 475 q 323 506 304 493 q 356 526 342 519 q 558 761 489 599 q 571 821 565 781 l 575 851 q 496 869 535 869 q 436 860 461 869 q 338 801 378 842 q 229 597 299 763 q 213 476 213 543 q 214 432 213 458 q 218 371 215 406 q 221 344 219 361 q 224 303 222 326 q 228 246 225 285 q 239 149 232 207 l 244 103 q 256 100 249 101 q 272 97 263 99 q 313 86 296 96 q 338 64 324 81 l 357 39 z "},"C":{"ha":1006,"x_min":67,"x_max":936,"o":"m 463 10 q 253 59 332 18 q 134 163 174 100 q 82 301 94 226 q 69 450 69 375 q 81 537 67 474 q 133 669 94 600 q 400 885 218 824 q 509 881 456 893 q 601 842 563 868 q 649 778 639 815 q 651 764 650 769 q 651 756 651 758 q 608 714 651 714 q 595 714 601 714 q 585 715 589 714 q 572 721 579 715 q 494 743 533 743 q 354 669 424 743 q 236 375 236 547 q 249 257 236 314 q 393 133 275 133 q 439 138 414 133 q 514 151 483 143 q 572 171 544 158 q 630 206 599 183 q 706 264 661 229 q 735 289 717 271 q 779 333 753 307 l 807 363 q 863 396 840 396 q 907 378 881 396 q 936 325 936 357 q 921 283 936 303 q 890 239 917 275 q 854 193 878 221 q 794 128 831 165 q 585 17 654 25 q 524 12 554 14 q 463 10 493 10 z "},"Ć":{"ha":999,"x_min":69,"x_max":929,"o":"m 246 968 q 221 986 232 975 q 239 1019 233 1010 q 254 1035 244 1029 q 285 1049 264 1040 q 486 1186 407 1100 q 551 1221 506 1208 q 582 1219 565 1226 q 608 1183 601 1210 q 600 1113 615 1149 q 582 1086 593 1097 q 557 1068 571 1075 q 436 1013 494 1038 q 322 969 378 988 q 246 968 279 953 m 456 0 q 257 57 343 0 q 71 399 168 114 l 71 426 q 69 440 69 432 q 69 458 69 447 q 81 564 69 513 q 113 676 92 615 q 192 790 135 735 q 453 921 251 849 q 532 901 493 921 q 601 848 571 881 q 642 778 632 815 q 644 764 643 769 q 644 756 644 758 q 601 714 644 714 q 588 714 594 714 q 578 715 582 714 q 565 721 572 715 q 488 743 526 743 q 347 669 417 743 q 229 375 229 547 q 242 257 229 314 q 386 133 268 133 q 432 138 407 133 q 507 151 476 143 q 565 171 538 158 q 623 206 592 183 q 699 264 654 229 q 728 289 710 271 q 772 333 746 307 l 800 363 q 856 396 833 396 q 900 378 874 396 q 929 325 929 357 q 914 283 929 303 q 883 239 910 275 q 847 193 871 221 q 788 128 824 165 q 578 17 646 33 q 456 0 518 3 z "},"Č":{"ha":999,"x_min":69,"x_max":929,"o":"m 374 975 q 290 1036 324 975 q 268 1087 278 1064 q 251 1128 258 1110 q 249 1135 250 1132 q 249 1140 249 1139 q 262 1165 249 1156 q 296 1174 275 1174 q 343 1154 319 1174 l 365 1129 q 376 1118 368 1125 q 393 1100 383 1111 q 472 1179 450 1154 q 549 1214 506 1213 q 597 1201 575 1214 q 615 1171 615 1192 q 601 1142 615 1154 q 516 1067 557 1101 q 439 1001 475 1032 q 374 975 408 975 m 456 0 q 257 57 343 0 q 71 399 168 114 l 71 426 q 69 440 69 432 q 69 458 69 447 q 81 564 69 513 q 113 676 92 615 q 192 790 135 735 q 453 921 251 849 q 532 901 493 921 q 601 848 571 881 q 642 778 632 815 q 644 764 643 769 q 644 756 644 758 q 601 714 644 714 q 588 714 594 714 q 578 715 582 714 q 565 721 572 715 q 488 743 526 743 q 347 669 417 743 q 229 375 229 547 q 242 257 229 314 q 386 133 268 133 q 432 138 407 133 q 507 151 476 143 q 565 171 538 158 q 623 206 592 183 q 699 264 654 229 q 728 289 710 271 q 772 333 746 307 l 800 363 q 856 396 833 396 q 900 378 874 396 q 929 325 929 357 q 914 283 929 303 q 883 239 910 275 q 847 193 871 221 q 788 128 824 165 q 578 17 646 33 q 456 0 518 3 z "},"Ç":{"ha":917,"x_min":83,"x_max":850,"o":"m 494 -381 q 429 -371 458 -381 q 410 -357 417 -368 q 404 -333 404 -346 q 411 -312 404 -319 q 426 -296 414 -308 q 437 -287 432 -292 q 444 -279 442 -283 q 453 -271 447 -276 q 467 -258 458 -265 q 492 -226 481 -244 q 522 -131 522 -178 q 457 -18 522 -62 q 417 12 439 -7 q 368 54 394 31 q 307 110 331 90 q 254 144 283 129 q 165 254 207 169 q 83 610 83 421 q 88 690 83 649 q 99 774 92 731 q 188 939 111 854 q 271 985 214 969 q 399 1000 328 1000 q 543 983 475 1000 q 642 933 611 965 q 664 907 660 917 q 668 890 667 897 q 669 876 669 882 q 665 863 669 869 q 642 840 657 850 q 617 831 628 831 q 579 839 600 831 l 553 847 q 468 857 519 857 q 360 843 411 857 q 274 802 308 829 q 232 735 240 775 q 221 656 225 694 q 217 582 217 618 q 288 269 217 419 q 469 168 338 168 q 582 183 526 168 q 704 225 638 199 l 739 242 q 790 263 771 257 q 800 265 796 264 q 806 265 804 265 q 838 249 825 265 q 846 208 850 232 q 789 136 835 158 q 676 82 735 107 l 622 56 q 636 22 629 38 q 649 -6 643 6 q 672 -64 663 -40 q 685 -101 681 -87 q 694 -164 694 -131 q 658 -278 694 -228 q 568 -361 622 -329 q 494 -381 533 -381 z "},"Ĉ":{"ha":1006,"x_min":67,"x_max":936,"o":"m 463 10 q 253 59 332 18 q 134 163 174 100 q 82 301 94 226 q 69 450 69 375 q 81 537 67 474 q 133 669 94 600 q 400 885 218 824 q 509 881 456 893 q 601 842 563 868 q 649 778 639 815 q 651 764 650 769 q 651 756 651 758 q 608 714 651 714 q 595 714 601 714 q 585 715 589 714 q 572 721 579 715 q 494 743 533 743 q 354 669 424 743 q 236 375 236 547 q 249 257 236 314 q 393 133 275 133 q 439 138 414 133 q 514 151 483 143 q 572 171 544 158 q 630 206 599 183 q 706 264 661 229 q 735 289 717 271 q 779 333 753 307 l 807 363 q 863 396 840 396 q 907 378 881 396 q 936 325 936 357 q 921 283 936 303 q 890 239 917 275 q 854 193 878 221 q 794 128 831 165 q 585 17 654 25 q 524 12 554 14 q 463 10 493 10 m 636 917 q 606 929 615 917 q 528 1010 563 974 q 471 1078 494 1047 q 462 1092 465 1086 q 457 1099 458 1097 q 324 969 456 1101 q 285 938 306 951 q 259 956 264 938 q 254 989 254 975 q 274 1029 254 997 q 301 1069 283 1044 q 343 1128 318 1093 q 361 1151 351 1139 q 382 1175 371 1164 q 401 1196 393 1186 q 413 1211 408 1206 q 451 1228 428 1228 q 492 1215 474 1228 q 543 1154 511 1200 q 567 1122 557 1136 q 583 1097 576 1107 q 623 1043 607 1065 q 646 1008 639 1021 q 666 979 657 990 q 675 961 675 968 q 636 917 664 917 z "},"Ċ":{"ha":950,"x_min":67,"x_max":936,"o":"m 471 988 q 403 1035 421 996 q 400 1051 401 1040 q 399 1069 399 1063 q 443 1126 414 1104 q 506 1149 472 1149 q 547 1130 529 1149 q 564 1078 564 1111 q 553 1032 564 1054 q 479 988 540 1011 l 471 988 m 463 10 q 253 59 332 18 q 134 163 174 100 q 82 301 94 226 q 69 450 69 375 q 81 537 67 474 q 133 669 94 600 q 400 885 218 824 q 509 881 456 893 q 601 842 563 868 q 649 778 639 815 q 651 764 650 769 q 651 756 651 758 q 608 714 651 714 q 595 714 601 714 q 585 715 589 714 q 572 721 579 715 q 494 743 533 743 q 354 669 424 743 q 236 375 236 547 q 249 257 236 314 q 393 133 275 133 q 439 138 414 133 q 514 151 483 143 q 572 171 544 158 q 630 206 599 183 q 706 264 661 229 q 735 289 717 271 q 779 333 753 307 l 807 363 q 863 396 840 396 q 907 378 881 396 q 936 325 936 357 q 921 283 936 303 q 890 239 917 275 q 854 193 878 221 q 794 128 831 165 q 585 17 654 25 q 524 12 554 14 q 463 10 493 10 z "},"D":{"ha":1054,"x_min":111,"x_max":985,"o":"m 272 -67 q 154 -32 210 -67 q 122 -3 133 -18 q 111 31 111 11 l 113 43 l 122 115 q 138 227 131 179 q 153 306 146 275 l 160 336 q 206 544 188 457 q 235 703 224 631 q 253 854 247 776 l 258 879 l 224 910 q 202 928 211 921 q 186 942 193 936 q 214 994 192 979 q 272 1018 236 1010 q 353 1028 307 1028 q 438 1019 394 1028 q 656 968 561 997 q 832 886 750 939 q 884 848 860 868 q 928 804 908 828 q 985 654 985 731 q 942 519 985 588 q 604 110 778 261 q 493 25 551 63 q 371 -43 435 -12 q 272 -67 321 -67 m 279 58 l 297 65 q 653 349 504 167 q 753 493 713 425 q 815 636 794 561 q 821 679 821 653 q 799 757 821 722 q 740 810 778 792 q 597 863 671 842 q 442 896 522 885 q 397 893 428 897 l 367 889 q 415 840 400 861 q 431 796 431 819 q 430 788 431 793 q 428 776 429 783 q 406 687 418 736 q 379 578 394 638 l 329 378 q 298 247 313 310 q 271 125 283 183 q 266 91 267 110 q 265 64 265 72 q 279 58 276 58 z "},"Ð":{"ha":1167,"x_min":83,"x_max":1097,"o":"m 522 -37 q 483 -27 503 -37 q 431 8 464 -17 q 444 17 436 11 q 464 32 453 24 q 485 47 475 40 q 506 58 496 53 q 646 158 583 100 q 766 292 708 215 q 886 469 824 369 q 918 553 906 500 q 922 596 922 574 q 899 678 922 643 q 828 731 875 713 q 507 783 690 783 l 461 782 q 442 775 453 782 q 422 763 432 768 q 406 719 406 749 q 406 672 406 697 q 404 621 406 647 q 413 494 403 567 q 497 477 443 479 q 604 474 550 475 q 705 467 663 474 q 785 436 747 461 q 644 356 733 364 q 624 353 633 354 q 610 353 615 353 q 563 348 586 351 q 518 342 540 344 q 476 337 496 339 q 442 335 457 335 q 446 283 440 321 q 450 221 450 246 l 451 160 q 435 92 451 117 q 389 68 419 68 q 313 118 342 68 q 297 161 301 139 q 293 181 294 174 q 290 190 292 189 q 282 232 285 214 q 276 263 279 250 l 268 304 q 253 309 263 307 q 229 314 243 311 l 178 328 q 111 364 131 342 q 83 428 83 392 q 139 474 83 464 q 174 480 160 476 q 199 486 188 483 q 223 492 210 489 q 250 499 236 496 q 252 534 253 514 q 249 579 251 554 q 211 796 243 628 q 192 819 201 807 q 171 844 182 831 q 192 905 171 878 q 253 938 214 932 q 393 946 322 946 q 426 945 407 946 q 471 943 444 944 q 851 875 644 932 q 1000 801 924 854 q 1073 719 1049 765 q 1097 622 1097 674 q 1078 526 1097 578 q 1023 415 1051 465 q 964 326 994 365 q 799 148 883 228 q 626 8 714 68 q 560 -29 588 -18 q 522 -37 539 -37 z "},"Ď":{"ha":994,"x_min":83,"x_max":925,"o":"m 485 1015 q 441 1031 461 1015 q 407 1072 421 1046 q 385 1120 394 1099 q 369 1158 376 1142 l 367 1171 q 379 1194 367 1185 q 411 1203 392 1203 q 456 1183 433 1203 l 478 1160 q 487 1150 481 1157 q 503 1133 493 1143 q 548 1177 529 1158 q 578 1207 567 1196 q 649 1240 607 1236 q 694 1228 674 1240 q 711 1200 711 1218 q 699 1172 711 1183 q 546 1040 614 1096 q 485 1015 517 1015 m 239 -72 q 125 -39 179 -72 q 94 -11 104 -25 q 83 22 83 3 l 85 33 l 94 104 q 124 288 110 228 l 131 317 q 176 517 158 433 q 203 670 193 600 q 219 815 214 740 l 225 839 q 218 846 226 838 q 192 869 210 854 q 172 888 181 881 q 156 900 163 894 q 183 951 161 936 q 239 974 204 965 q 317 983 272 983 q 397 975 358 983 q 608 925 517 953 q 778 846 699 897 q 871 767 833 814 q 925 622 925 696 q 883 493 925 560 q 558 99 724 242 q 451 17 507 54 q 333 -49 394 -21 q 239 -72 286 -72 m 246 49 l 263 56 q 606 328 464 153 q 702 467 663 401 q 761 606 742 533 q 767 647 767 621 q 746 722 767 689 q 689 772 725 756 q 401 856 556 833 q 358 853 389 857 l 329 849 q 392 760 392 799 q 391 752 392 757 q 389 740 390 747 q 368 653 379 701 q 342 549 357 606 l 293 357 q 263 231 278 292 q 238 113 249 169 q 233 81 233 99 q 232 54 232 63 q 246 49 243 49 z "},"Đ":{"ha":1167,"x_min":83,"x_max":1097,"o":"m 522 -37 q 483 -27 503 -37 q 431 8 464 -17 q 444 17 436 11 q 464 32 453 24 q 485 47 475 40 q 506 58 496 53 q 646 158 583 100 q 766 292 708 215 q 886 469 824 369 q 918 553 906 500 q 922 596 922 574 q 899 678 922 643 q 828 731 875 713 q 507 783 690 783 l 461 782 q 442 775 453 782 q 422 763 432 768 q 406 719 406 749 q 406 672 406 697 q 404 621 406 647 q 413 494 403 567 q 497 477 443 479 q 604 474 550 475 q 705 467 663 474 q 785 436 747 461 q 644 356 733 364 q 624 353 633 354 q 610 353 615 353 q 563 348 586 351 q 518 342 540 344 q 476 337 496 339 q 442 335 457 335 q 446 283 440 321 q 450 221 450 246 l 451 160 q 435 92 451 117 q 389 68 419 68 q 313 118 342 68 q 297 161 301 139 q 293 181 294 174 q 290 190 292 189 q 282 232 285 214 q 276 263 279 250 l 268 304 q 253 309 263 307 q 229 314 243 311 l 178 328 q 111 364 131 342 q 83 428 83 392 q 139 474 83 464 q 174 480 160 476 q 199 486 188 483 q 223 492 210 489 q 250 499 236 496 q 252 534 253 514 q 249 579 251 554 q 211 796 243 628 q 192 819 201 807 q 171 844 182 831 q 192 905 171 878 q 253 938 214 932 q 393 946 322 946 q 426 945 407 946 q 471 943 444 944 q 851 875 644 932 q 1000 801 924 854 q 1073 719 1049 765 q 1097 622 1097 674 q 1078 526 1097 578 q 1023 415 1051 465 q 964 326 994 365 q 799 148 883 228 q 626 8 714 68 q 560 -29 588 -18 q 522 -37 539 -37 z "},"Ḍ":{"ha":1054,"x_min":111,"x_max":985,"o":"m 272 -67 q 154 -32 210 -67 q 122 -3 133 -18 q 111 31 111 11 l 113 43 l 122 115 q 138 227 131 179 q 153 306 146 275 l 160 336 q 206 544 188 457 q 235 703 224 631 q 253 854 247 776 l 258 879 l 224 910 q 202 928 211 921 q 186 942 193 936 q 214 994 192 979 q 272 1018 236 1010 q 353 1028 307 1028 q 438 1019 394 1028 q 656 968 561 997 q 832 886 750 939 q 884 848 860 868 q 928 804 908 828 q 985 654 985 731 q 942 519 985 588 q 604 110 778 261 q 493 25 551 63 q 371 -43 435 -12 q 272 -67 321 -67 m 279 58 l 297 65 q 653 349 504 167 q 753 493 713 425 q 815 636 794 561 q 821 679 821 653 q 799 757 821 722 q 740 810 778 792 q 597 863 671 842 q 442 896 522 885 q 397 893 428 897 l 367 889 q 415 840 400 861 q 431 796 431 819 q 430 788 431 793 q 428 776 429 783 q 406 687 418 736 q 379 578 394 638 l 329 378 q 298 247 313 310 q 271 125 283 183 q 266 91 267 110 q 265 64 265 72 q 279 58 276 58 m 340 -279 q 309 -272 328 -285 q 281 -234 290 -260 q 281 -178 271 -208 q 333 -118 290 -147 q 381 -104 358 -103 q 432 -125 404 -106 q 460 -174 457 -143 q 431 -222 463 -203 q 416 -232 425 -225 q 393 -249 407 -239 q 366 -266 379 -258 q 340 -279 353 -274 z "},"Ḏ":{"ha":1054,"x_min":111,"x_max":985,"o":"m 272 -67 q 154 -32 210 -67 q 122 -3 133 -18 q 111 31 111 11 l 113 43 l 122 115 q 138 227 131 179 q 153 306 146 275 l 160 336 q 206 544 188 457 q 235 703 224 631 q 253 854 247 776 l 258 879 l 224 910 q 202 928 211 921 q 186 942 193 936 q 214 994 192 979 q 272 1018 236 1010 q 353 1028 307 1028 q 438 1019 394 1028 q 656 968 561 997 q 832 886 750 939 q 884 848 860 868 q 928 804 908 828 q 985 654 985 731 q 942 519 985 588 q 604 110 778 261 q 493 25 551 63 q 371 -43 435 -12 q 272 -67 321 -67 m 279 58 l 297 65 q 653 349 504 167 q 753 493 713 425 q 815 636 794 561 q 821 679 821 653 q 799 757 821 722 q 740 810 778 792 q 597 863 671 842 q 442 896 522 885 q 397 893 428 897 l 367 889 q 415 840 400 861 q 431 796 431 819 q 430 788 431 793 q 428 776 429 783 q 406 687 418 736 q 379 578 394 638 l 329 378 q 298 247 313 310 q 271 125 283 183 q 266 91 267 110 q 265 64 265 72 q 279 58 276 58 m 258 -228 q 165 -189 201 -233 q 360 -104 122 -115 q 394 -110 374 -104 q 424 -114 415 -115 l 474 -119 q 537 -125 510 -124 q 581 -125 564 -126 q 619 -132 606 -125 q 651 -149 633 -139 q 665 -161 661 -158 q 643 -211 690 -193 l 617 -219 q 563 -224 590 -222 q 503 -225 535 -226 q 428 -225 440 -222 q 328 -224 371 -222 q 258 -228 286 -225 z "},"E":{"ha":1135,"x_min":69,"x_max":1121,"o":"m 663 -35 q 435 6 539 -35 q 206 246 256 74 q 199 297 199 271 l 199 329 q 153 399 199 376 q 95 439 115 419 q 69 497 75 458 l 226 507 l 297 711 q 301 723 299 717 q 304 736 303 729 q 311 758 306 747 q 324 804 324 786 q 297 853 324 832 q 282 879 289 858 q 269 908 276 899 l 300 918 q 332 928 324 925 q 340 932 335 929 q 356 939 346 935 q 376 956 375 946 q 401 988 386 979 q 436 996 415 996 q 453 995 443 996 q 478 993 464 994 q 510 981 497 993 q 581 936 543 947 q 672 925 619 925 l 849 925 q 952 924 908 925 q 1025 922 996 924 q 1060 914 1040 921 q 1103 896 1079 907 q 1116 880 1111 892 q 1121 857 1121 868 q 1111 844 1121 851 q 1093 833 1101 836 q 1010 816 1046 824 q 950 804 974 808 q 856 794 913 799 q 725 786 800 789 q 680 783 707 785 q 614 779 653 782 q 594 783 610 779 q 582 785 588 785 q 574 786 576 786 q 508 743 522 786 l 438 522 l 436 517 q 438 505 436 511 q 440 493 439 499 q 454 492 446 492 q 474 492 463 492 q 674 533 569 492 q 722 544 704 544 q 786 508 763 544 q 799 475 799 490 q 781 440 799 458 q 663 382 724 392 q 593 372 635 378 q 496 358 551 365 l 399 344 q 376 250 376 299 q 423 137 376 183 q 550 93 469 90 q 643 97 590 94 q 760 104 696 100 l 781 106 q 838 90 815 106 q 882 33 861 74 q 839 -12 867 0 q 767 -29 811 -24 q 718 -33 744 -32 q 663 -35 692 -35 z "},"É":{"ha":907,"x_min":83,"x_max":893,"o":"m 515 910 q 424 992 424 956 q 429 1019 424 1008 q 464 1101 440 1044 l 503 1200 q 531 1253 517 1233 q 568 1274 544 1274 q 590 1268 575 1274 q 647 1204 597 1250 q 659 1194 653 1200 q 672 1182 665 1189 q 639 1082 675 1147 q 590 1007 621 1050 q 515 910 560 964 m 422 -37 q 249 6 329 -37 q 89 303 168 49 q 85 358 86 329 q 83 417 83 386 l 85 547 q 85 569 85 556 q 88 601 86 583 l 89 653 q 88 670 89 660 q 86 694 88 681 q 85 704 85 699 q 85 715 85 710 q 98 769 85 747 q 127 801 111 790 q 151 813 143 813 l 178 813 q 190 811 183 811 q 207 811 197 811 q 249 813 225 811 q 285 817 274 815 q 356 825 333 825 l 547 826 q 695 826 625 828 q 826 821 765 824 q 848 812 838 821 q 872 786 858 803 l 893 763 q 881 753 888 760 q 868 740 875 747 q 839 722 850 724 q 797 717 822 719 q 738 711 772 714 q 672 701 701 704 q 624 700 643 699 q 433 694 513 707 q 283 658 354 681 q 254 599 253 649 q 246 535 256 547 l 561 571 q 574 572 568 572 q 585 572 581 572 q 648 559 619 572 q 682 528 676 546 q 643 464 657 469 q 544 434 594 450 q 442 401 494 418 l 272 347 q 250 328 261 343 q 239 304 239 314 q 243 252 239 282 q 257 186 247 222 q 364 89 274 89 q 381 90 374 89 q 393 92 388 90 q 517 120 446 103 q 681 161 589 138 l 838 201 q 882 146 882 176 q 804 63 882 107 q 460 -36 661 -18 q 444 -37 454 -37 q 422 -37 435 -37 z "},"Ĕ":{"ha":893,"x_min":69,"x_max":879,"o":"m 474 932 q 378 944 418 925 q 304 986 338 964 l 221 1069 q 217 1094 211 1075 q 238 1128 224 1114 q 267 1128 253 1142 q 301 1098 285 1113 q 332 1068 317 1083 q 407 1039 361 1039 q 433 1040 428 1039 q 503 1081 481 1060 q 542 1129 526 1103 q 559 1156 551 1149 q 581 1163 567 1163 q 631 1145 617 1163 q 646 1093 646 1128 q 614 1014 646 1050 q 544 953 578 971 q 474 932 510 935 m 408 -37 q 235 6 315 -37 q 75 303 154 49 q 71 358 72 329 q 69 417 69 386 l 71 547 q 72 569 71 556 q 74 601 72 583 l 75 653 q 74 670 75 660 q 72 694 74 681 q 71 704 71 699 q 71 715 71 710 q 84 769 71 747 q 113 801 97 790 q 138 813 129 813 l 164 813 q 176 811 169 811 q 193 811 183 811 q 235 813 211 811 q 271 817 260 815 q 342 825 319 825 l 533 826 q 681 826 611 828 q 813 821 751 824 q 834 812 824 821 q 858 786 844 803 l 879 763 q 867 753 874 760 q 854 740 861 747 q 825 722 836 724 q 783 717 808 719 q 724 711 758 714 q 658 701 688 704 q 610 700 629 699 q 419 694 499 707 q 269 658 340 681 q 240 599 239 649 q 232 535 242 547 l 547 571 q 560 572 554 572 q 571 572 567 572 q 634 559 606 572 q 668 528 663 546 q 629 464 643 469 q 531 434 581 450 q 428 401 481 418 l 258 347 q 236 328 247 343 q 225 304 225 314 q 229 252 225 282 q 243 186 233 222 q 350 89 260 89 q 367 90 360 89 q 379 92 374 90 q 503 120 432 103 q 667 161 575 138 l 824 201 q 868 146 868 176 q 790 63 868 107 q 446 -36 647 -18 q 431 -37 440 -37 q 408 -37 421 -37 z "},"Ě":{"ha":861,"x_min":83,"x_max":847,"o":"m 415 915 q 317 988 354 915 q 290 1047 301 1019 q 269 1096 278 1074 q 267 1106 268 1101 q 267 1111 267 1110 q 282 1140 267 1129 q 322 1151 297 1151 q 378 1128 350 1151 l 406 1046 q 417 1033 408 1042 q 438 1013 425 1025 q 494 1068 471 1044 q 532 1106 518 1092 q 574 1148 551 1125 q 622 1199 596 1171 q 679 1183 651 1199 q 701 1147 701 1171 q 685 1113 701 1128 q 584 1024 632 1065 q 492 946 536 982 q 415 915 457 915 m 422 -21 q 249 22 329 -21 q 89 319 168 65 q 85 374 86 346 q 83 433 83 403 l 85 564 q 85 586 85 572 q 88 618 86 600 l 89 669 q 88 687 89 676 q 86 711 88 697 q 85 721 85 715 q 85 732 85 726 q 98 785 85 764 q 127 818 111 807 q 151 829 143 829 l 178 829 q 190 828 183 828 q 207 828 197 828 q 249 830 225 828 q 285 833 274 832 q 356 842 333 842 l 547 843 q 661 842 603 844 q 781 838 719 840 q 803 836 792 838 q 826 815 815 835 l 847 779 q 835 770 842 776 q 822 757 829 764 q 793 739 804 740 q 737 734 776 736 q 636 729 697 732 q 283 675 513 722 q 254 615 253 665 q 246 551 256 564 l 561 588 q 574 589 568 589 q 585 589 581 589 q 648 576 619 589 q 682 544 676 563 q 643 481 657 486 q 544 451 594 467 q 442 418 494 435 l 272 364 q 250 345 261 360 q 239 321 239 331 q 243 269 239 299 q 257 203 247 239 q 364 106 274 106 q 381 106 374 106 q 393 108 388 107 q 681 178 496 110 l 792 218 q 836 163 836 193 q 758 79 836 124 q 460 -19 615 -1 q 444 -21 454 -21 q 422 -21 435 -21 z "},"Ê":{"ha":942,"x_min":83,"x_max":928,"o":"m 568 928 q 494 960 524 931 q 465 1000 485 978 q 418 1049 446 1022 l 393 1008 l 371 983 q 314 965 349 961 q 291 976 300 967 q 282 996 282 985 q 283 1001 282 999 q 285 1008 283 1004 q 322 1096 301 1054 q 401 1153 350 1153 q 463 1129 435 1153 q 522 1077 497 1099 q 565 1040 547 1056 l 617 996 q 631 968 631 983 q 613 939 631 949 q 568 928 585 926 m 443 -37 q 260 8 346 -37 q 89 321 175 53 q 85 378 86 349 q 83 442 83 408 l 85 579 q 85 603 85 589 q 88 636 86 617 l 89 690 q 88 708 89 697 q 86 735 88 719 q 85 757 85 740 q 99 813 85 790 q 130 848 113 836 q 157 860 147 860 q 173 860 167 860 q 185 858 179 860 q 198 857 190 857 q 215 857 206 857 q 260 860 235 857 q 297 864 286 863 q 372 872 347 872 l 575 874 q 672 872 618 874 q 789 867 725 869 q 836 829 821 849 q 808 778 849 797 q 656 740 767 757 q 451 706 538 722 q 289 669 364 690 q 271 613 278 667 q 262 564 267 585 q 251 529 257 543 q 589 596 246 513 q 603 598 597 597 q 614 599 610 599 q 681 594 650 599 q 717 558 711 590 q 705 520 719 543 q 675 492 690 497 q 572 457 625 474 q 464 425 519 440 l 263 368 q 250 349 250 364 q 246 199 249 335 q 293 126 256 149 q 363 104 331 104 q 396 106 374 104 q 453 114 418 108 q 715 172 522 125 l 881 214 q 928 156 928 188 q 846 68 928 114 q 482 -36 696 -15 q 467 -37 476 -37 q 443 -37 457 -37 z "},"Ế":{"ha":1135,"x_min":69,"x_max":1121,"o":"m 294 1186 q 276 1197 283 1190 q 290 1227 286 1222 q 317 1242 294 1232 q 458 1344 406 1283 q 506 1372 474 1361 q 529 1372 517 1376 q 542 1365 536 1371 q 551 1351 549 1358 q 549 1303 558 1326 q 519 1271 539 1282 q 433 1228 475 1247 q 351 1193 392 1208 q 294 1186 322 1179 m 625 956 q 596 967 607 956 q 525 1030 553 1003 q 482 1074 497 1057 q 473 1085 476 1081 q 468 1090 469 1089 q 354 997 464 1093 q 335 983 344 990 q 317 969 326 976 q 292 985 297 969 q 288 1014 288 1001 q 293 1029 288 1024 q 325 1073 308 1051 q 360 1115 342 1094 q 397 1157 375 1136 q 426 1186 418 1176 q 464 1201 440 1201 q 499 1186 483 1201 q 539 1139 506 1181 q 561 1111 551 1124 q 578 1090 571 1099 q 610 1054 593 1072 q 644 1017 626 1036 q 656 1007 646 1014 q 663 994 663 1000 q 625 956 653 956 m 663 -35 q 435 6 539 -35 q 206 246 256 74 q 199 297 199 271 l 199 329 q 153 399 199 376 q 95 439 115 419 q 69 497 75 458 l 226 507 l 297 711 q 301 723 299 717 q 304 736 303 729 q 311 758 306 747 q 324 804 324 786 q 297 853 324 832 q 282 879 289 858 q 269 908 276 899 l 300 918 q 332 928 324 925 q 340 932 335 929 q 356 939 346 935 q 376 956 375 946 q 401 988 386 979 q 436 996 415 996 q 453 995 443 996 q 478 993 464 994 q 510 981 497 993 q 581 936 543 947 q 672 925 619 925 l 849 925 q 952 924 908 925 q 1025 922 996 924 q 1060 914 1040 921 q 1103 896 1079 907 q 1116 880 1111 892 q 1121 857 1121 868 q 1111 844 1121 851 q 1093 833 1101 836 q 1010 816 1046 824 q 950 804 974 808 q 856 794 913 799 q 725 786 800 789 q 680 783 707 785 q 614 779 653 782 q 594 783 610 779 q 582 785 588 785 q 574 786 576 786 q 508 743 522 786 l 438 522 l 436 517 q 438 505 436 511 q 440 493 439 499 q 454 492 446 492 q 474 492 463 492 q 674 533 569 492 q 722 544 704 544 q 786 508 763 544 q 799 475 799 490 q 781 440 799 458 q 663 382 724 392 q 593 372 635 378 q 496 358 551 365 l 399 344 q 376 250 376 299 q 423 137 376 183 q 550 93 469 90 q 643 97 590 94 q 760 104 696 100 l 781 106 q 838 90 815 106 q 882 33 861 74 q 839 -12 867 0 q 767 -29 811 -24 q 718 -33 744 -32 q 663 -35 692 -35 z "},"Ệ":{"ha":1163,"x_min":83,"x_max":1135,"o":"m 786 956 q 756 968 765 956 q 678 1049 713 1013 q 621 1117 644 1086 q 612 1131 615 1125 q 607 1138 608 1136 q 474 1008 606 1140 q 435 976 456 990 q 409 995 414 976 q 404 1028 404 1014 q 410 1046 404 1039 q 493 1167 443 1099 q 511 1190 501 1178 q 532 1215 521 1203 q 563 1250 554 1238 q 601 1267 578 1267 q 638 1250 624 1267 q 652 1231 642 1244 q 679 1193 663 1217 q 703 1160 693 1175 q 719 1136 713 1146 q 765 1077 743 1104 q 807 1026 788 1050 q 818 1015 810 1022 q 825 1000 825 1006 q 786 956 814 956 m 676 -39 q 449 1 553 -39 q 219 242 269 69 q 213 293 213 267 l 213 325 q 167 394 213 372 q 109 435 129 415 q 83 493 89 454 l 240 503 l 311 707 q 315 719 313 713 q 318 732 317 725 q 325 754 319 743 q 338 800 338 782 q 311 849 338 828 q 296 875 303 854 q 283 904 290 894 l 314 914 q 346 924 338 921 q 354 928 349 925 q 369 935 360 931 q 458 945 404 950 q 572 931 511 940 q 686 921 632 921 l 863 921 q 966 920 922 921 q 1039 918 1010 919 q 1074 910 1054 917 q 1117 892 1093 903 q 1130 876 1125 888 q 1135 853 1135 864 q 1125 840 1135 847 q 1107 829 1115 832 q 1024 812 1060 819 q 964 800 988 804 q 870 790 926 794 q 739 782 814 785 q 694 779 721 781 q 628 775 667 778 q 608 779 624 775 q 596 781 601 781 q 588 782 590 782 q 522 739 536 782 l 451 518 l 450 513 q 451 501 450 507 q 454 489 453 494 q 468 488 460 488 q 488 488 476 488 q 688 529 583 488 q 736 540 718 540 q 800 504 776 540 q 813 471 813 486 q 794 436 813 454 q 676 378 738 388 q 607 367 649 374 q 510 354 565 361 l 413 340 q 390 246 390 294 q 437 133 390 179 q 564 89 483 86 q 657 93 604 90 q 774 100 710 96 l 794 101 q 852 85 829 101 q 896 29 875 69 q 853 -16 881 -4 q 781 -33 825 -28 q 732 -37 758 -36 q 676 -39 706 -39 m 469 -240 q 438 -233 457 -246 q 410 -195 419 -221 q 410 -139 400 -169 q 463 -79 419 -108 q 510 -65 488 -64 q 561 -86 533 -67 q 589 -135 586 -104 q 560 -183 592 -164 q 545 -193 554 -186 q 522 -210 536 -200 q 495 -227 508 -219 q 469 -240 482 -235 z "},"Ề":{"ha":1135,"x_min":69,"x_max":1121,"o":"m 685 1188 q 628 1194 657 1181 q 547 1231 589 1210 q 460 1276 504 1251 q 431 1308 440 1288 q 428 1358 421 1333 q 450 1381 435 1378 q 474 1381 463 1388 q 521 1353 506 1369 q 663 1244 574 1289 q 689 1230 685 1235 q 703 1199 693 1225 q 685 1188 696 1192 m 665 963 q 636 974 647 963 q 561 1046 593 1013 q 506 1106 529 1079 q 493 1124 494 1122 q 364 1010 490 1126 q 326 981 346 992 q 302 997 307 981 q 297 1026 297 1014 q 303 1043 297 1038 q 389 1139 333 1088 q 431 1178 415 1164 q 450 1199 446 1193 q 488 1214 464 1214 l 508 1214 q 521 1203 508 1214 q 550 1175 533 1192 q 581 1144 567 1158 q 601 1122 596 1129 q 646 1070 625 1094 q 685 1025 667 1046 q 696 1015 686 1022 q 703 1003 703 1008 q 665 963 692 963 m 663 -35 q 435 6 539 -35 q 206 246 256 74 q 199 297 199 271 l 199 329 q 153 399 199 376 q 95 439 115 419 q 69 497 75 458 l 226 507 l 297 711 q 301 723 299 717 q 304 736 303 729 q 311 758 306 747 q 324 804 324 786 q 297 853 324 832 q 282 879 289 858 q 269 908 276 899 l 300 918 q 332 928 324 925 q 340 932 335 929 q 356 939 346 935 q 376 956 375 946 q 401 988 386 979 q 436 996 415 996 q 453 995 443 996 q 478 993 464 994 q 510 981 497 993 q 581 936 543 947 q 672 925 619 925 l 849 925 q 952 924 908 925 q 1025 922 996 924 q 1060 914 1040 921 q 1103 896 1079 907 q 1116 880 1111 892 q 1121 857 1121 868 q 1111 844 1121 851 q 1093 833 1101 836 q 1010 816 1046 824 q 950 804 974 808 q 856 794 913 799 q 725 786 800 789 q 680 783 707 785 q 614 779 653 782 q 594 783 610 779 q 582 785 588 785 q 574 786 576 786 q 508 743 522 786 l 438 522 l 436 517 q 438 505 436 511 q 440 493 439 499 q 454 492 446 492 q 474 492 463 492 q 674 533 569 492 q 722 544 704 544 q 786 508 763 544 q 799 475 799 490 q 781 440 799 458 q 663 382 724 392 q 593 372 635 378 q 496 358 551 365 l 399 344 q 376 250 376 299 q 423 137 376 183 q 550 93 469 90 q 643 97 590 94 q 760 104 696 100 l 781 106 q 838 90 815 106 q 882 33 861 74 q 839 -12 867 0 q 767 -29 811 -24 q 718 -33 744 -32 q 663 -35 692 -35 z "},"Ể":{"ha":1135,"x_min":44,"x_max":1096,"o":"m 543 1185 q 508 1239 508 1219 q 603 1315 508 1271 q 599 1358 617 1336 q 572 1382 590 1374 q 536 1386 554 1390 l 465 1381 q 460 1397 465 1381 q 457 1433 456 1413 q 475 1464 458 1453 q 530 1474 492 1474 q 607 1460 568 1475 q 622 1453 615 1457 q 633 1446 628 1449 q 671 1389 643 1440 q 674 1308 682 1332 q 633 1231 668 1268 q 543 1185 599 1194 m 824 928 q 796 939 804 928 q 675 1072 719 1017 q 663 1092 665 1085 q 542 975 661 1094 q 507 946 525 956 q 483 963 488 946 q 479 992 479 979 q 497 1029 479 1003 q 522 1065 506 1043 q 560 1118 538 1088 q 576 1140 567 1129 q 596 1161 586 1150 q 613 1180 606 1172 q 622 1193 619 1188 q 638 1204 628 1200 q 657 1208 647 1208 q 694 1196 678 1208 q 740 1142 710 1183 q 761 1111 751 1124 q 776 1090 771 1099 q 813 1041 799 1061 q 833 1010 826 1021 q 851 983 843 993 q 858 967 858 974 q 824 928 849 928 m 638 -87 q 410 -47 514 -87 q 181 193 231 21 q 174 244 174 218 l 174 276 q 128 346 174 324 q 70 386 90 367 q 44 444 50 406 l 201 454 l 272 658 q 276 670 274 664 q 279 683 278 676 q 286 706 281 694 q 299 751 299 733 q 272 800 299 779 q 257 826 264 806 q 244 856 251 846 l 275 865 q 307 875 299 872 q 315 879 310 876 q 331 886 321 882 q 351 903 350 893 q 376 935 361 926 q 411 943 390 943 q 428 942 418 943 q 453 940 439 942 q 485 928 472 940 q 556 883 518 894 q 647 872 594 872 l 824 872 q 927 872 883 872 q 1000 869 971 871 q 1035 861 1015 868 q 1078 843 1054 854 q 1091 827 1086 839 q 1096 804 1096 815 q 1086 791 1096 799 q 1068 781 1076 783 q 985 763 1021 771 q 925 751 949 756 q 831 741 888 746 q 700 733 775 736 q 655 731 682 732 q 589 726 628 729 q 569 731 585 726 q 557 733 563 732 q 549 733 551 733 q 483 690 497 733 l 413 469 l 411 464 q 413 452 411 458 q 415 440 414 446 q 429 439 421 439 q 449 439 438 439 q 649 481 544 439 q 697 492 679 492 q 761 456 738 492 q 774 422 774 438 q 756 388 774 406 q 638 329 699 339 q 568 319 610 325 q 471 306 526 313 l 374 292 q 351 197 351 246 q 398 84 351 131 q 525 40 444 38 q 618 44 565 42 q 735 51 671 47 l 756 53 q 813 37 790 53 q 857 -19 836 21 q 814 -65 842 -53 q 742 -82 786 -76 q 693 -86 719 -85 q 638 -87 667 -87 z "},"Ễ":{"ha":1135,"x_min":44,"x_max":1096,"o":"m 842 1236 q 736 1272 797 1232 l 708 1290 q 670 1313 686 1304 q 643 1328 654 1322 q 619 1335 629 1335 q 596 1324 604 1335 q 583 1297 588 1314 q 561 1275 578 1275 q 544 1279 553 1275 q 529 1283 544 1279 q 499 1297 514 1286 q 483 1326 485 1307 q 492 1357 482 1344 q 532 1393 501 1369 q 578 1411 556 1411 q 593 1410 583 1411 q 617 1408 603 1410 q 678 1367 646 1394 q 729 1333 706 1344 q 789 1322 753 1322 l 810 1322 q 865 1354 847 1338 q 894 1393 883 1371 q 909 1413 903 1408 q 925 1418 915 1418 q 966 1405 956 1418 q 976 1365 976 1392 q 951 1301 976 1331 q 897 1253 924 1268 q 842 1236 869 1239 m 901 900 q 871 913 881 900 q 794 994 828 957 q 736 1061 760 1031 q 727 1075 731 1069 q 722 1082 724 1081 q 589 953 721 1085 q 550 921 571 935 q 524 940 529 921 q 519 972 519 958 q 539 1013 519 981 q 566 1052 549 1028 q 608 1111 583 1076 q 626 1135 617 1122 q 647 1158 636 1147 q 666 1179 658 1169 q 678 1194 674 1189 q 717 1211 693 1211 q 757 1199 739 1211 q 808 1138 776 1183 q 832 1105 822 1119 q 849 1081 842 1090 q 888 1026 872 1049 q 911 992 904 1004 q 931 963 922 974 q 940 944 940 951 q 901 900 929 900 m 638 -87 q 410 -47 514 -87 q 181 193 231 21 q 174 244 174 218 l 174 276 q 128 346 174 324 q 70 386 90 367 q 44 444 50 406 l 201 454 l 272 658 q 276 670 274 664 q 279 683 278 676 q 286 706 281 694 q 299 751 299 733 q 272 800 299 779 q 257 826 264 806 q 244 856 251 846 l 275 865 q 307 875 299 872 q 315 879 310 876 q 331 886 321 882 q 351 903 350 893 q 376 935 361 926 q 411 943 390 943 q 428 942 418 943 q 453 940 439 942 q 485 928 472 940 q 556 883 518 894 q 647 872 594 872 l 824 872 q 927 872 883 872 q 1000 869 971 871 q 1035 861 1015 868 q 1078 843 1054 854 q 1091 827 1086 839 q 1096 804 1096 815 q 1086 791 1096 799 q 1068 781 1076 783 q 985 763 1021 771 q 925 751 949 756 q 831 741 888 746 q 700 733 775 736 q 655 731 682 732 q 589 726 628 729 q 569 731 585 726 q 557 733 563 732 q 549 733 551 733 q 483 690 497 733 l 413 469 l 411 464 q 413 452 411 458 q 415 440 414 446 q 429 439 421 439 q 449 439 438 439 q 649 481 544 439 q 697 492 679 492 q 761 456 738 492 q 774 422 774 438 q 756 388 774 406 q 638 329 699 339 q 568 319 610 325 q 471 306 526 313 l 374 292 q 351 197 351 246 q 398 84 351 131 q 525 40 444 38 q 618 44 565 42 q 735 51 671 47 l 756 53 q 813 37 790 53 q 857 -19 836 21 q 814 -65 842 -53 q 742 -82 786 -76 q 693 -86 719 -85 q 638 -87 667 -87 z "},"Ë":{"ha":872,"x_min":83,"x_max":858,"o":"m 292 1060 q 231 1072 267 1060 q 208 1094 218 1078 q 199 1129 199 1111 q 203 1151 199 1142 q 221 1169 208 1165 q 251 1174 238 1174 q 319 1157 281 1174 q 369 1094 356 1144 q 292 1060 335 1060 m 642 1015 q 579 1050 610 1013 q 568 1083 568 1065 q 576 1114 568 1101 q 614 1132 590 1132 q 628 1131 625 1132 q 699 1107 674 1122 q 733 1049 725 1092 q 700 1026 718 1032 q 642 1015 682 1019 m 321 -33 q 244 -4 281 -33 q 199 69 208 25 q 169 217 183 138 q 142 390 156 297 q 130 494 136 431 q 117 642 124 557 l 106 767 q 103 792 104 782 q 100 807 101 803 q 83 883 83 868 q 103 919 83 908 q 179 936 121 929 q 422 949 269 947 l 507 950 q 541 950 522 950 q 579 949 560 950 q 613 947 599 947 q 635 947 628 947 q 681 946 661 946 q 713 944 700 946 q 796 869 796 940 q 722 807 796 814 q 622 798 665 801 q 551 792 579 794 q 550 796 551 794 l 482 792 q 455 791 471 792 q 418 789 439 790 l 328 785 q 288 774 301 782 q 274 742 274 765 l 274 726 q 278 692 278 713 q 276 674 276 682 q 276 663 276 667 q 291 626 276 636 q 335 618 306 617 l 536 618 q 600 618 564 615 q 708 628 633 631 q 777 623 756 626 q 810 605 799 619 q 839 551 822 590 q 803 511 819 515 q 711 494 764 501 q 669 490 685 492 q 649 488 654 489 l 596 481 l 493 469 q 342 453 389 460 q 322 440 332 451 q 310 417 313 428 q 307 394 307 408 q 308 381 307 389 q 310 363 308 374 q 310 351 310 357 q 311 339 310 346 q 313 326 313 332 q 313 318 313 321 q 323 242 317 274 q 346 199 329 211 q 390 189 357 189 q 475 194 411 185 l 513 200 q 549 206 528 203 q 596 211 569 208 q 654 228 607 214 q 701 238 678 235 q 747 239 725 240 q 806 215 775 238 q 851 168 836 193 q 858 146 858 151 q 839 117 858 128 q 794 100 819 106 q 681 80 738 89 q 567 65 624 71 q 456 42 501 58 q 371 -12 411 26 q 321 -33 350 -33 z "},"Ė":{"ha":907,"x_min":83,"x_max":893,"o":"m 344 1039 l 383 1138 q 528 1142 397 1171 q 540 1132 533 1138 q 553 1119 546 1126 q 547 1072 553 1101 q 519 1019 540 1042 q 456 997 497 996 q 344 1039 414 997 m 422 -37 q 249 6 329 -37 q 89 303 168 49 q 85 358 86 329 q 83 417 83 386 l 85 547 q 85 569 85 556 q 88 601 86 583 l 89 653 q 88 670 89 660 q 86 694 88 681 q 85 704 85 699 q 85 715 85 710 q 98 769 85 747 q 127 801 111 790 q 151 813 143 813 l 178 813 q 190 811 183 811 q 207 811 197 811 q 249 813 225 811 q 285 817 274 815 q 356 825 333 825 l 547 826 q 695 826 625 828 q 826 821 765 824 q 848 812 838 821 q 872 786 858 803 l 893 763 q 881 753 888 760 q 868 740 875 747 q 839 722 850 724 q 797 717 822 719 q 738 711 772 714 q 672 701 701 704 q 624 700 643 699 q 433 694 513 707 q 283 658 354 681 q 254 599 253 649 q 246 535 256 547 l 561 571 q 574 572 568 572 q 585 572 581 572 q 648 559 619 572 q 682 528 676 546 q 643 464 657 469 q 544 434 594 450 q 442 401 494 418 l 272 347 q 250 328 261 343 q 239 304 239 314 q 243 252 239 282 q 257 186 247 222 q 364 89 274 89 q 381 90 374 89 q 393 92 388 90 q 517 120 446 103 q 681 161 589 138 l 838 201 q 882 146 882 176 q 804 63 882 107 q 460 -36 661 -18 q 444 -37 454 -37 q 422 -37 435 -37 z "},"Ẹ":{"ha":1163,"x_min":83,"x_max":1135,"o":"m 676 -35 q 449 6 553 -35 q 219 246 269 74 q 213 297 213 271 l 213 329 q 167 399 213 376 q 109 439 129 419 q 83 497 89 458 l 240 507 l 311 711 q 315 723 313 717 q 318 736 317 729 q 325 758 319 747 q 338 804 338 786 q 311 853 338 832 q 296 879 303 858 q 283 908 290 899 l 314 918 q 346 928 338 925 q 354 932 349 929 q 369 939 360 935 q 390 956 389 946 q 415 988 400 979 q 450 996 429 996 q 467 995 457 996 q 492 993 478 994 q 524 981 511 993 q 595 936 557 947 q 686 925 633 925 l 863 925 q 966 924 922 925 q 1039 922 1010 924 q 1074 914 1054 921 q 1117 896 1093 907 q 1130 880 1125 892 q 1135 857 1135 868 q 1125 844 1135 851 q 1107 833 1115 836 q 1024 816 1060 824 q 964 804 988 808 q 870 794 926 799 q 739 786 814 789 q 694 783 721 785 q 628 779 667 782 q 608 783 624 779 q 596 785 601 785 q 588 786 590 786 q 522 743 536 786 l 451 522 l 450 517 q 451 505 450 511 q 454 493 453 499 q 468 492 460 492 q 488 492 476 492 q 688 533 583 492 q 736 544 718 544 q 800 508 776 544 q 813 475 813 490 q 794 440 813 458 q 676 382 738 392 q 607 372 649 378 q 510 358 565 365 l 413 344 q 390 250 390 299 q 437 137 390 183 q 564 93 483 90 q 657 97 604 94 q 774 104 710 100 l 794 106 q 852 90 829 106 q 896 33 875 74 q 853 -12 881 0 q 781 -29 825 -24 q 732 -33 758 -32 q 676 -35 706 -35 m 469 -275 q 438 -268 457 -281 q 410 -230 419 -256 q 410 -174 400 -204 q 463 -114 419 -143 q 510 -100 488 -99 q 561 -121 533 -101 q 589 -169 586 -139 q 560 -218 592 -199 q 545 -228 554 -221 q 522 -244 536 -235 q 495 -262 508 -254 q 469 -275 482 -269 z "},"È":{"ha":1006,"x_min":83,"x_max":993,"o":"m 604 1060 q 517 1082 582 1060 q 440 1104 482 1093 q 350 1125 399 1115 q 283 1153 307 1133 q 260 1197 260 1172 q 269 1230 260 1208 q 289 1265 279 1251 q 464 1250 299 1279 q 658 1199 586 1228 q 731 1150 731 1171 q 713 1126 731 1136 q 681 1096 694 1115 q 604 1060 651 1060 m 260 769 q 206 777 226 769 q 167 811 186 785 q 161 843 161 817 q 176 886 161 867 q 270 955 214 936 q 397 974 326 974 q 545 965 467 974 q 708 939 624 957 q 774 914 744 932 q 814 872 804 896 l 804 839 l 722 847 l 536 843 q 329 786 440 843 q 260 769 296 769 m 504 -37 q 318 7 408 -43 q 103 329 226 56 q 93 397 97 358 q 83 485 89 436 q 85 578 85 546 q 85 615 85 611 q 85 624 85 619 q 86 632 85 628 q 119 753 110 753 q 197 730 171 749 q 240 688 224 711 q 278 647 257 664 q 339 629 299 629 q 444 641 392 636 q 550 649 497 646 q 693 633 668 656 q 722 610 707 622 q 751 586 736 597 q 747 565 763 579 q 708 537 732 550 q 667 521 683 524 q 344 488 528 499 q 258 417 258 483 q 261 391 258 410 q 269 340 264 372 q 340 146 279 278 q 381 121 350 136 q 482 122 406 107 q 772 210 578 142 l 885 250 l 904 258 q 933 265 921 265 q 975 249 961 265 q 991 209 989 232 q 983 165 993 186 q 953 136 972 144 q 902 113 931 126 q 842 81 874 99 q 715 19 769 44 q 610 -21 660 -7 q 504 -37 560 -35 z "},"Ẻ":{"ha":1163,"x_min":83,"x_max":1135,"o":"m 729 949 q 694 1003 694 983 q 789 1079 694 1035 q 785 1122 803 1100 q 758 1146 776 1138 q 722 1150 740 1154 l 651 1144 q 647 1160 651 1144 q 643 1197 642 1176 q 661 1228 644 1217 q 716 1238 678 1238 q 793 1224 754 1239 q 808 1217 801 1221 q 819 1210 814 1213 q 857 1153 829 1204 q 860 1072 868 1096 q 819 995 854 1032 q 729 949 785 958 m 676 -35 q 449 6 553 -35 q 219 246 269 74 q 213 297 213 271 l 213 329 q 167 399 213 376 q 109 439 129 419 q 83 497 89 458 l 240 507 l 311 711 q 315 723 313 717 q 318 736 317 729 q 325 758 319 747 q 338 804 338 786 q 311 853 338 832 q 296 879 303 858 q 283 908 290 899 l 314 918 q 346 928 338 925 q 354 932 349 929 q 369 939 360 935 q 390 956 389 946 q 415 988 400 979 q 450 996 429 996 q 467 995 457 996 q 492 993 478 994 q 524 981 511 993 q 595 936 557 947 q 686 925 633 925 l 863 925 q 966 924 922 925 q 1039 922 1010 924 q 1074 914 1054 921 q 1117 896 1093 907 q 1130 880 1125 892 q 1135 857 1135 868 q 1125 844 1135 851 q 1107 833 1115 836 q 1024 816 1060 824 q 964 804 988 808 q 870 794 926 799 q 739 786 814 789 q 694 783 721 785 q 628 779 667 782 q 608 783 624 779 q 596 785 601 785 q 588 786 590 786 q 522 743 536 786 l 451 522 l 450 517 q 451 505 450 511 q 454 493 453 499 q 468 492 460 492 q 488 492 476 492 q 688 533 583 492 q 736 544 718 544 q 800 508 776 544 q 813 475 813 490 q 794 440 813 458 q 676 382 738 392 q 607 372 649 378 q 510 358 565 365 l 413 344 q 390 250 390 299 q 437 137 390 183 q 564 93 483 90 q 657 97 604 94 q 774 104 710 100 l 794 106 q 852 90 829 106 q 896 33 875 74 q 853 -12 881 0 q 781 -29 825 -24 q 732 -33 758 -32 q 676 -35 706 -35 z "},"Ē":{"ha":1033,"x_min":83,"x_max":1019,"o":"m 383 1007 q 349 1019 364 1008 q 339 1031 349 1019 q 310 1064 329 1042 q 326 1081 317 1069 q 342 1099 336 1092 q 369 1118 357 1117 q 381 1119 374 1118 q 400 1121 389 1119 q 433 1122 408 1122 q 501 1118 458 1121 q 839 1101 721 1104 q 881 1094 856 1101 q 921 1081 907 1086 q 908 1056 911 1071 q 897 1038 907 1040 l 817 1029 q 653 1013 760 1022 q 383 1007 547 1004 m 644 -35 q 429 3 525 -35 q 213 231 261 69 q 208 253 210 242 q 206 279 206 265 l 206 310 q 163 375 206 354 q 108 413 126 394 q 83 468 89 432 l 232 478 l 299 671 q 302 682 300 676 q 306 694 304 688 q 313 715 307 708 q 324 760 324 744 q 299 806 324 788 q 285 829 290 811 q 272 858 279 849 l 301 867 q 319 872 313 869 q 332 876 326 875 q 340 881 335 878 q 354 886 346 883 q 374 903 372 893 q 407 918 383 925 q 654 874 432 908 l 821 874 q 888 873 857 874 q 946 871 919 872 q 1001 847 951 871 q 1015 831 1010 843 q 1019 808 1019 819 q 1010 795 1019 803 q 992 785 1000 788 q 826 756 899 767 q 704 742 754 744 l 599 736 q 592 737 596 736 q 581 739 588 738 q 569 741 574 740 q 561 742 564 742 q 499 701 514 742 q 464 597 481 649 q 432 492 447 544 l 431 488 q 432 476 431 482 q 435 465 433 469 q 448 464 440 464 q 465 464 456 464 q 656 503 560 464 q 701 514 685 514 q 761 479 739 514 q 774 447 774 461 q 757 415 774 432 q 644 360 706 371 q 579 350 618 356 q 488 338 540 344 l 394 324 q 374 235 374 278 q 418 128 374 172 q 538 86 463 83 q 626 90 576 88 q 736 97 676 93 l 757 99 q 810 83 789 99 q 853 29 832 68 q 811 -12 838 -1 q 743 -29 785 -24 q 697 -33 721 -32 q 644 -35 672 -35 z "},"Ę":{"ha":1149,"x_min":83,"x_max":1135,"o":"m 676 -35 q 449 6 553 -35 q 219 246 269 74 q 213 297 213 271 l 213 329 q 167 399 213 376 q 109 439 129 419 q 83 497 89 458 l 240 507 l 311 711 q 315 723 313 717 q 318 736 317 729 q 325 758 319 747 q 338 804 338 786 q 311 853 338 832 q 296 879 303 858 q 283 908 290 899 l 314 918 q 346 928 338 925 q 354 932 349 929 q 369 939 360 935 q 390 956 389 946 q 415 988 400 979 q 450 996 429 996 q 467 995 457 996 q 492 993 478 994 q 524 981 511 993 q 595 936 557 947 q 686 925 633 925 l 863 925 q 966 924 922 925 q 1039 922 1010 924 q 1074 914 1054 921 q 1117 896 1093 907 q 1130 880 1125 892 q 1135 857 1135 868 q 1125 844 1135 851 q 1107 833 1115 836 q 1024 816 1060 824 q 964 804 988 808 q 870 794 926 799 q 739 786 814 789 q 694 783 721 785 q 628 779 667 782 q 608 783 624 779 q 596 785 601 785 q 588 786 590 786 q 522 743 536 786 l 451 522 l 450 517 q 451 505 450 511 q 454 493 453 499 q 468 492 460 492 q 488 492 476 492 q 688 533 583 492 q 736 544 718 544 q 800 508 776 544 q 813 475 813 490 q 794 440 813 458 q 676 382 738 392 q 607 372 649 378 q 510 358 565 365 l 413 344 q 390 250 390 299 q 437 137 390 183 q 564 93 483 90 q 657 97 604 94 q 774 104 710 100 l 794 106 q 852 90 829 106 q 896 33 875 74 q 849 -14 881 0 q 835 -28 843 -22 q 817 -40 828 -35 q 800 -51 807 -46 q 789 -62 793 -57 q 746 -136 764 -97 q 738 -178 738 -153 q 808 -246 738 -235 q 831 -247 814 -247 q 850 -249 846 -247 q 883 -256 863 -249 q 904 -287 904 -265 q 893 -311 904 -300 l 882 -319 q 864 -329 875 -326 q 808 -337 831 -335 q 774 -339 785 -340 q 672 -292 708 -332 q 635 -192 635 -253 l 636 -171 q 654 -89 639 -131 q 688 -35 672 -58 q 676 -35 682 -35 z "},"Ẽ":{"ha":1163,"x_min":83,"x_max":1135,"o":"m 743 988 q 628 1026 696 982 q 619 1032 626 1028 q 597 1046 611 1036 q 525 1088 549 1078 q 500 1094 508 1094 q 474 1083 483 1094 q 460 1054 464 1072 q 436 1029 454 1029 q 417 1035 426 1029 q 400 1039 417 1035 q 367 1054 383 1043 q 350 1086 351 1065 q 360 1119 349 1106 q 404 1158 371 1133 q 454 1179 429 1179 q 496 1175 467 1179 q 529 1158 514 1168 q 564 1131 544 1147 q 620 1093 594 1106 q 685 1081 646 1081 q 708 1082 704 1081 q 769 1117 749 1099 q 801 1160 789 1135 q 817 1181 810 1175 q 835 1186 824 1186 q 880 1172 868 1186 q 892 1128 892 1157 q 864 1058 892 1090 q 803 1006 833 1022 q 743 988 774 990 m 676 -35 q 449 6 553 -35 q 219 246 269 74 q 213 297 213 271 l 213 329 q 167 399 213 376 q 109 439 129 419 q 83 497 89 458 l 240 507 l 311 711 q 315 723 313 717 q 318 736 317 729 q 325 758 319 747 q 338 804 338 786 q 311 853 338 832 q 296 879 303 858 q 283 908 290 899 l 314 918 q 346 928 338 925 q 354 932 349 929 q 369 939 360 935 q 390 956 389 946 q 415 988 400 979 q 450 996 429 996 q 467 995 457 996 q 492 993 478 994 q 524 981 511 993 q 595 936 557 947 q 686 925 633 925 l 863 925 q 966 924 922 925 q 1039 922 1010 924 q 1074 914 1054 921 q 1117 896 1093 907 q 1130 880 1125 892 q 1135 857 1135 868 q 1125 844 1135 851 q 1107 833 1115 836 q 1024 816 1060 824 q 964 804 988 808 q 870 794 926 799 q 739 786 814 789 q 694 783 721 785 q 628 779 667 782 q 608 783 624 779 q 596 785 601 785 q 588 786 590 786 q 522 743 536 786 l 451 522 l 450 517 q 451 505 450 511 q 454 493 453 499 q 468 492 460 492 q 488 492 476 492 q 688 533 583 492 q 736 544 718 544 q 800 508 776 544 q 813 475 813 490 q 794 440 813 458 q 676 382 738 392 q 607 372 649 378 q 510 358 565 365 l 413 344 q 390 250 390 299 q 437 137 390 183 q 564 93 483 90 q 657 97 604 94 q 774 104 710 100 l 794 106 q 852 90 829 106 q 896 33 875 74 q 853 -12 881 0 q 781 -29 825 -24 q 732 -33 758 -32 q 676 -35 706 -35 z "},"Ə":{"ha":935,"x_min":81,"x_max":865,"o":"m 865 471 q 858 363 863 407 q 844 287 854 319 q 815 225 835 254 q 760 161 794 196 q 674 78 726 126 q 572 30 633 42 q 454 33 511 18 q 249 149 333 65 q 100 353 165 232 q 85 426 89 401 q 94 464 81 451 q 151 486 108 476 q 221 493 176 492 q 317 495 265 494 q 419 496 369 496 q 504 498 468 496 q 551 504 540 500 q 637 538 611 521 q 666 575 663 554 q 661 623 669 596 q 643 686 653 650 q 601 758 633 726 q 526 806 568 789 q 446 819 483 824 q 413 810 440 819 q 353 788 386 800 q 293 765 319 775 q 263 754 267 756 q 188 753 222 743 q 151 807 154 763 q 172 837 150 815 q 228 882 193 858 q 303 924 264 906 q 375 944 342 942 q 617 924 521 964 q 772 797 714 885 q 857 581 829 708 q 863 526 863 554 q 865 471 864 499 m 700 357 q 688 365 693 368 q 675 372 682 361 l 318 372 q 290 355 292 364 q 296 337 289 346 q 299 318 303 328 q 360 258 329 288 q 422 210 392 228 q 479 194 453 192 q 559 207 529 197 q 609 236 589 217 q 649 285 629 256 q 700 357 669 315 z "},"Ʒ":{"ha":833,"x_min":58,"x_max":801,"o":"m 186 -47 q 149 -32 165 -36 q 118 -12 133 -28 q 119 -3 118 -8 q 125 7 119 3 q 262 27 203 4 q 369 89 321 50 q 460 174 417 128 q 493 220 475 192 q 526 281 511 249 q 544 341 540 313 q 532 388 547 369 q 491 415 519 401 q 431 435 463 428 q 372 440 399 443 q 290 420 333 435 q 207 406 246 406 q 161 406 186 406 q 113 421 136 406 q 139 454 128 436 q 165 488 150 472 q 249 571 200 528 q 352 659 299 614 q 455 749 406 704 q 539 839 504 794 q 456 842 508 843 q 341 842 403 842 q 221 849 279 842 q 122 876 163 856 q 69 936 81 896 q 87 952 58 944 q 171 966 115 960 q 298 974 226 972 q 447 974 369 976 q 595 964 524 972 q 721 940 667 956 q 801 899 775 924 q 626 722 715 815 q 446 544 536 629 q 522 519 481 525 q 593 494 563 514 q 690 385 665 447 q 706 258 715 322 q 666 139 697 194 q 593 47 635 83 q 519 9 558 32 q 439 -33 479 -14 q 186 -47 318 -108 z "},"Ǯ":{"ha":833,"x_min":58,"x_max":801,"o":"m 410 1014 q 360 1031 383 1014 q 321 1079 338 1049 q 297 1133 307 1108 q 279 1176 286 1157 q 277 1185 278 1182 q 276 1190 276 1189 q 290 1216 276 1206 q 326 1226 304 1226 q 376 1204 354 1226 l 400 1132 q 410 1120 403 1128 q 429 1101 418 1113 q 481 1150 460 1129 q 514 1185 501 1171 q 551 1222 531 1201 q 594 1268 571 1243 q 646 1254 624 1268 q 665 1222 665 1243 q 650 1192 665 1204 q 560 1111 603 1149 q 478 1042 517 1074 q 410 1014 446 1014 m 186 -47 q 149 -32 165 -36 q 118 -12 133 -28 q 119 -3 118 -8 q 125 7 119 3 q 262 27 203 4 q 369 89 321 50 q 460 174 417 128 q 493 220 475 192 q 526 281 511 249 q 544 341 540 313 q 532 388 547 369 q 491 415 519 401 q 431 435 463 428 q 372 440 399 443 q 290 420 333 435 q 207 406 246 406 q 161 406 186 406 q 113 421 136 406 q 139 454 128 436 q 165 488 150 472 q 249 571 200 528 q 352 659 299 614 q 455 749 406 704 q 539 839 504 794 q 456 842 508 843 q 341 842 403 842 q 221 849 279 842 q 122 876 163 856 q 69 936 81 896 q 87 952 58 944 q 171 966 115 960 q 298 974 226 972 q 447 974 369 976 q 595 964 524 972 q 721 940 667 956 q 801 899 775 924 q 626 722 715 815 q 446 544 536 629 q 522 519 481 525 q 593 494 563 514 q 690 385 665 447 q 706 258 715 322 q 666 139 697 194 q 593 47 635 83 q 519 9 558 32 q 439 -33 479 -14 q 186 -47 318 -108 z "},"F":{"ha":900,"x_min":83,"x_max":886,"o":"m 207 -46 q 153 -28 183 -46 q 83 79 83 14 q 85 99 83 94 q 94 183 90 147 q 100 243 99 219 q 111 345 104 283 q 129 489 118 407 q 220 717 147 618 q 413 897 293 815 q 649 1001 532 979 q 703 1007 669 1007 q 860 938 794 1007 q 886 892 886 911 q 879 869 886 886 q 829 840 861 840 q 806 844 818 840 q 799 847 803 846 q 789 850 794 849 q 779 853 783 851 q 772 856 775 854 q 718 872 750 872 q 625 857 678 885 q 564 819 599 843 q 485 760 529 794 q 441 722 461 742 q 403 681 421 703 l 369 618 q 329 533 343 568 q 309 468 315 499 q 297 397 303 438 q 325 398 307 397 q 361 399 343 399 q 385 400 379 400 l 464 417 q 499 426 483 422 q 536 433 514 429 q 597 443 558 438 q 654 449 624 447 q 694 450 685 450 q 724 450 711 450 q 744 451 736 450 q 778 443 768 451 q 818 383 818 407 q 806 360 818 367 q 767 344 793 353 l 638 317 l 368 243 l 356 239 q 349 236 353 238 q 342 233 344 235 q 297 224 313 228 q 274 203 281 221 q 261 136 267 186 l 261 81 q 260 48 261 63 q 258 24 260 33 q 207 -46 250 -46 z "},"G":{"ha":972,"x_min":69,"x_max":903,"o":"m 396 24 q 176 106 275 24 q 102 195 128 147 q 72 304 76 243 q 70 340 71 325 q 69 363 69 354 q 69 435 69 403 q 74 506 69 468 q 92 593 78 543 q 132 715 106 643 q 243 844 168 794 q 411 916 318 893 q 593 939 504 939 q 703 931 651 939 q 831 851 778 921 q 743 800 797 801 q 467 783 588 817 q 279 658 347 750 q 211 404 211 565 q 224 269 211 351 q 368 164 279 164 q 509 172 440 153 q 627 229 578 190 q 690 317 676 268 q 705 375 700 353 q 710 407 710 397 q 709 415 710 410 q 707 428 708 421 q 649 424 683 426 q 568 418 614 421 l 449 410 q 359 437 392 410 q 308 526 326 464 q 318 535 311 528 q 328 540 324 540 l 376 546 q 517 561 457 556 q 619 569 578 567 q 694 569 654 572 q 778 558 733 565 q 903 443 903 538 q 889 371 903 407 q 880 349 886 361 q 867 322 874 336 q 787 200 835 254 q 660 100 739 146 q 542 46 597 63 q 435 25 488 29 q 419 24 429 24 q 396 24 410 24 z "},"Ğ":{"ha":972,"x_min":69,"x_max":903,"o":"m 496 975 q 449 1007 485 978 q 331 1117 410 1039 q 322 1129 329 1124 q 315 1142 318 1133 q 308 1156 314 1144 q 306 1174 303 1168 q 324 1184 310 1181 q 350 1188 339 1188 q 381 1184 368 1188 q 418 1157 393 1181 q 467 1111 431 1160 l 485 1092 q 497 1103 488 1097 q 507 1114 504 1108 l 522 1132 q 541 1157 533 1146 q 553 1175 549 1168 q 568 1188 560 1186 q 576 1191 572 1189 q 586 1194 581 1193 q 594 1196 590 1196 q 599 1196 597 1196 q 619 1188 611 1196 q 628 1167 628 1179 q 628 1162 628 1165 q 626 1153 628 1158 q 603 1104 618 1131 q 590 1083 594 1090 q 583 1072 585 1075 q 544 1000 553 1026 q 496 975 535 974 m 396 24 q 176 106 275 24 q 102 195 128 147 q 72 304 76 243 q 70 340 71 325 q 69 363 69 354 q 69 435 69 403 q 74 506 69 468 q 92 593 78 543 q 132 715 106 643 q 243 844 168 794 q 411 916 318 893 q 593 939 504 939 q 703 931 651 939 q 831 851 778 921 q 743 800 797 801 q 467 783 588 817 q 279 658 347 750 q 211 404 211 565 q 224 269 211 351 q 368 164 279 164 q 509 172 440 153 q 627 229 578 190 q 690 317 676 268 q 705 375 700 353 q 710 407 710 397 q 709 415 710 410 q 707 428 708 421 q 649 424 683 426 q 568 418 614 421 l 449 410 q 359 437 392 410 q 308 526 326 464 q 318 535 311 528 q 328 540 324 540 l 376 546 q 517 561 457 556 q 619 569 578 567 q 694 569 654 572 q 778 558 733 565 q 903 443 903 538 q 889 371 903 407 q 880 349 886 361 q 867 322 874 336 q 787 200 835 254 q 660 100 739 146 q 542 46 597 63 q 435 25 488 29 q 419 24 429 24 q 396 24 410 24 z "},"Ǧ":{"ha":972,"x_min":69,"x_max":903,"o":"m 483 957 q 385 1029 422 957 q 358 1088 369 1061 q 338 1138 346 1115 q 335 1147 336 1143 q 335 1153 335 1151 q 350 1182 335 1171 q 390 1193 365 1193 q 446 1169 418 1193 l 474 1088 q 485 1075 476 1083 q 506 1054 493 1067 q 563 1110 539 1086 q 600 1147 586 1133 q 642 1190 619 1167 q 690 1240 664 1213 q 747 1225 719 1240 q 769 1189 769 1213 q 753 1154 769 1169 q 652 1065 700 1107 q 560 988 604 1024 q 483 957 525 957 m 396 24 q 176 106 275 24 q 102 195 128 147 q 72 304 76 243 q 70 340 71 325 q 69 363 69 354 q 69 435 69 403 q 74 506 69 468 q 92 593 78 543 q 132 715 106 643 q 243 844 168 794 q 411 916 318 893 q 593 939 504 939 q 703 931 651 939 q 831 851 778 921 q 743 800 797 801 q 467 783 588 817 q 279 658 347 750 q 211 404 211 565 q 224 269 211 351 q 368 164 279 164 q 509 172 440 153 q 627 229 578 190 q 690 317 676 268 q 705 375 700 353 q 710 407 710 397 q 709 415 710 410 q 707 428 708 421 q 649 424 683 426 q 568 418 614 421 l 449 410 q 359 437 392 410 q 308 526 326 464 q 318 535 311 528 q 328 540 324 540 l 376 546 q 517 561 457 556 q 619 569 578 567 q 694 569 654 572 q 778 558 733 565 q 903 443 903 538 q 889 371 903 407 q 880 349 886 361 q 867 322 874 336 q 787 200 835 254 q 660 100 739 146 q 542 46 597 63 q 435 25 488 29 q 419 24 429 24 q 396 24 410 24 z "},"Ĝ":{"ha":972,"x_min":69,"x_max":903,"o":"m 713 974 q 686 985 694 974 q 568 1115 610 1061 q 556 1133 557 1132 q 439 1019 553 1136 q 421 1004 429 1011 q 404 992 413 997 q 382 1008 386 992 q 378 1038 378 1025 q 394 1072 378 1046 q 418 1107 403 1086 q 456 1158 433 1128 q 472 1180 463 1169 q 490 1200 481 1190 q 507 1219 500 1211 q 517 1232 514 1226 q 550 1247 528 1247 q 586 1236 571 1247 q 631 1182 603 1222 q 651 1153 642 1165 q 667 1132 661 1140 q 722 1054 711 1075 q 739 1028 731 1039 q 747 1013 747 1018 q 713 974 738 974 m 396 24 q 176 106 275 24 q 102 195 128 147 q 72 304 76 243 q 70 340 71 325 q 69 363 69 354 q 69 435 69 403 q 74 506 69 468 q 92 593 78 543 q 132 715 106 643 q 243 844 168 794 q 411 916 318 893 q 593 939 504 939 q 703 931 651 939 q 831 851 778 921 q 743 800 797 801 q 467 783 588 817 q 279 658 347 750 q 211 404 211 565 q 224 269 211 351 q 368 164 279 164 q 509 172 440 153 q 627 229 578 190 q 690 317 676 268 q 705 375 700 353 q 710 407 710 397 q 709 415 710 410 q 707 428 708 421 q 649 424 683 426 q 568 418 614 421 l 449 410 q 359 437 392 410 q 308 526 326 464 q 318 535 311 528 q 328 540 324 540 l 376 546 q 517 561 457 556 q 619 569 578 567 q 694 569 654 572 q 778 558 733 565 q 903 443 903 538 q 889 371 903 407 q 880 349 886 361 q 867 322 874 336 q 787 200 835 254 q 660 100 739 146 q 542 46 597 63 q 435 25 488 29 q 419 24 429 24 q 396 24 410 24 z "},"Ģ":{"ha":994,"x_min":69,"x_max":928,"o":"m 439 10 q 165 121 297 10 q 92 218 114 164 q 69 339 69 272 q 132 590 69 468 q 546 919 194 714 q 582 924 565 922 q 614 926 599 926 q 775 861 710 926 q 799 814 799 838 q 789 779 799 797 q 783 779 786 779 q 774 778 779 779 q 757 776 761 775 q 674 794 717 794 q 510 740 604 794 q 213 321 244 586 q 211 300 211 317 q 251 189 211 238 q 353 136 290 140 l 375 135 q 476 154 426 135 q 547 192 500 164 q 664 269 594 221 l 660 288 q 652 288 657 288 q 642 289 647 288 q 622 289 631 292 q 576 281 596 285 q 544 275 557 278 q 478 264 506 268 q 433 257 451 260 l 419 256 q 328 307 369 256 q 308 353 308 331 q 326 394 308 376 l 839 456 q 850 442 843 450 q 867 425 857 435 q 913 369 899 393 q 924 313 928 346 q 914 301 919 307 q 901 289 908 296 q 879 261 885 272 q 776 144 838 193 q 633 61 715 96 l 607 50 q 548 26 571 35 q 499 14 525 18 q 439 10 468 10 m 399 -306 q 385 -158 319 -292 q 400 -144 386 -154 q 413 -131 411 -136 l 432 -107 q 471 -53 461 -74 q 488 -36 478 -40 q 513 -28 499 -32 q 522 -26 518 -26 q 526 -26 525 -26 q 564 -64 564 -26 q 564 -69 564 -65 q 563 -81 564 -74 q 533 -143 553 -111 q 510 -183 511 -178 q 460 -275 471 -243 q 399 -306 447 -308 z "},"Ġ":{"ha":972,"x_min":69,"x_max":903,"o":"m 407 1000 q 339 1047 357 1008 q 336 1064 338 1053 q 335 1082 335 1075 q 379 1139 350 1117 q 442 1161 408 1161 q 483 1142 465 1161 q 500 1090 500 1124 q 489 1044 500 1067 q 415 1000 476 1024 l 407 1000 m 396 24 q 176 106 275 24 q 102 195 128 147 q 72 304 76 243 q 70 340 71 325 q 69 363 69 354 q 69 435 69 403 q 74 506 69 468 q 92 593 78 543 q 132 715 106 643 q 243 844 168 794 q 411 916 318 893 q 593 939 504 939 q 703 931 651 939 q 831 851 778 921 q 743 800 797 801 q 467 783 588 817 q 279 658 347 750 q 211 404 211 565 q 224 269 211 351 q 368 164 279 164 q 509 172 440 153 q 627 229 578 190 q 690 317 676 268 q 705 375 700 353 q 710 407 710 397 q 709 415 710 410 q 707 428 708 421 q 649 424 683 426 q 568 418 614 421 l 449 410 q 359 437 392 410 q 308 526 326 464 q 318 535 311 528 q 328 540 324 540 l 376 546 q 517 561 457 556 q 619 569 578 567 q 694 569 654 572 q 778 558 733 565 q 903 443 903 538 q 889 371 903 407 q 880 349 886 361 q 867 322 874 336 q 787 200 835 254 q 660 100 739 146 q 542 46 597 63 q 435 25 488 29 q 419 24 429 24 q 396 24 410 24 z "},"Ḡ":{"ha":972,"x_min":69,"x_max":903,"o":"m 275 1038 q 151 1076 199 1032 q 410 1161 96 1151 q 430 1160 418 1161 q 456 1156 442 1158 q 494 1151 483 1149 l 561 1146 q 646 1140 610 1142 q 704 1140 682 1139 q 756 1133 738 1140 q 799 1117 774 1126 q 809 1110 804 1113 q 817 1104 814 1107 q 825 1076 833 1089 q 788 1054 817 1063 l 751 1046 q 679 1041 717 1043 q 600 1040 642 1039 q 500 1040 517 1043 q 367 1042 424 1043 q 275 1038 311 1040 m 396 24 q 176 106 275 24 q 102 195 128 147 q 72 304 76 243 q 70 340 71 325 q 69 363 69 354 q 69 435 69 403 q 74 506 69 468 q 92 593 78 543 q 132 715 106 643 q 243 844 168 794 q 411 916 318 893 q 593 939 504 939 q 703 931 651 939 q 831 851 778 921 q 743 800 797 801 q 467 783 588 817 q 279 658 347 750 q 211 404 211 565 q 224 269 211 351 q 368 164 279 164 q 509 172 440 153 q 627 229 578 190 q 690 317 676 268 q 705 375 700 353 q 710 407 710 397 q 709 415 710 410 q 707 428 708 421 q 649 424 683 426 q 568 418 614 421 l 449 410 q 359 437 392 410 q 308 526 326 464 q 318 535 311 528 q 328 540 324 540 l 376 546 q 517 561 457 556 q 619 569 578 567 q 694 569 654 572 q 778 558 733 565 q 903 443 903 538 q 889 371 903 407 q 880 349 886 361 q 867 322 874 336 q 787 200 835 254 q 660 100 739 146 q 542 46 597 63 q 435 25 488 29 q 419 24 429 24 q 396 24 410 24 z "},"Ǥ":{"ha":1068,"x_min":69,"x_max":1054,"o":"m 396 24 q 176 106 275 24 q 102 195 128 147 q 72 304 76 243 q 70 340 71 325 q 69 363 69 354 q 69 435 69 403 q 74 506 69 468 q 92 593 78 543 q 132 715 106 643 q 243 844 168 794 q 411 916 318 893 q 593 939 504 939 q 703 931 651 939 q 831 851 778 921 q 743 800 797 801 q 467 783 588 817 q 279 658 347 750 q 211 404 211 565 q 224 269 211 351 q 368 164 279 164 q 509 172 440 153 q 627 229 578 190 q 690 317 676 268 l 690 318 q 654 316 671 317 q 624 314 638 315 q 507 354 556 308 q 491 378 499 363 q 479 403 483 393 q 535 437 507 429 q 613 443 563 444 q 704 443 650 442 q 689 519 697 479 q 696 586 681 560 q 719 616 710 613 q 764 615 729 619 q 903 449 892 600 q 935 449 917 449 q 975 449 954 449 q 1031 419 1010 449 q 1054 338 1053 390 q 976 334 1022 336 q 871 329 931 332 l 867 322 q 787 200 835 254 q 660 100 739 146 q 542 46 597 63 q 435 25 488 29 q 419 24 429 24 q 396 24 410 24 z "},"H":{"ha":1049,"x_min":83,"x_max":963,"o":"m 649 3 q 593 51 604 -1 q 567 178 567 122 q 567 204 567 193 q 569 222 568 215 q 578 284 572 240 q 593 396 583 328 l 621 508 q 590 506 604 507 q 563 506 575 506 q 357 485 414 493 q 310 418 326 479 q 292 341 300 388 q 278 231 285 294 l 263 181 q 242 138 257 157 q 215 114 232 126 q 180 99 199 101 q 147 117 161 97 q 133 165 136 133 q 133 232 131 197 q 142 289 136 267 q 158 422 149 322 q 163 446 163 435 q 124 483 163 478 q 83 521 83 490 q 144 593 83 560 q 151 597 147 594 q 161 603 156 600 q 179 611 172 610 q 222 638 208 618 q 244 692 235 657 l 303 889 l 318 939 q 324 953 319 944 q 333 975 328 961 q 403 942 378 976 q 429 831 429 908 q 429 822 429 831 l 429 831 q 414 771 428 832 l 375 638 l 465 661 l 658 646 l 706 792 l 717 839 q 788 864 757 892 q 843 731 843 814 q 819 628 843 692 q 846 616 831 621 q 867 610 861 611 q 933 581 910 597 q 963 521 957 564 q 918 499 946 494 q 853 507 893 503 q 813 508 831 508 q 785 508 796 508 l 753 358 q 731 261 742 303 q 710 192 719 219 q 685 64 692 136 l 685 42 q 649 3 682 22 z "},"Ħ":{"ha":964,"x_min":81,"x_max":883,"o":"m 228 -21 q 158 35 147 -53 q 176 176 167 106 q 193 317 186 246 l 197 358 q 178 369 188 364 q 160 381 168 375 q 122 430 125 406 q 149 485 119 454 q 163 499 156 492 q 175 511 169 506 q 226 590 207 539 q 254 697 246 642 q 202 699 232 696 q 145 711 172 703 q 103 729 118 719 q 83 763 81 746 q 111 792 86 781 q 142 801 122 797 q 217 804 163 804 l 260 804 q 258 828 258 817 q 254 849 257 839 q 267 910 249 881 q 309 958 285 940 q 344 971 333 976 q 408 923 389 953 q 425 844 428 893 q 424 828 425 839 q 421 806 422 818 l 636 807 q 640 895 638 854 q 651 963 643 936 q 733 950 707 963 q 769 908 758 938 q 788 831 781 879 q 791 810 790 821 q 793 788 792 799 q 856 758 829 778 q 877 735 871 747 q 872 704 883 724 q 863 703 868 704 q 854 703 858 701 q 828 708 843 706 q 793 713 813 711 l 793 704 q 793 658 793 692 q 797 594 793 625 q 807 553 800 563 q 828 499 835 522 q 788 453 822 476 q 758 414 768 438 q 745 363 753 397 q 730 288 738 328 q 715 213 722 247 q 701 163 708 179 q 644 49 678 103 q 594 7 625 18 q 579 3 581 1 q 567 11 578 4 q 556 34 558 17 q 556 65 554 51 q 565 124 560 93 q 580 206 571 156 q 600 342 589 257 q 604 381 603 361 q 607 424 606 400 q 488 433 551 438 q 381 410 424 428 q 363 390 371 404 q 351 361 356 375 q 322 249 336 306 q 293 136 308 193 q 290 78 285 107 q 282 24 296 50 q 259 -3 275 10 q 228 -21 243 -15 m 610 547 q 626 621 621 575 q 633 718 631 667 q 521 715 574 718 q 439 711 468 713 l 406 710 q 392 623 399 665 q 382 561 385 581 q 497 554 431 561 q 610 547 563 547 z "},"Ḫ":{"ha":1049,"x_min":83,"x_max":963,"o":"m 649 3 q 593 51 604 -1 q 567 178 567 122 q 567 204 567 193 q 569 222 568 215 q 578 284 572 240 q 593 396 583 328 l 621 508 q 590 506 604 507 q 563 506 575 506 q 357 485 414 493 q 310 418 326 479 q 292 341 300 388 q 278 231 285 294 l 263 181 q 242 138 257 157 q 215 114 232 126 q 180 99 199 101 q 147 117 161 97 q 133 165 136 133 q 133 232 131 197 q 142 289 136 267 q 158 422 149 322 q 163 446 163 435 q 124 483 163 478 q 83 521 83 490 q 144 593 83 560 q 151 597 147 594 q 161 603 156 600 q 179 611 172 610 q 222 638 208 618 q 244 692 235 657 l 303 889 l 318 939 q 324 953 319 944 q 333 975 328 961 q 403 942 378 976 q 429 831 429 908 q 429 822 429 831 l 429 831 q 414 771 428 832 l 375 638 l 465 661 l 658 646 l 706 792 l 717 839 q 788 864 757 892 q 843 731 843 814 q 819 628 843 692 q 846 616 831 621 q 867 610 861 611 q 933 581 910 597 q 963 521 957 564 q 918 499 946 494 q 853 507 893 503 q 813 508 831 508 q 785 508 796 508 l 753 358 q 731 261 742 303 q 710 192 719 219 q 685 64 692 136 l 685 42 q 649 3 682 22 m 403 -253 q 319 -224 351 -249 q 260 -176 286 -200 l 199 -87 q 199 -65 190 -81 q 222 -39 207 -49 q 249 -43 238 -29 q 274 -74 263 -58 q 297 -106 286 -90 q 360 -144 319 -139 q 385 -149 376 -146 q 454 -122 431 -137 q 496 -85 478 -107 q 536 -62 515 -57 q 579 -85 569 -68 q 583 -133 589 -103 q 543 -201 576 -174 q 469 -244 503 -233 q 403 -253 436 -256 z "},"Ĥ":{"ha":1049,"x_min":83,"x_max":963,"o":"m 799 954 q 772 965 781 954 q 654 1096 696 1042 q 642 1114 643 1113 q 525 1000 639 1117 q 507 985 515 992 q 490 972 499 978 q 468 989 472 972 q 464 1018 464 1006 q 481 1053 464 1026 q 504 1088 489 1067 q 542 1139 519 1108 q 558 1160 549 1150 q 576 1181 567 1171 q 593 1199 586 1192 q 603 1213 600 1207 q 636 1228 614 1228 q 672 1217 657 1228 q 717 1163 689 1203 q 738 1133 728 1146 q 753 1113 747 1121 q 808 1035 797 1056 q 825 1009 817 1019 q 833 993 833 999 q 799 954 824 954 m 649 3 q 593 51 604 -1 q 567 178 567 122 q 567 204 567 193 q 569 222 568 215 q 578 284 572 240 q 593 396 583 328 l 621 508 q 590 506 604 507 q 563 506 575 506 q 357 485 414 493 q 310 418 326 479 q 292 341 300 388 q 278 231 285 294 l 263 181 q 242 138 257 157 q 215 114 232 126 q 180 99 199 101 q 147 117 161 97 q 133 165 136 133 q 133 232 131 197 q 142 289 136 267 q 158 422 149 322 q 163 446 163 435 q 124 483 163 478 q 83 521 83 490 q 144 593 83 560 q 151 597 147 594 q 161 603 156 600 q 179 611 172 610 q 222 638 208 618 q 244 692 235 657 l 303 889 l 318 939 q 324 953 319 944 q 333 975 328 961 q 403 942 378 976 q 429 831 429 908 q 429 822 429 831 l 429 831 q 414 771 428 832 l 375 638 l 465 661 l 658 646 l 706 792 l 717 839 q 788 864 757 892 q 843 731 843 814 q 819 628 843 692 q 846 616 831 621 q 867 610 861 611 q 933 581 910 597 q 963 521 957 564 q 918 499 946 494 q 853 507 893 503 q 813 508 831 508 q 785 508 796 508 l 753 358 q 731 261 742 303 q 710 192 719 219 q 685 64 692 136 l 685 42 q 649 3 682 22 z "},"Ḥ":{"ha":1049,"x_min":83,"x_max":963,"o":"m 649 3 q 593 51 604 -1 q 567 178 567 122 q 567 204 567 193 q 569 222 568 215 q 578 284 572 240 q 593 396 583 328 l 621 508 q 590 506 604 507 q 563 506 575 506 q 357 485 414 493 q 310 418 326 479 q 292 341 300 388 q 278 231 285 294 l 263 181 q 242 138 257 157 q 215 114 232 126 q 180 99 199 101 q 147 117 161 97 q 133 165 136 133 q 133 232 131 197 q 142 289 136 267 q 158 422 149 322 q 163 446 163 435 q 124 483 163 478 q 83 521 83 490 q 144 593 83 560 q 151 597 147 594 q 161 603 156 600 q 179 611 172 610 q 222 638 208 618 q 244 692 235 657 l 303 889 l 318 939 q 324 953 319 944 q 333 975 328 961 q 403 942 378 976 q 429 831 429 908 q 429 822 429 831 l 429 831 q 414 771 428 832 l 375 638 l 465 661 l 658 646 l 706 792 l 717 839 q 788 864 757 892 q 843 731 843 814 q 819 628 843 692 q 846 616 831 621 q 867 610 861 611 q 933 581 910 597 q 963 521 957 564 q 918 499 946 494 q 853 507 893 503 q 813 508 831 508 q 785 508 796 508 l 753 358 q 731 261 742 303 q 710 192 719 219 q 685 64 692 136 l 685 42 q 649 3 682 22 m 469 -240 q 438 -233 457 -246 q 410 -195 419 -221 q 410 -139 400 -169 q 463 -79 419 -108 q 510 -65 488 -64 q 561 -86 533 -67 q 589 -135 586 -104 q 560 -183 592 -164 q 545 -193 554 -186 q 522 -210 536 -200 q 495 -227 508 -219 q 469 -240 482 -235 z "},"I":{"ha":988,"x_min":83,"x_max":901,"o":"m 211 22 q 83 81 144 22 q 111 126 92 111 q 176 160 131 140 q 333 215 251 190 q 376 260 368 225 q 405 370 393 317 q 427 490 417 424 q 449 650 438 557 l 454 693 q 456 706 456 696 q 456 752 468 739 q 417 766 444 765 q 351 760 389 767 q 309 740 332 751 q 260 715 286 729 q 222 706 242 706 q 179 717 204 706 q 161 724 168 722 q 151 728 154 726 q 124 768 124 739 q 135 800 124 785 q 182 846 149 821 q 446 939 304 936 q 510 935 478 940 q 572 921 542 931 q 675 892 629 903 l 835 846 q 849 842 839 846 q 871 828 860 839 q 874 804 882 818 q 849 781 865 790 q 817 772 833 772 q 794 774 807 774 q 763 775 781 774 l 732 776 l 633 788 l 626 738 q 609 621 617 672 q 594 531 601 569 q 578 453 588 497 q 558 351 569 408 l 542 269 l 669 286 q 782 294 744 297 q 858 282 828 294 q 901 231 889 269 q 870 204 888 213 q 814 186 853 196 l 788 178 q 674 149 704 150 q 546 123 608 140 q 393 72 483 106 q 331 51 363 61 q 265 31 300 40 q 211 22 236 22 z "},"Ĳ":{"ha":1092,"x_min":82,"x_max":1022,"o":"m 635 26 q 551 48 583 38 q 493 71 518 58 q 442 104 468 83 q 414 135 436 107 q 374 190 392 164 q 363 249 351 226 q 418 292 375 271 l 525 167 q 576 138 549 149 q 635 131 604 128 q 680 139 658 131 q 715 163 701 147 q 812 306 776 228 q 851 472 847 383 q 858 569 856 514 q 860 679 861 624 q 851 775 858 735 q 850 803 851 790 q 840 825 849 815 q 832 871 826 849 q 851 907 838 893 q 908 935 875 931 q 960 925 940 939 q 997 888 982 911 q 1015 831 1011 864 q 1020 720 1018 785 q 1022 590 1022 656 q 1015 478 1022 525 q 976 282 1006 376 q 871 113 946 188 q 778 36 833 65 q 708 19 744 18 q 635 26 671 21 m 132 -6 q 117 -3 125 -4 q 101 1 108 -1 q 87 25 92 6 q 83 67 82 44 q 91 347 89 185 q 93 717 93 510 q 93 788 92 761 q 92 804 93 794 q 90 825 92 814 q 89 860 86 847 q 128 901 90 894 q 163 901 144 903 q 221 881 193 899 q 263 826 249 863 q 279 757 279 792 q 281 639 282 689 q 278 554 281 589 l 244 232 q 237 165 242 206 q 226 68 232 124 q 210 31 222 50 q 183 3 199 11 q 132 -6 161 -10 z "},"Í":{"ha":613,"x_min":258,"x_max":596,"o":"m 344 896 q 310 913 325 906 q 288 925 296 919 q 269 965 269 938 q 279 996 269 986 q 403 1112 342 1067 q 539 1179 465 1157 q 549 1181 544 1181 q 558 1182 554 1182 q 590 1164 582 1182 q 596 1139 596 1154 q 592 1117 596 1128 q 580 1094 588 1107 q 561 1068 572 1082 q 436 931 506 996 q 344 896 406 900 m 349 -31 q 275 28 296 -31 q 266 65 269 43 q 261 115 263 88 l 261 435 l 260 435 l 260 719 l 258 788 q 319 851 260 851 q 378 821 360 851 q 413 738 401 779 q 429 625 425 683 q 444 353 440 469 q 443 158 447 236 q 435 44 443 114 q 349 -31 426 -31 z "},"Ĭ":{"ha":572,"x_min":81,"x_max":486,"o":"m 325 972 q 235 985 274 967 q 167 1024 197 1004 l 89 1103 q 85 1126 81 1108 q 104 1156 90 1143 q 132 1156 118 1168 q 164 1128 149 1142 q 193 1100 179 1114 q 263 1072 221 1072 q 277 1072 271 1072 q 288 1074 283 1072 q 353 1113 331 1093 q 388 1158 375 1132 q 406 1181 399 1175 q 425 1188 413 1188 q 473 1172 460 1188 q 486 1125 486 1156 q 456 1050 486 1082 q 390 992 422 1010 q 325 972 358 975 m 239 -6 q 224 -3 232 -4 q 208 1 215 -1 q 194 25 199 6 q 190 67 189 44 q 198 347 196 185 q 200 717 200 510 q 200 788 199 761 q 199 804 200 794 q 197 825 199 814 q 196 860 193 847 q 235 901 197 894 q 269 901 251 903 q 328 881 300 899 q 369 826 356 863 q 386 757 386 792 q 388 639 389 689 q 385 554 388 589 l 351 232 l 333 68 q 317 31 329 50 q 290 3 306 11 q 239 -6 268 -10 z "},"Ǐ":{"ha":988,"x_min":83,"x_max":901,"o":"m 403 976 q 304 1049 342 976 q 277 1108 289 1081 q 257 1157 265 1135 q 255 1167 256 1163 q 254 1172 254 1171 q 269 1201 254 1190 q 310 1213 285 1213 q 365 1189 338 1213 l 393 1107 q 404 1094 396 1103 q 425 1074 413 1086 q 482 1129 458 1106 q 519 1167 506 1153 q 561 1209 539 1186 q 610 1260 583 1232 q 667 1244 639 1260 q 689 1208 689 1232 q 672 1174 689 1189 q 572 1085 619 1126 q 479 1007 524 1043 q 403 976 444 976 m 211 22 q 83 81 144 22 q 111 126 92 111 q 176 160 131 140 q 333 215 251 190 q 376 260 368 225 q 405 370 393 317 q 427 490 417 424 q 449 650 438 557 l 454 693 q 456 706 456 696 q 443 750 456 735 q 424 771 431 765 l 351 760 q 309 740 332 751 q 260 715 286 729 q 222 706 242 706 q 179 717 204 706 q 161 724 168 722 q 151 728 154 726 q 124 768 124 739 q 135 800 124 785 q 182 846 149 821 q 446 939 304 936 q 510 935 478 940 q 572 921 542 931 q 675 892 629 903 l 835 846 q 847 844 838 846 q 860 839 856 843 q 868 831 864 836 q 878 821 872 826 q 885 810 882 815 q 892 801 889 804 l 874 785 q 851 774 860 774 q 837 772 846 772 q 817 772 828 771 q 794 774 807 774 q 763 775 781 774 l 732 776 l 633 788 l 626 738 q 609 621 617 672 q 594 531 601 569 q 578 453 588 497 q 558 351 569 408 l 542 269 l 669 286 q 782 294 744 297 q 858 282 828 294 q 901 231 889 269 q 870 204 888 213 q 814 186 853 196 l 788 178 q 674 149 704 150 q 546 123 608 140 q 393 72 483 106 q 331 51 363 61 q 265 31 300 40 q 211 22 236 22 z "},"Î":{"ha":713,"x_min":83,"x_max":626,"o":"m 592 817 q 492 857 522 814 q 469 890 483 868 q 433 943 454 913 l 404 986 q 383 1043 397 1013 q 361 1025 375 1039 q 333 997 354 1018 q 276 943 313 976 l 254 914 l 199 851 l 171 856 q 115 868 132 863 q 83 914 83 879 q 101 956 83 938 l 176 1029 q 251 1101 221 1072 q 317 1149 281 1129 q 378 1165 349 1165 q 474 1106 438 1165 l 492 1074 l 519 1028 q 545 988 532 1008 q 572 946 558 968 l 604 897 l 622 869 q 626 853 626 861 q 617 827 626 838 q 592 817 607 817 m 328 -60 q 298 -47 311 -60 q 282 -11 285 -33 q 278 104 278 26 l 278 469 q 257 714 278 621 q 255 731 256 724 q 254 740 254 738 q 276 799 254 778 q 335 821 299 821 q 353 819 349 821 q 435 782 410 813 q 463 692 461 751 q 460 440 465 571 q 444 165 456 308 q 431 88 442 131 q 401 -3 421 46 q 363 -47 396 -24 q 328 -60 346 -60 z "},"Ï":{"ha":658,"x_min":83,"x_max":572,"o":"m 176 939 q 118 971 154 943 l 83 989 q 121 1051 99 1017 q 181 1041 153 1053 q 226 975 208 1029 q 204 949 222 961 q 176 939 186 938 m 524 894 q 485 904 503 894 q 433 942 467 914 l 399 971 q 446 993 425 979 q 504 1013 492 1013 q 553 993 535 1011 q 572 943 572 975 q 558 907 572 919 q 524 894 544 894 m 356 -17 q 297 14 315 -17 q 263 97 274 56 q 246 210 249 154 q 235 482 239 365 q 232 676 231 599 q 240 790 232 722 q 326 865 249 865 q 400 807 379 865 q 414 719 414 769 l 414 400 l 415 400 l 415 115 l 417 47 q 356 -17 418 -17 z "},"İ":{"ha":988,"x_min":83,"x_max":901,"o":"m 386 1013 q 318 1060 336 1021 q 315 1076 317 1065 q 314 1094 314 1088 q 358 1151 329 1129 q 421 1174 388 1174 q 462 1155 444 1174 q 479 1103 479 1136 q 468 1057 479 1079 q 394 1013 456 1036 l 386 1013 m 211 22 q 83 81 144 22 q 111 126 92 111 q 176 160 131 140 q 333 215 251 190 q 376 260 368 225 q 405 370 393 317 q 427 490 417 424 q 449 650 438 557 l 454 693 q 456 706 456 696 q 456 752 468 739 q 417 766 444 765 q 351 760 389 767 q 309 740 332 751 q 260 715 286 729 q 222 706 242 706 q 179 717 204 706 q 161 724 168 722 q 151 728 154 726 q 124 768 124 739 q 135 800 124 785 q 182 846 149 821 q 446 939 304 936 q 510 935 478 940 q 572 921 542 931 q 675 892 629 903 l 835 846 q 849 842 839 846 q 871 828 860 839 q 874 804 882 818 q 849 781 865 790 q 817 772 833 772 q 794 774 807 774 q 763 775 781 774 l 732 776 l 633 788 l 626 738 q 609 621 617 672 q 594 531 601 569 q 578 453 588 497 q 558 351 569 408 l 542 269 l 669 286 q 782 294 744 297 q 858 282 828 294 q 901 231 889 269 q 870 204 888 213 q 814 186 853 196 l 788 178 q 674 149 704 150 q 546 123 608 140 q 393 72 483 106 q 331 51 363 61 q 265 31 300 40 q 211 22 236 22 z "},"Ị":{"ha":971,"x_min":83,"x_max":901,"o":"m 211 22 q 83 81 144 22 q 111 126 92 111 q 176 160 131 140 q 333 215 251 190 q 376 260 368 225 q 405 370 393 317 q 427 490 417 424 q 449 650 438 557 l 454 693 q 456 706 456 696 q 456 752 468 739 q 417 766 444 765 q 351 760 389 767 q 309 740 332 751 q 260 715 286 729 q 222 706 242 706 q 179 717 204 706 q 161 724 168 722 q 151 728 154 726 q 124 768 124 739 q 135 800 124 785 q 182 846 149 821 q 446 939 304 936 q 510 935 478 940 q 572 921 542 931 q 675 892 629 903 l 835 846 q 849 842 839 846 q 871 828 860 839 q 874 804 882 818 q 849 781 865 790 q 817 772 833 772 q 794 774 807 774 q 763 775 781 774 l 732 776 l 633 788 l 626 738 q 609 621 617 672 q 594 531 601 569 q 578 453 588 497 q 558 351 569 408 l 542 269 l 669 286 q 782 294 744 297 q 858 282 828 294 q 901 231 889 269 q 870 204 888 213 q 814 186 853 196 l 788 178 q 674 149 704 150 q 546 123 608 140 q 393 72 483 106 q 331 51 363 61 q 265 31 300 40 q 211 22 236 22 m 469 -240 q 438 -233 457 -246 q 410 -195 419 -221 q 410 -139 400 -169 q 463 -79 419 -108 q 510 -65 488 -64 q 561 -86 533 -67 q 589 -135 586 -104 q 560 -183 592 -164 q 545 -193 554 -186 q 522 -210 536 -200 q 495 -227 508 -219 q 469 -240 482 -235 z "},"Ì":{"ha":586,"x_min":83,"x_max":500,"o":"m 424 958 q 394 967 414 958 q 351 986 374 976 q 301 1006 328 996 q 235 1031 250 1025 l 149 1063 q 101 1091 117 1074 q 85 1136 85 1108 q 85 1154 83 1149 q 120 1223 94 1194 q 176 1251 146 1251 q 194 1249 188 1254 l 443 1090 q 460 1078 449 1088 q 478 1056 471 1069 q 475 1022 485 1042 q 424 958 444 958 m 414 -43 q 382 -39 397 -43 q 365 -19 372 -36 q 357 18 358 -1 q 299 597 343 229 q 295 633 297 617 q 292 661 293 649 q 289 676 290 668 q 285 694 288 685 q 281 712 282 704 q 279 725 279 719 q 315 765 279 754 q 349 769 331 769 q 410 756 381 769 q 457 711 439 742 q 481 651 476 679 q 494 546 490 592 q 500 469 499 500 l 500 179 q 500 119 500 156 q 499 33 500 82 q 488 -3 499 17 q 464 -31 478 -22 q 414 -43 443 -43 z "},"Ỉ":{"ha":971,"x_min":83,"x_max":901,"o":"m 506 960 q 471 1014 471 994 q 565 1090 471 1046 q 561 1133 579 1111 q 535 1157 553 1149 q 499 1161 517 1165 l 428 1156 q 423 1172 428 1156 q 419 1208 418 1188 q 438 1239 421 1228 q 492 1249 454 1249 q 569 1235 531 1250 q 584 1228 578 1232 q 596 1221 590 1224 q 633 1164 606 1215 q 636 1083 644 1107 q 596 1006 631 1043 q 506 960 561 969 m 211 22 q 83 81 144 22 q 111 126 92 111 q 176 160 131 140 q 333 215 251 190 q 376 260 368 225 q 405 370 393 317 q 427 490 417 424 q 449 650 438 557 l 454 693 q 456 706 456 696 q 456 752 468 739 q 417 766 444 765 q 351 760 389 767 q 309 740 332 751 q 260 715 286 729 q 222 706 242 706 q 179 717 204 706 q 161 724 168 722 q 151 728 154 726 q 124 768 124 739 q 135 800 124 785 q 182 846 149 821 q 446 939 304 936 q 510 935 478 940 q 572 921 542 931 q 675 892 629 903 l 835 846 q 849 842 839 846 q 871 828 860 839 q 874 804 882 818 q 849 781 865 790 q 817 772 833 772 q 794 774 807 774 q 763 775 781 774 l 732 776 l 633 788 l 626 738 q 609 621 617 672 q 594 531 601 569 q 578 453 588 497 q 558 351 569 408 l 542 269 l 669 286 q 782 294 744 297 q 858 282 828 294 q 901 231 889 269 q 870 204 888 213 q 814 186 853 196 l 788 178 q 674 149 704 150 q 546 123 608 140 q 393 72 483 106 q 331 51 363 61 q 265 31 300 40 q 211 22 236 22 z "},"Ī":{"ha":622,"x_min":78,"x_max":539,"o":"m 246 940 q 138 939 160 932 q 100 968 117 946 q 90 971 93 979 q 88 1039 78 1011 q 475 1076 99 1068 q 497 1075 482 1078 q 526 1063 513 1072 q 536 1032 539 1053 q 474 961 539 961 q 403 958 440 961 q 322 950 365 956 l 246 940 m 367 -6 q 335 -1 350 -6 q 319 20 325 1 q 310 58 313 39 q 251 667 288 279 q 247 704 249 688 q 244 735 246 721 q 242 750 243 742 q 238 769 240 758 q 232 801 232 788 q 268 844 232 833 q 301 849 283 849 q 410 788 368 849 q 433 724 429 750 q 447 613 443 660 q 453 533 451 565 l 453 228 q 451 164 451 201 q 451 75 451 126 q 441 37 451 57 q 417 7 431 17 q 367 -6 396 -6 z "},"Į":{"ha":988,"x_min":83,"x_max":901,"o":"m 211 -56 q 83 3 144 -56 q 111 48 92 33 q 176 82 131 63 q 333 138 251 113 q 376 182 368 147 q 411 364 400 264 q 423 472 417 413 q 439 601 429 532 l 444 644 q 446 657 446 647 q 417 697 446 688 q 406 703 411 700 q 394 713 401 707 q 383 722 389 718 q 375 728 378 725 l 342 711 q 299 692 322 703 q 250 667 276 681 q 213 657 232 657 q 169 668 194 657 q 151 676 158 674 q 142 679 144 678 q 114 719 114 690 q 125 751 114 736 q 172 797 139 772 q 436 890 294 888 q 500 887 468 892 q 563 872 532 882 q 665 843 619 854 l 825 797 q 837 796 828 797 q 850 790 846 794 q 858 783 854 788 q 868 772 863 778 q 876 761 872 767 q 882 753 879 756 l 864 736 q 842 725 850 725 q 827 723 836 724 q 807 724 818 722 q 784 725 797 725 q 753 726 771 725 l 722 728 l 624 739 l 617 689 q 602 565 607 624 q 594 453 597 506 q 578 375 588 419 q 558 274 569 331 l 542 192 l 669 208 q 782 217 744 219 q 858 204 828 217 q 901 153 889 192 q 870 126 888 135 q 814 108 853 118 l 788 100 q 674 71 704 72 q 492 29 588 60 q 478 15 486 21 q 460 3 471 8 q 443 -8 450 -3 q 432 -19 436 -14 q 389 -93 407 -54 q 381 -135 381 -110 q 451 -203 381 -192 q 474 -204 457 -204 q 493 -206 489 -204 q 526 -212 506 -206 q 547 -244 547 -222 q 536 -268 547 -257 l 525 -276 q 507 -286 518 -283 q 451 -294 474 -292 q 417 -296 428 -297 q 315 -249 351 -289 q 278 -149 278 -210 l 279 -128 q 297 -46 282 -87 q 303 -36 300 -42 q 265 -47 285 -42 q 211 -56 236 -56 z "},"Ĩ":{"ha":971,"x_min":83,"x_max":901,"o":"m 626 982 q 511 1021 579 976 q 502 1026 510 1022 q 481 1040 494 1031 q 408 1082 432 1072 q 383 1089 392 1089 q 357 1078 367 1089 q 343 1049 347 1067 q 319 1024 338 1024 q 300 1029 310 1024 q 283 1033 300 1029 q 251 1049 267 1038 q 233 1081 235 1060 q 243 1114 232 1100 q 288 1153 254 1128 q 338 1174 313 1174 q 379 1169 350 1174 q 413 1152 397 1163 q 447 1125 428 1142 q 503 1088 478 1100 q 568 1075 529 1075 q 592 1076 588 1075 q 652 1111 632 1093 q 685 1154 672 1129 q 700 1175 693 1169 q 718 1181 707 1181 q 763 1166 751 1181 q 775 1122 775 1151 q 747 1053 775 1085 q 687 1001 717 1017 q 626 982 657 985 m 211 22 q 83 81 144 22 q 111 126 92 111 q 176 160 131 140 q 333 215 251 190 q 376 260 368 225 q 405 370 393 317 q 427 490 417 424 q 449 650 438 557 l 454 693 q 456 706 456 696 q 456 752 468 739 q 417 766 444 765 q 351 760 389 767 q 309 740 332 751 q 260 715 286 729 q 222 706 242 706 q 179 717 204 706 q 161 724 168 722 q 151 728 154 726 q 124 768 124 739 q 135 800 124 785 q 182 846 149 821 q 446 939 304 936 q 510 935 478 940 q 572 921 542 931 q 675 892 629 903 l 835 846 q 849 842 839 846 q 871 828 860 839 q 874 804 882 818 q 849 781 865 790 q 817 772 833 772 q 794 774 807 774 q 763 775 781 774 l 732 776 l 633 788 l 626 738 q 609 621 617 672 q 594 531 601 569 q 578 453 588 497 q 558 351 569 408 l 542 269 l 669 286 q 782 294 744 297 q 858 282 828 294 q 901 231 889 269 q 870 204 888 213 q 814 186 853 196 l 788 178 q 674 149 704 150 q 546 123 608 140 q 393 72 483 106 q 331 51 363 61 q 265 31 300 40 q 211 22 236 22 z "},"J":{"ha":847,"x_min":83,"x_max":778,"o":"m 336 13 q 169 47 244 13 q 83 121 115 72 q 147 154 111 154 q 187 147 165 154 q 215 138 208 140 q 300 124 253 124 q 433 157 371 124 q 525 247 494 190 q 604 592 604 396 q 588 803 604 682 q 519 789 549 801 q 442 749 489 776 q 374 731 411 731 q 333 736 350 731 q 302 751 318 740 q 281 774 286 761 q 276 792 276 782 q 286 818 276 806 q 310 838 296 831 q 411 883 363 863 q 507 922 460 904 q 532 928 518 925 q 561 932 546 931 q 587 935 576 933 q 604 939 597 938 q 642 947 625 944 q 674 949 660 949 q 776 908 729 949 l 776 829 q 778 781 778 810 q 778 711 778 751 l 778 663 l 776 624 q 770 477 775 542 q 755 358 765 413 q 722 247 744 303 q 626 101 686 157 q 472 28 565 46 q 402 17 436 21 q 336 13 368 13 z "},"Ĵ":{"ha":847,"x_min":83,"x_max":814,"o":"m 781 967 q 765 969 774 967 q 754 978 757 972 q 639 1104 681 1050 l 628 1121 q 514 1011 626 1124 q 497 997 506 1004 q 481 985 489 990 q 458 1001 463 985 q 454 1028 454 1017 q 471 1063 454 1036 q 531 1147 489 1090 q 546 1167 538 1157 q 564 1188 554 1178 q 580 1205 574 1197 q 589 1218 586 1213 q 622 1232 603 1232 q 657 1221 642 1232 q 701 1169 671 1211 q 721 1142 713 1154 q 735 1121 729 1129 q 789 1046 776 1067 q 806 1021 797 1031 q 814 1004 814 1011 q 781 967 804 967 m 336 13 q 169 47 244 13 q 83 121 115 72 q 147 154 111 154 q 187 147 165 154 q 215 138 208 140 q 300 124 253 124 q 433 157 371 124 q 525 247 494 190 q 604 592 604 396 q 588 803 604 682 q 519 789 549 801 q 442 749 489 776 q 374 731 411 731 q 333 736 350 731 q 302 751 318 740 q 281 774 286 761 q 276 792 276 782 q 286 818 276 806 q 310 838 296 831 q 411 883 363 863 q 507 922 460 904 q 532 928 518 925 q 561 932 546 931 q 587 935 576 933 q 604 939 597 938 q 642 947 625 944 q 674 949 660 949 q 776 908 729 949 l 776 829 q 778 781 778 810 q 778 711 778 751 l 778 663 l 776 624 q 770 477 775 542 q 755 358 765 413 q 722 247 744 303 q 626 101 686 157 q 472 28 565 46 q 402 17 436 21 q 336 13 368 13 z "},"K":{"ha":964,"x_min":83,"x_max":894,"o":"m 197 -54 q 145 -35 164 -43 q 116 -4 126 -28 q 96 79 106 19 l 90 150 q 85 204 88 179 q 83 251 83 229 q 94 383 83 317 q 125 547 104 449 q 155 681 139 617 q 189 806 171 746 q 235 914 206 858 q 258 958 250 942 q 269 981 267 975 q 314 1015 288 1015 q 378 994 335 1015 q 406 976 399 985 q 414 956 414 968 q 406 919 414 943 l 358 785 q 345 747 353 769 q 326 693 338 724 q 319 668 324 685 q 308 625 315 651 q 319 618 314 621 q 373 658 346 638 q 429 699 400 678 l 733 914 q 779 925 749 925 q 827 916 804 925 q 860 892 850 907 q 868 867 868 879 q 846 826 868 849 l 693 697 l 654 665 q 556 583 588 614 q 518 531 518 551 q 542 475 518 515 l 567 436 q 676 265 628 339 q 772 132 725 192 q 871 15 818 72 l 894 -11 q 853 -31 871 -31 q 821 -18 836 -31 q 650 127 725 53 q 521 290 575 201 q 490 338 507 313 q 451 390 472 363 q 441 406 450 393 q 415 443 432 419 l 375 410 q 308 355 336 379 q 260 311 279 331 q 240 280 247 300 q 232 240 233 260 q 231 213 231 229 q 231 172 231 196 l 232 35 q 226 -19 232 3 q 197 -54 219 -40 z "},"Ǩ":{"ha":964,"x_min":83,"x_max":894,"o":"m 600 943 q 501 1015 539 943 q 474 1074 486 1047 q 454 1124 463 1101 q 452 1133 453 1129 q 451 1139 451 1138 q 467 1168 451 1157 q 507 1179 482 1179 q 563 1156 535 1179 l 590 1074 q 601 1061 593 1069 q 622 1040 610 1053 q 679 1096 656 1072 q 717 1133 703 1119 q 758 1176 736 1153 q 807 1226 781 1199 q 864 1211 836 1226 q 886 1175 886 1199 q 869 1140 886 1156 q 769 1051 817 1093 q 676 974 721 1010 q 600 943 642 943 m 197 -54 q 145 -35 164 -43 q 116 -4 126 -28 q 96 79 106 19 l 90 150 q 85 204 88 179 q 83 251 83 229 q 94 383 83 317 q 125 547 104 449 q 155 681 139 617 q 189 806 171 746 q 235 914 206 858 q 258 958 250 942 q 269 981 267 975 q 314 1015 288 1015 q 378 994 335 1015 q 406 976 399 985 q 414 956 414 968 q 406 919 414 943 l 358 785 q 345 747 353 769 q 326 693 338 724 q 319 668 324 685 q 308 625 315 651 q 319 618 314 621 q 373 658 346 638 q 429 699 400 678 l 733 914 q 779 925 749 925 q 827 916 804 925 q 860 892 850 907 q 868 867 868 879 q 846 826 868 849 l 693 697 l 654 665 q 556 583 588 614 q 518 531 518 551 q 542 475 518 515 l 567 436 q 676 265 628 339 q 772 132 725 192 q 871 15 818 72 l 894 -11 q 853 -31 871 -31 q 821 -18 836 -31 q 650 127 725 53 q 521 290 575 201 q 490 338 507 313 q 451 390 472 363 q 441 406 450 393 q 415 443 432 419 l 375 410 q 308 355 336 379 q 260 311 279 331 q 240 280 247 300 q 232 240 233 260 q 231 213 231 229 q 231 172 231 196 l 232 35 q 226 -19 232 3 q 197 -54 219 -40 z "},"Ķ":{"ha":964,"x_min":83,"x_max":894,"o":"m 197 -54 q 145 -35 164 -43 q 116 -4 126 -28 q 96 79 106 19 l 90 150 q 85 204 88 179 q 83 251 83 229 q 94 383 83 317 q 125 547 104 449 q 155 681 139 617 q 189 806 171 746 q 235 914 206 858 q 258 958 250 942 q 269 981 267 975 q 314 1015 288 1015 q 378 994 335 1015 q 406 976 399 985 q 414 956 414 968 q 406 919 414 943 l 358 785 q 345 747 353 769 q 326 693 338 724 q 319 668 324 685 q 308 625 315 651 q 319 618 314 621 q 373 658 346 638 q 429 699 400 678 l 733 914 q 779 925 749 925 q 827 916 804 925 q 860 892 850 907 q 868 867 868 879 q 846 826 868 849 l 693 697 l 654 665 q 556 583 588 614 q 518 531 518 551 q 542 475 518 515 l 567 436 q 676 265 628 339 q 772 132 725 192 q 871 15 818 72 l 894 -11 q 853 -31 871 -31 q 821 -18 836 -31 q 650 127 725 53 q 521 290 575 201 q 490 338 507 313 q 451 390 472 363 q 441 406 450 393 q 415 443 432 419 l 375 410 q 308 355 336 379 q 260 311 279 331 q 240 280 247 300 q 232 240 233 260 q 231 213 231 229 q 231 172 231 196 l 232 35 q 226 -19 232 3 q 197 -54 219 -40 m 399 -306 q 385 -158 319 -292 q 400 -144 386 -154 q 413 -131 411 -136 l 432 -107 q 456 -76 447 -89 q 471 -53 465 -62 q 488 -36 478 -40 q 513 -28 499 -32 q 522 -26 518 -26 q 526 -26 525 -26 q 564 -64 564 -26 q 564 -69 564 -65 q 563 -81 564 -74 q 533 -143 553 -111 q 510 -183 511 -178 q 460 -275 471 -243 q 399 -306 447 -308 z "},"Ḵ":{"ha":964,"x_min":83,"x_max":894,"o":"m 197 -54 q 145 -35 164 -43 q 116 -4 126 -28 q 96 79 106 19 l 90 150 q 85 204 88 179 q 83 251 83 229 q 94 383 83 317 q 125 547 104 449 q 155 681 139 617 q 189 806 171 746 q 235 914 206 858 q 258 958 250 942 q 269 981 267 975 q 314 1015 288 1015 q 378 994 335 1015 q 406 976 399 985 q 414 956 414 968 q 406 919 414 943 l 358 785 q 345 747 353 769 q 326 693 338 724 q 319 668 324 685 q 308 625 315 651 q 319 618 314 621 q 373 658 346 638 q 429 699 400 678 l 733 914 q 779 925 749 925 q 827 916 804 925 q 860 892 850 907 q 868 867 868 879 q 846 826 868 849 l 693 697 l 654 665 q 556 583 588 614 q 518 531 518 551 q 542 475 518 515 l 567 436 q 676 265 628 339 q 772 132 725 192 q 871 15 818 72 l 894 -11 q 853 -31 871 -31 q 821 -18 836 -31 q 650 127 725 53 q 521 290 575 201 q 490 338 507 313 q 451 390 472 363 q 441 406 450 393 q 415 443 432 419 l 375 410 q 308 355 336 379 q 260 311 279 331 q 240 280 247 300 q 232 240 233 260 q 231 213 231 229 q 231 172 231 196 l 232 35 q 226 -19 232 3 q 197 -54 219 -40 m 258 -228 q 165 -189 201 -233 q 360 -104 122 -115 q 394 -110 374 -104 q 424 -114 415 -115 l 474 -119 q 537 -125 510 -124 q 581 -125 564 -126 q 619 -132 606 -125 q 651 -149 633 -139 q 665 -161 661 -158 q 643 -211 690 -193 l 617 -219 q 563 -224 590 -222 q 503 -225 535 -226 q 428 -225 440 -222 q 328 -224 371 -222 q 258 -228 286 -225 z "},"L":{"ha":728,"x_min":83,"x_max":658,"o":"m 378 -81 q 153 1 242 -81 q 101 62 119 31 q 83 129 83 93 q 83 142 83 136 q 85 151 83 149 q 109 284 96 224 q 136 393 122 344 q 179 541 151 449 q 246 764 207 633 q 268 842 254 796 q 300 950 282 889 q 328 995 310 982 q 381 1006 346 1008 q 388 1006 383 1006 q 394 1004 392 1006 q 401 1003 397 1003 q 408 1003 406 1003 q 497 917 497 997 q 492 875 497 893 q 475 822 486 853 q 449 751 464 790 q 345 461 390 604 q 268 181 300 318 q 260 108 260 146 q 322 39 260 39 q 342 40 338 39 q 401 51 361 43 q 503 72 442 60 l 614 96 q 645 63 632 78 q 658 39 658 49 q 647 15 658 26 q 630 1 642 10 q 600 -22 618 -8 q 592 -32 597 -24 q 581 -40 585 -39 l 542 -51 q 455 -73 493 -65 q 378 -81 417 -81 z "},"Ĺ":{"ha":711,"x_min":83,"x_max":697,"o":"m 343 989 q 318 1006 331 996 q 340 1046 332 1040 q 352 1056 343 1049 q 375 1072 361 1063 q 506 1208 435 1117 q 567 1249 524 1231 q 597 1249 582 1256 q 626 1217 618 1242 q 624 1144 636 1182 q 586 1096 613 1113 q 485 1035 526 1060 q 419 997 443 1011 q 343 989 378 975 m 378 -81 q 153 1 242 -81 q 101 62 119 31 q 83 129 83 93 q 83 142 83 136 q 85 151 83 149 q 109 284 96 224 q 136 393 122 344 q 228 713 149 454 q 250 791 236 744 q 282 899 264 838 q 310 944 292 931 q 363 954 328 957 q 369 954 365 954 q 376 953 374 954 q 383 951 379 951 q 390 951 388 951 q 479 865 479 946 q 474 824 479 842 q 457 770 468 801 q 431 700 446 739 q 268 181 314 406 q 260 108 260 146 q 322 39 260 39 q 342 40 338 39 l 653 107 q 684 74 671 89 q 697 50 697 60 q 686 26 697 38 q 669 12 681 21 q 639 -11 657 3 q 631 -21 636 -12 q 619 -29 624 -28 l 581 -40 q 474 -67 532 -54 q 378 -81 417 -81 z "},"Ľ":{"ha":711,"x_min":83,"x_max":697,"o":"m 389 1013 q 315 1065 344 1013 q 296 1109 304 1089 q 281 1144 288 1129 q 278 1152 279 1149 q 278 1157 278 1156 q 290 1178 278 1169 q 319 1186 301 1186 q 360 1168 342 1186 l 382 1146 q 404 1122 385 1142 q 447 1163 429 1146 q 474 1190 464 1181 q 540 1221 500 1217 q 582 1210 563 1221 q 599 1183 599 1200 q 586 1158 599 1169 q 512 1093 547 1124 q 444 1035 476 1063 q 389 1013 418 1013 m 378 -81 q 153 1 242 -81 q 101 62 119 31 q 83 129 83 93 q 83 142 83 136 q 85 151 83 149 q 109 284 96 224 q 136 393 122 344 q 228 713 149 454 q 250 791 236 744 q 282 899 264 838 q 310 944 292 931 q 363 954 328 957 q 369 954 365 954 q 376 953 374 954 q 383 951 379 951 q 390 951 388 951 q 479 865 479 946 q 474 824 479 842 q 457 770 468 801 q 431 700 446 739 q 268 181 314 406 q 260 108 260 146 q 322 39 260 39 q 342 40 338 39 l 653 107 q 684 74 671 89 q 697 50 697 60 q 686 26 697 38 q 669 12 681 21 q 639 -11 657 3 q 631 -21 636 -12 q 619 -29 624 -28 l 581 -40 q 474 -67 532 -54 q 378 -81 417 -81 z "},"Ļ":{"ha":711,"x_min":83,"x_max":697,"o":"m 378 24 q 153 106 242 24 q 101 166 119 135 q 83 233 83 197 q 83 247 83 240 q 85 256 83 253 q 109 388 96 328 q 136 497 122 449 q 228 817 149 558 q 250 895 236 849 q 282 1003 264 942 q 310 1048 292 1035 q 363 1058 328 1061 q 369 1058 365 1058 q 376 1057 374 1058 q 383 1056 379 1056 q 390 1056 388 1056 q 479 969 479 1050 q 474 928 479 946 q 457 874 468 906 q 431 804 446 843 q 268 285 314 510 q 260 213 260 250 q 322 143 260 143 q 342 144 338 143 l 653 211 q 684 178 671 193 q 697 154 697 164 q 686 131 697 142 q 669 116 681 125 q 639 93 657 107 q 631 83 636 92 q 619 75 624 76 l 581 64 q 474 37 532 50 q 378 24 417 24 m 249 -269 q 235 -268 238 -269 q 204 -225 197 -261 q 208 -208 204 -221 q 249 -151 222 -182 q 269 -128 261 -137 q 278 -117 276 -119 q 318 -70 301 -90 q 343 -35 335 -50 q 408 -15 361 -6 q 397 -162 482 -44 q 310 -239 342 -214 q 274 -265 279 -264 l 249 -269 z "},"Ŀ":{"ha":728,"x_min":83,"x_max":658,"o":"m 378 -81 q 153 1 242 -81 q 101 62 119 31 q 83 129 83 93 q 83 142 83 136 q 85 151 83 149 q 109 284 96 224 q 136 393 122 344 q 179 541 151 449 q 246 764 207 633 q 268 842 254 796 q 300 950 282 889 q 328 995 310 982 q 381 1006 346 1008 q 388 1006 383 1006 q 394 1004 392 1006 q 401 1003 397 1003 q 408 1003 406 1003 q 497 917 497 997 q 492 875 497 893 q 475 822 486 853 q 449 751 464 790 q 345 461 390 604 q 268 181 300 318 q 260 108 260 146 q 322 39 260 39 q 342 40 338 39 q 401 51 361 43 q 503 72 442 58 l 614 96 q 645 63 632 78 q 658 39 658 49 q 647 15 658 26 q 630 1 642 10 q 600 -22 618 -8 q 592 -32 597 -24 q 581 -40 585 -39 l 542 -51 q 455 -73 493 -65 q 378 -81 417 -81 m 524 274 q 493 281 511 268 q 465 319 475 294 q 465 373 456 343 q 517 431 475 403 q 563 446 540 447 q 614 425 586 444 q 642 376 639 407 q 613 329 642 349 l 575 304 q 549 287 561 294 q 524 274 536 279 z "},"Ḷ":{"ha":728,"x_min":83,"x_max":658,"o":"m 378 -81 q 153 1 242 -81 q 101 62 119 31 q 83 129 83 93 q 83 142 83 136 q 85 151 83 149 q 109 284 96 224 q 136 393 122 344 q 179 541 151 449 q 246 764 207 633 q 268 842 254 796 q 300 950 282 889 q 328 995 310 982 q 381 1006 346 1008 q 388 1006 383 1006 q 394 1004 392 1006 q 401 1003 397 1003 q 408 1003 406 1003 q 497 917 497 997 q 492 875 497 893 q 475 822 486 853 q 449 751 464 790 q 345 461 390 604 q 268 181 300 318 q 260 108 260 146 q 322 39 260 39 q 342 40 338 39 q 401 51 361 43 q 503 72 442 60 l 614 96 q 645 63 632 78 q 658 39 658 49 q 647 15 658 26 q 630 1 642 10 q 600 -22 618 -8 q 592 -32 597 -24 q 581 -40 585 -39 l 542 -51 q 455 -73 493 -65 q 378 -81 417 -81 m 300 -278 q 274 -271 289 -282 q 249 -238 258 -260 q 249 -191 240 -217 q 294 -140 257 -165 q 335 -128 314 -125 q 379 -146 357 -131 q 403 -187 400 -161 q 378 -229 403 -212 q 346 -251 369 -233 q 323 -266 335 -260 q 300 -278 311 -272 z "},"Ḹ":{"ha":728,"x_min":83,"x_max":675,"o":"m 243 1086 q 150 1125 186 1081 q 344 1210 107 1199 q 379 1204 358 1210 q 408 1200 400 1199 l 458 1194 q 522 1189 494 1190 q 565 1189 549 1188 q 604 1182 590 1189 q 636 1165 618 1175 q 650 1153 646 1156 q 628 1103 675 1121 l 601 1094 q 547 1090 575 1092 q 488 1089 519 1088 q 413 1089 425 1092 q 313 1090 356 1092 q 243 1086 271 1089 m 378 -81 q 153 1 242 -81 q 101 62 119 31 q 83 129 83 93 q 83 142 83 136 q 85 151 83 149 q 109 284 96 224 q 136 393 122 344 q 179 541 151 449 q 246 764 207 633 q 268 842 254 796 q 300 950 282 889 q 328 995 310 982 q 381 1006 346 1008 q 388 1006 383 1006 q 394 1004 392 1006 q 401 1003 397 1003 q 408 1003 406 1003 q 497 917 497 997 q 492 875 497 893 q 475 822 486 853 q 449 751 464 790 q 345 461 390 604 q 268 181 300 318 q 260 108 260 146 q 322 39 260 39 q 342 40 338 39 q 401 51 361 43 q 503 72 442 60 l 614 96 q 645 63 632 78 q 658 39 658 49 q 647 15 658 26 q 630 1 642 10 q 600 -22 618 -8 q 592 -32 597 -24 q 581 -40 585 -39 l 542 -51 q 455 -73 493 -65 q 378 -81 417 -81 m 300 -278 q 274 -271 289 -282 q 249 -238 258 -260 q 249 -191 240 -217 q 294 -140 257 -165 q 335 -128 314 -125 q 379 -146 357 -131 q 403 -187 400 -161 q 378 -229 403 -212 q 346 -251 369 -233 q 323 -266 335 -260 q 300 -278 311 -272 z "},"Ḻ":{"ha":728,"x_min":64,"x_max":658,"o":"m 378 -81 q 153 1 242 -81 q 101 62 119 31 q 83 129 83 93 q 83 142 83 136 q 85 151 83 149 q 109 284 96 224 q 136 393 122 344 q 179 541 151 449 q 246 764 207 633 q 268 842 254 796 q 300 950 282 889 q 328 995 310 982 q 381 1006 346 1008 q 388 1006 383 1006 q 394 1004 392 1006 q 401 1003 397 1003 q 408 1003 406 1003 q 497 917 497 997 q 492 875 497 893 q 475 822 486 853 q 449 751 464 790 q 345 461 390 604 q 268 181 300 318 q 260 108 260 146 q 322 39 260 39 q 342 40 338 39 q 401 51 361 43 q 503 72 442 60 l 614 96 q 645 63 632 78 q 658 39 658 49 q 647 15 658 26 q 630 1 642 10 q 600 -22 618 -8 q 592 -32 597 -24 q 581 -40 585 -39 l 542 -51 q 455 -73 493 -65 q 378 -81 417 -81 m 200 -279 q 107 -240 143 -285 q 301 -156 64 -167 q 336 -161 315 -156 q 365 -165 357 -167 l 415 -171 q 478 -176 451 -175 q 522 -176 506 -178 q 561 -183 547 -176 q 593 -200 575 -190 q 607 -212 603 -210 q 585 -262 632 -244 l 558 -271 q 504 -276 532 -274 q 444 -276 476 -278 q 369 -276 382 -274 q 270 -275 313 -274 q 200 -279 228 -276 z "},"Ł":{"ha":756,"x_min":71,"x_max":742,"o":"m 85 442 q 179 547 124 525 l 286 593 q 313 681 299 633 q 343 782 326 728 q 365 857 351 813 q 396 961 378 901 q 423 1006 406 993 q 474 1015 440 1018 q 481 1015 476 1015 q 488 1014 485 1015 q 500 1013 492 1013 q 586 929 586 1006 q 581 889 586 907 q 539 769 569 843 q 501 671 519 719 l 697 719 q 701 699 700 710 q 700 676 701 688 q 672 630 697 651 q 609 590 647 608 q 529 558 571 572 q 454 535 488 544 q 365 218 400 372 q 357 149 357 185 q 417 81 357 81 q 436 82 432 81 q 494 93 456 85 q 592 114 532 101 l 699 136 q 729 104 717 118 q 742 81 742 90 q 731 58 742 69 q 686 22 719 47 q 678 13 683 21 q 667 4 671 6 l 629 -6 q 545 -26 582 -18 q 471 -35 508 -35 q 253 44 339 -35 q 203 103 221 74 q 186 168 186 133 q 186 181 186 175 q 188 190 186 188 q 238 424 211 328 q 251 475 244 447 q 193 454 224 465 q 85 442 71 411 z "},"M":{"ha":1389,"x_min":83,"x_max":1303,"o":"m 1196 28 q 1171 32 1188 28 q 1076 139 1082 50 q 1075 169 1075 150 q 1075 213 1075 188 q 1076 278 1075 239 q 1078 369 1076 317 l 1079 446 l 1082 556 q 1019 469 1071 546 q 856 185 969 394 q 797 117 829 117 q 754 132 782 117 q 663 258 679 178 q 633 384 649 319 q 597 515 617 449 q 581 558 593 532 q 559 607 569 583 q 544 638 549 631 l 526 674 q 251 179 325 406 q 225 113 236 129 q 196 92 213 92 q 121 139 168 92 q 83 214 83 172 q 92 258 83 236 q 165 426 121 344 q 265 585 208 508 l 308 642 q 385 744 353 699 q 440 822 418 790 q 529 871 474 871 q 542 870 535 871 q 561 868 550 869 q 629 763 576 865 q 688 644 656 711 q 758 494 719 576 l 803 401 q 857 476 832 433 q 919 590 882 518 q 956 658 942 631 q 979 696 971 685 q 1049 801 1013 747 q 1124 911 1085 854 q 1158 932 1135 926 q 1172 933 1161 933 q 1221 920 1194 933 q 1269 888 1247 907 q 1300 849 1292 868 q 1303 828 1303 840 q 1301 807 1303 811 q 1289 732 1296 782 q 1251 435 1267 563 q 1225 224 1235 308 q 1221 182 1222 204 q 1219 136 1219 160 l 1217 92 q 1215 77 1215 85 q 1215 60 1215 69 q 1196 28 1215 43 z "},"Ṁ":{"ha":1389,"x_min":83,"x_max":1303,"o":"m 896 950 q 827 912 864 913 q 733 954 790 911 q 731 1011 721 985 q 758 1051 739 1039 q 831 1061 776 1063 l 888 1040 q 896 950 913 1003 m 1196 28 q 1171 32 1188 28 q 1076 139 1082 50 q 1075 169 1075 150 q 1075 213 1075 188 q 1076 278 1075 239 q 1078 369 1076 317 l 1079 446 l 1082 556 q 1019 469 1071 546 q 856 185 969 394 q 797 117 829 117 q 754 132 782 117 q 663 258 679 178 q 633 384 649 319 q 597 515 617 449 q 581 558 593 532 q 559 607 569 583 q 544 638 549 631 l 526 674 q 251 179 325 406 q 225 113 236 129 q 196 92 213 92 q 121 139 168 92 q 83 214 83 172 q 92 258 83 236 q 165 426 121 344 q 265 585 208 508 l 308 642 q 385 744 353 699 q 440 822 418 790 q 529 871 474 871 q 542 870 535 871 q 561 868 550 869 q 629 763 576 865 q 688 644 656 711 q 758 494 719 576 l 803 401 q 857 476 832 433 q 919 590 882 518 q 956 658 942 631 q 979 696 971 685 q 1049 801 1013 747 q 1124 911 1085 854 q 1158 932 1135 926 q 1172 933 1161 933 q 1221 920 1194 933 q 1269 888 1247 907 q 1300 849 1292 868 q 1303 828 1303 840 q 1301 807 1303 811 q 1289 732 1296 782 q 1251 435 1267 563 q 1225 224 1235 308 q 1221 182 1222 204 q 1219 136 1219 160 l 1217 92 q 1215 77 1215 85 q 1215 60 1215 69 q 1196 28 1215 43 z "},"Ṃ":{"ha":1389,"x_min":83,"x_max":1303,"o":"m 1196 28 q 1171 32 1188 28 q 1076 139 1082 50 q 1075 169 1075 150 q 1075 213 1075 188 q 1076 278 1075 239 q 1078 369 1076 317 l 1079 446 l 1082 556 q 1019 469 1071 546 q 856 185 969 394 q 797 117 829 117 q 754 132 782 117 q 663 258 679 178 q 633 384 649 319 q 597 515 617 449 q 581 558 593 532 q 559 607 569 583 q 544 638 549 631 l 526 674 q 251 179 325 406 q 225 113 236 129 q 196 92 213 92 q 121 139 168 92 q 83 214 83 172 q 92 258 83 236 q 165 426 121 344 q 265 585 208 508 l 308 642 q 385 744 353 699 q 440 822 418 790 q 529 871 474 871 q 542 870 535 871 q 561 868 550 869 q 629 763 576 865 q 688 644 656 711 q 758 494 719 576 l 803 401 q 857 476 832 433 q 919 590 882 518 q 956 658 942 631 q 979 696 971 685 q 1049 801 1013 747 q 1124 911 1085 854 q 1158 932 1135 926 q 1172 933 1161 933 q 1221 920 1194 933 q 1269 888 1247 907 q 1300 849 1292 868 q 1303 828 1303 840 q 1301 807 1303 811 q 1289 732 1296 782 q 1251 435 1267 563 q 1225 224 1235 308 q 1221 182 1222 204 q 1219 136 1219 160 l 1217 92 q 1215 77 1215 85 q 1215 60 1215 69 q 1196 28 1215 43 m 710 -258 q 678 -251 697 -264 q 650 -213 660 -239 q 650 -157 640 -187 q 703 -97 660 -126 q 750 -83 728 -82 q 801 -104 774 -85 q 829 -153 826 -122 q 800 -201 832 -182 q 785 -211 794 -204 q 763 -228 776 -218 q 735 -245 749 -237 q 710 -258 722 -253 z "},"N":{"ha":999,"x_min":83,"x_max":978,"o":"m 182 -87 q 149 -84 168 -90 q 113 -65 129 -78 q 93 -39 97 -53 q 83 28 83 -4 q 90 72 83 51 q 107 182 103 108 q 115 250 111 226 q 139 406 125 315 q 172 613 153 497 q 175 627 174 619 q 179 644 176 635 q 182 678 183 665 q 191 778 176 729 q 243 867 206 826 q 368 863 306 919 q 389 842 379 853 q 408 818 399 831 q 424 791 417 804 q 436 771 431 778 l 601 540 q 639 492 621 517 q 675 442 657 468 l 699 519 q 776 769 746 674 q 821 901 807 865 q 950 932 849 975 q 969 875 978 908 q 956 830 964 849 q 942 797 949 811 q 902 681 919 739 q 869 556 885 624 q 833 396 853 488 q 828 373 832 386 q 822 340 825 360 q 778 256 811 283 q 688 225 744 228 q 589 271 631 221 q 540 332 567 297 q 482 410 514 367 l 453 449 q 406 513 435 475 q 336 600 376 550 l 324 539 q 307 447 314 488 q 297 378 300 407 l 289 204 q 288 173 288 190 q 286 133 288 156 q 284 85 285 111 q 281 31 283 60 q 251 -44 279 -12 q 182 -87 224 -76 z "},"Ń":{"ha":711,"x_min":83,"x_max":697,"o":"m 343 989 q 318 1006 331 996 q 340 1046 332 1040 q 352 1056 343 1049 q 375 1072 361 1063 q 506 1208 435 1117 q 567 1249 524 1231 q 597 1249 582 1256 q 626 1217 618 1242 q 624 1144 636 1182 q 586 1096 613 1113 q 485 1035 526 1060 q 419 997 443 1011 q 343 989 378 975 m 378 -81 q 153 1 242 -81 q 101 62 119 31 q 83 129 83 93 q 83 142 83 136 q 85 151 83 149 q 109 284 96 224 q 136 393 122 344 q 228 713 149 454 q 250 791 236 744 q 282 899 264 838 q 310 944 292 931 q 363 954 328 957 q 369 954 365 954 q 376 953 374 954 q 383 951 379 951 q 390 951 388 951 q 479 865 479 946 q 474 824 479 842 q 457 770 468 801 q 431 700 446 739 q 268 181 314 406 q 260 108 260 146 q 322 39 260 39 q 342 40 338 39 l 653 107 q 684 74 671 89 q 697 50 697 60 q 686 26 697 38 q 669 12 681 21 q 639 -11 657 3 q 631 -21 636 -12 q 619 -29 624 -28 l 581 -40 q 474 -67 532 -54 q 378 -81 417 -81 z "},"Ň":{"ha":1100,"x_min":83,"x_max":1014,"o":"m 436 864 q 350 928 383 864 q 326 980 336 956 q 308 1022 315 1004 q 306 1031 307 1028 q 306 1036 306 1035 q 319 1061 306 1051 q 354 1071 332 1071 q 403 1050 381 1071 l 428 1024 q 438 1013 431 1021 q 456 994 444 1006 q 506 1042 485 1022 q 538 1076 526 1063 q 617 1113 572 1108 q 667 1099 644 1113 q 686 1068 686 1088 q 671 1038 686 1050 q 583 960 625 996 q 503 892 542 924 l 436 864 m 126 -26 q 108 -28 121 -31 q 83 -24 94 -26 q 109 220 97 101 q 129 456 121 339 q 133 583 131 521 q 113 706 136 646 q 105 782 93 750 q 147 832 117 814 q 208 854 176 850 q 292 840 257 861 q 343 769 328 819 q 434 580 386 672 q 521 400 482 488 q 551 344 532 379 q 595 274 571 310 q 642 210 619 238 q 683 179 665 183 q 694 309 690 236 q 708 436 697 382 q 737 633 725 535 q 771 829 749 731 q 781 874 771 853 q 796 915 792 896 q 835 969 811 953 q 892 997 858 986 q 959 974 933 1000 q 998 913 985 947 q 1014 853 1011 878 q 941 829 960 842 q 915 789 922 817 l 893 686 q 867 455 888 568 q 831 224 846 342 q 826 163 832 197 q 814 97 821 129 q 747 -1 792 26 q 631 -4 701 -28 q 546 63 578 19 q 486 151 514 106 q 383 349 435 249 q 299 560 332 449 l 288 590 q 281 508 286 551 q 267 418 276 464 q 249 226 260 328 q 229 33 238 124 q 195 -21 222 -1 q 126 -26 168 -40 z "},"Ņ":{"ha":1100,"x_min":83,"x_max":1014,"o":"m 126 -26 q 108 -28 121 -31 q 83 -24 94 -26 q 109 220 97 101 q 129 456 121 339 q 133 583 131 521 q 113 706 136 646 q 105 782 93 750 q 147 832 117 814 q 208 854 176 850 q 292 840 257 861 q 343 769 328 819 q 434 580 386 672 q 521 400 482 488 q 551 344 532 379 q 595 274 571 310 q 642 210 619 238 q 683 179 665 183 q 694 309 690 236 q 708 436 697 382 q 737 633 725 535 q 771 829 749 731 q 781 874 771 853 q 796 915 792 896 q 835 969 811 953 q 892 997 858 986 q 959 974 933 1000 q 998 913 985 947 q 1014 853 1011 878 q 941 829 960 842 q 915 789 922 817 l 893 686 q 867 455 888 568 q 831 224 846 342 q 826 163 832 197 q 814 97 821 129 q 747 -1 792 26 q 631 -4 701 -28 q 546 63 578 19 q 486 151 514 106 q 383 349 435 249 q 299 560 332 449 l 288 590 q 281 508 286 551 q 267 418 276 464 q 249 226 260 328 q 229 33 238 124 q 195 -21 222 -1 q 126 -26 168 -40 m 368 -261 q 354 -114 289 -247 q 367 -96 356 -111 q 395 -60 379 -81 q 428 -23 411 -40 q 454 0 444 -6 q 468 11 468 8 q 482 17 468 13 q 491 18 488 18 q 496 18 494 18 q 533 -19 533 18 q 533 -25 533 -21 q 532 -36 533 -29 q 503 -99 522 -67 q 474 -149 493 -115 q 429 -231 456 -182 l 368 -261 z "},"Ṅ":{"ha":999,"x_min":83,"x_max":978,"o":"m 613 1083 q 544 1045 581 1046 q 450 1088 507 1044 q 447 1144 438 1118 q 474 1184 456 1172 q 547 1194 493 1196 l 604 1174 q 613 1083 629 1136 m 182 -87 q 149 -84 168 -90 q 113 -65 129 -78 q 93 -39 97 -53 q 83 28 83 -4 q 90 72 83 51 q 107 182 103 108 q 115 250 111 226 q 139 406 125 315 q 172 613 153 497 q 175 627 174 619 q 179 644 176 635 q 182 678 183 665 q 191 778 176 729 q 243 867 206 826 q 368 863 306 919 q 389 842 379 853 q 408 818 399 831 q 424 791 417 804 q 436 771 431 778 l 601 540 q 639 492 621 517 q 675 442 657 468 l 699 519 q 776 769 746 674 q 821 901 807 865 q 950 932 849 975 q 969 875 978 908 q 956 830 964 849 q 942 797 949 811 q 902 681 919 739 q 869 556 885 624 q 833 396 853 488 q 828 373 832 386 q 822 340 825 360 q 778 256 811 283 q 688 225 744 228 q 589 271 631 221 q 540 332 567 297 q 482 410 514 367 l 453 449 q 406 513 435 475 q 336 600 376 550 l 324 539 q 307 447 314 488 q 297 378 300 407 l 289 204 q 288 173 288 190 q 286 133 288 156 q 284 85 285 111 q 281 31 283 60 q 251 -44 279 -12 q 182 -87 224 -76 z "},"Ṇ":{"ha":999,"x_min":83,"x_max":978,"o":"m 182 -87 q 149 -84 168 -90 q 113 -65 129 -78 q 93 -39 97 -53 q 83 28 83 -4 q 90 72 83 51 q 107 182 103 108 q 115 250 111 226 q 139 406 125 315 q 172 613 153 497 q 175 627 174 619 q 179 644 176 635 q 182 678 183 665 q 191 778 176 729 q 243 867 206 826 q 368 863 306 919 q 389 842 379 853 q 408 818 399 831 q 424 791 417 804 q 436 771 431 778 l 601 540 q 639 492 621 517 q 675 442 657 468 l 699 519 q 776 769 746 674 q 821 901 807 865 q 950 932 849 975 q 969 875 978 908 q 956 830 964 849 q 942 797 949 811 q 902 681 919 739 q 869 556 885 624 q 833 396 853 488 q 828 373 832 386 q 822 340 825 360 q 778 256 811 283 q 688 225 744 228 q 589 271 631 221 q 540 332 567 297 q 482 410 514 367 l 453 449 q 406 513 435 475 q 336 600 376 550 l 324 539 q 307 447 314 488 q 297 378 300 407 l 289 204 q 288 173 288 190 q 286 133 288 156 q 284 85 285 111 q 281 31 283 60 q 251 -44 279 -12 q 182 -87 224 -76 m 557 -217 q 526 -210 544 -222 q 497 -172 507 -197 q 497 -115 488 -146 q 550 -56 507 -85 q 597 -42 575 -40 q 649 -62 621 -43 q 676 -111 674 -81 q 647 -160 679 -140 q 633 -169 642 -162 q 610 -186 624 -176 q 583 -203 596 -196 q 557 -217 569 -211 z "},"Ɲ":{"ha":1340,"x_min":83,"x_max":1319,"o":"m 83 -112 q 139 -60 113 -60 q 194 -92 165 -60 q 256 -206 222 -124 q 304 -210 268 -217 q 344 -183 326 -201 q 358 -137 361 -165 q 372 56 365 -40 q 389 250 379 153 q 411 406 396 315 q 446 613 426 497 q 449 627 447 619 q 453 644 450 635 q 456 678 457 665 q 465 778 450 729 q 517 867 479 826 q 642 863 579 919 q 685 813 671 836 q 710 771 699 790 l 928 456 q 965 408 947 432 q 1001 357 983 383 l 1025 435 q 1115 728 1081 618 q 1164 876 1150 839 q 1292 907 1192 950 q 1311 850 1319 883 q 1298 805 1306 824 q 1283 772 1290 786 q 1219 566 1250 685 q 1160 311 1189 447 q 1155 288 1158 301 q 1149 256 1151 275 q 1104 171 1138 199 q 1014 140 1071 143 q 915 186 957 136 q 857 272 897 215 q 756 410 817 328 l 726 449 q 679 513 708 475 q 610 600 650 550 l 597 539 q 581 447 588 488 q 571 378 574 407 l 526 -99 q 508 -215 521 -168 q 479 -289 494 -262 q 453 -322 467 -312 q 364 -361 439 -333 q 244 -346 281 -365 q 171 -299 208 -333 q 108 -216 133 -265 q 83 -112 83 -167 z "},"Ṉ":{"ha":999,"x_min":83,"x_max":978,"o":"m 182 -87 q 149 -84 168 -90 q 113 -65 129 -78 q 93 -39 97 -53 q 83 28 83 -4 q 90 72 83 51 q 107 182 103 108 q 115 250 111 226 q 139 406 125 315 q 172 613 153 497 q 175 627 174 619 q 179 644 176 635 q 182 678 183 665 q 191 778 176 729 q 243 867 206 826 q 368 863 306 919 q 389 842 379 853 q 408 818 399 831 q 424 791 417 804 q 436 771 431 778 l 601 540 q 639 492 621 517 q 675 442 657 468 l 699 519 q 776 769 746 674 q 821 901 807 865 q 950 932 849 975 q 969 875 978 908 q 956 830 964 849 q 942 797 949 811 q 902 681 919 739 q 869 556 885 624 q 833 396 853 488 q 828 373 832 386 q 822 340 825 360 q 778 256 811 283 q 688 225 744 228 q 589 271 631 221 q 540 332 567 297 q 482 410 514 367 l 453 449 q 406 513 435 475 q 336 600 376 550 l 324 539 q 307 447 314 488 q 297 378 300 407 l 289 204 q 288 173 288 190 q 286 133 288 156 q 284 85 285 111 q 281 31 283 60 q 251 -44 279 -12 q 182 -87 224 -76 m 433 -212 q 340 -174 376 -218 q 535 -89 297 -100 q 569 -94 549 -89 q 599 -99 590 -100 l 649 -104 q 712 -110 685 -108 q 756 -110 739 -111 q 794 -117 781 -110 q 826 -133 808 -124 q 840 -146 836 -143 q 818 -196 865 -178 l 792 -204 q 738 -209 765 -207 q 678 -210 710 -211 q 603 -210 615 -207 q 503 -208 546 -207 q 433 -212 461 -210 z "},"Ñ":{"ha":943,"x_min":79,"x_max":860,"o":"m 222 863 q 199 868 211 863 q 175 887 188 874 q 155 915 163 900 q 149 938 147 929 q 285 1133 172 1083 q 369 1158 317 1158 q 590 1083 468 1144 q 679 1150 632 1063 q 746 1244 725 1239 q 785 1249 761 1249 q 832 1233 808 1249 q 857 1188 860 1229 q 832 1099 856 1144 q 766 1007 803 1039 q 671 958 729 975 q 378 1022 615 940 q 300 926 300 985 q 222 863 300 851 m 144 -99 q 115 -90 132 -99 q 89 -61 99 -82 q 86 -4 79 -40 q 165 607 143 269 q 189 660 168 636 q 238 699 210 685 q 288 714 265 714 l 296 714 q 380 685 349 706 q 428 628 411 665 q 549 342 456 546 l 588 299 l 590 351 l 646 694 q 654 748 650 722 q 664 797 658 774 q 685 844 669 826 q 728 861 700 861 q 789 838 768 861 q 803 776 806 815 l 794 681 q 786 600 790 633 q 779 547 782 567 q 733 135 757 313 q 717 88 732 113 q 685 58 703 64 q 643 50 660 50 q 542 106 579 50 q 492 183 522 132 q 419 307 461 233 q 382 362 413 318 q 297 481 351 406 l 282 333 q 267 235 276 301 q 243 67 257 168 l 232 -17 q 206 -80 226 -61 q 144 -99 186 -99 z "},"Ŋ":{"ha":1100,"x_min":83,"x_max":1014,"o":"m 126 -26 q 108 -28 121 -31 q 83 -24 94 -26 q 109 220 97 101 q 129 456 121 339 q 133 583 131 521 q 113 706 136 646 q 105 782 93 750 q 147 832 117 814 q 208 854 176 850 q 292 840 257 861 q 343 769 328 819 q 434 580 386 672 q 521 400 482 488 q 551 344 532 379 q 595 274 571 310 q 642 210 619 238 q 683 179 665 183 q 694 309 690 236 q 708 436 697 382 q 737 633 725 535 q 771 829 749 731 q 781 874 771 853 q 796 915 792 896 q 835 969 811 953 q 892 997 858 986 q 954 987 932 1000 q 983 938 976 974 q 1005 895 997 918 q 1014 853 1013 872 q 941 829 960 842 q 915 789 922 817 l 893 686 q 867 455 888 568 q 831 224 846 342 q 826 163 832 197 q 814 97 821 129 q 801 57 808 75 q 807 60 808 67 q 796 22 801 44 q 783 -28 790 0 q 772 -72 776 -56 q 765 -92 767 -89 q 660 -207 740 -169 q 561 -226 628 -232 q 542 -136 499 -187 l 657 -87 q 685 -17 675 -65 q 631 -4 661 -14 q 546 63 578 19 q 486 151 514 106 q 383 349 435 249 q 299 560 332 449 q 288 574 294 567 q 265 590 281 582 q 259 508 264 551 q 244 418 254 464 q 223 239 238 328 q 200 60 208 150 q 172 6 193 25 q 126 -26 151 -12 z "},"O":{"ha":1133,"x_min":69,"x_max":1064,"o":"m 449 0 q 368 8 408 0 q 212 76 279 28 q 107 192 144 124 q 69 338 69 260 q 122 517 69 426 q 135 532 125 526 q 144 538 140 535 q 150 543 147 542 l 186 528 l 219 511 q 281 470 267 486 q 296 425 296 454 q 292 369 296 406 q 290 353 290 363 q 290 331 290 343 q 294 272 290 304 q 304 200 297 239 q 364 154 311 154 q 383 156 379 154 q 507 187 456 169 q 600 239 558 204 q 733 362 676 303 q 833 488 790 421 q 863 579 863 536 q 845 651 863 615 q 796 731 828 686 q 657 801 742 801 q 593 792 624 801 q 564 783 588 790 q 496 761 540 775 q 486 758 490 760 q 476 756 482 757 q 466 753 471 754 q 456 750 461 751 l 281 701 q 238 689 264 696 q 176 674 213 682 l 161 686 q 347 854 222 782 q 578 911 446 911 q 759 881 672 911 q 903 796 846 851 q 924 778 914 786 q 946 760 935 769 q 974 736 964 746 q 988 724 985 726 q 1064 551 1064 646 q 1015 401 1064 479 q 882 224 951 300 q 726 93 813 147 q 449 0 583 0 z "},"Ó":{"ha":857,"x_min":68,"x_max":788,"o":"m 344 910 q 278 939 314 910 q 244 997 244 967 q 274 1049 244 1024 q 349 1109 306 1076 q 449 1181 393 1142 q 481 1197 461 1190 q 496 1201 490 1200 q 503 1204 501 1203 l 533 1215 l 563 1199 q 588 1175 581 1189 q 597 1140 597 1161 q 582 1094 597 1118 q 567 1076 575 1082 q 552 1064 558 1069 q 543 1054 546 1058 q 400 932 440 961 q 344 910 374 910 m 410 8 q 385 14 406 10 q 338 26 364 18 q 289 44 311 33 q 124 192 172 94 q 69 417 75 290 q 111 652 68 556 q 240 824 154 749 q 372 878 303 878 q 464 856 421 878 q 683 681 600 789 q 785 421 767 572 q 787 398 786 411 q 788 367 788 385 q 743 167 788 267 q 681 85 721 118 q 593 35 642 53 q 497 10 544 17 q 410 8 449 4 m 575 211 q 671 444 653 285 q 624 599 671 525 q 488 733 576 674 q 403 713 468 721 q 353 703 376 708 q 324 692 331 699 q 239 563 269 642 q 208 400 208 483 q 224 293 208 347 q 272 213 235 257 q 336 160 297 182 q 433 147 375 139 q 575 211 492 154 z "},"Ŏ":{"ha":857,"x_min":68,"x_max":788,"o":"m 468 972 q 378 985 417 967 q 310 1024 340 1004 l 232 1103 q 228 1126 224 1108 q 247 1156 233 1143 q 275 1156 261 1168 q 307 1128 292 1142 q 336 1100 322 1114 q 406 1072 364 1072 q 420 1072 414 1072 q 431 1074 426 1072 q 496 1113 474 1093 q 531 1158 518 1132 q 549 1181 542 1175 q 568 1188 556 1188 q 616 1172 603 1188 q 629 1125 629 1156 q 599 1050 629 1082 q 533 992 565 1010 q 468 972 501 975 m 410 8 q 385 14 406 10 q 338 26 364 18 q 289 44 311 33 q 124 192 172 94 q 69 417 75 290 q 111 652 68 556 q 240 824 154 749 q 372 878 303 878 q 464 856 421 878 q 683 681 600 789 q 785 421 767 572 q 787 398 786 411 q 788 367 788 385 q 743 167 788 267 q 681 85 721 118 q 593 35 642 53 q 497 10 544 17 q 410 8 449 4 m 564 211 q 660 444 642 285 q 613 599 660 525 q 476 733 565 674 q 392 713 457 721 q 342 703 365 708 q 313 692 319 699 q 228 563 258 642 q 197 400 197 483 q 213 293 197 347 q 261 213 224 257 q 325 160 286 182 q 422 147 364 139 q 564 211 481 154 z "},"Ǒ":{"ha":1040,"x_min":69,"x_max":971,"o":"m 418 967 q 319 1039 357 967 q 292 1098 304 1071 q 272 1147 281 1125 q 270 1157 271 1153 q 269 1163 269 1161 q 285 1192 269 1181 q 325 1203 300 1203 q 381 1179 353 1203 l 408 1097 q 419 1085 411 1093 q 440 1064 428 1076 q 497 1119 474 1096 q 535 1157 521 1143 q 576 1199 554 1176 q 625 1250 599 1222 q 682 1235 654 1250 q 704 1199 704 1222 q 688 1164 704 1179 q 587 1075 635 1117 q 494 997 539 1033 q 418 967 460 967 m 413 -15 q 340 -7 376 -15 q 199 56 260 11 q 103 166 138 101 q 69 304 69 231 q 117 474 69 389 q 128 488 119 481 q 143 499 138 494 l 175 483 l 206 468 q 262 429 249 444 q 275 386 275 414 q 271 333 275 367 q 269 318 269 328 q 269 297 269 308 q 282 174 269 247 q 336 131 289 131 q 347 131 342 131 q 354 132 351 131 q 466 161 419 144 q 550 211 513 178 q 671 326 619 271 q 761 446 722 382 q 788 532 788 489 q 772 600 788 567 q 728 675 757 633 q 601 742 681 742 q 544 733 574 742 q 456 704 536 732 q 438 699 447 701 q 419 693 429 696 l 261 647 q 222 637 246 643 q 167 621 199 631 l 153 633 q 321 792 207 724 q 531 846 411 846 q 694 817 615 846 q 825 738 774 789 q 864 703 843 719 q 889 680 879 689 q 901 668 899 671 q 971 506 971 594 q 926 364 971 438 q 806 196 868 268 q 665 72 743 124 q 413 -15 535 -15 z "},"Ô":{"ha":797,"x_min":69,"x_max":728,"o":"m 574 897 q 506 926 535 897 q 451 985 479 954 q 433 1003 443 992 q 413 1028 424 1014 l 383 1061 l 375 1071 l 367 1061 l 336 1025 q 308 990 321 1006 q 285 963 296 974 q 206 931 253 931 q 194 931 201 931 q 178 933 188 932 q 133 963 142 940 q 132 974 132 965 q 146 1008 132 994 q 212 1083 181 1049 q 269 1143 243 1117 q 365 1190 318 1190 q 478 1133 417 1190 q 526 1079 503 1110 q 567 1025 550 1049 q 586 996 583 1001 l 624 943 q 628 919 632 931 q 601 900 621 907 q 585 898 592 899 q 574 897 578 897 m 449 3 q 417 4 433 3 q 385 8 400 6 q 203 121 272 25 q 100 347 115 242 q 91 409 97 369 q 78 504 85 449 l 69 561 l 72 561 l 72 600 q 72 634 72 619 q 74 658 72 649 q 122 736 78 721 q 182 772 160 747 q 226 840 204 796 q 269 896 246 879 q 326 913 292 913 q 378 907 354 913 q 582 794 503 878 q 690 625 653 719 q 728 429 728 531 q 694 238 728 331 q 594 67 660 144 q 449 3 540 3 m 408 132 l 414 136 q 564 418 544 228 q 566 442 565 428 q 567 475 567 457 q 469 751 567 633 q 378 806 424 806 q 285 754 335 806 l 264 731 l 253 717 l 250 713 l 250 657 q 251 633 251 647 q 251 600 251 619 q 251 566 251 581 q 249 542 250 551 q 247 510 247 524 q 246 489 246 497 q 300 242 246 371 q 338 176 318 201 q 401 135 358 150 l 408 132 z "},"Ố":{"ha":1026,"x_min":69,"x_max":971,"o":"m 365 1126 q 355 1133 360 1129 q 347 1142 350 1136 q 365 1173 360 1168 q 393 1188 369 1178 q 544 1292 486 1226 q 565 1306 553 1299 q 594 1318 578 1313 q 617 1315 604 1322 q 629 1306 624 1314 q 638 1289 635 1299 q 629 1236 642 1263 q 597 1203 619 1214 q 506 1161 550 1179 q 422 1129 463 1143 q 365 1126 388 1117 m 715 851 q 698 854 707 851 q 685 863 689 857 q 550 993 597 939 l 536 1010 q 403 897 535 1013 q 364 869 385 881 q 338 886 343 869 q 333 915 333 903 q 339 931 333 925 q 376 980 356 954 q 422 1036 397 1006 q 461 1079 439 1057 q 480 1097 472 1089 q 492 1110 488 1104 q 531 1124 506 1124 q 567 1110 553 1124 l 608 1060 q 632 1031 622 1043 q 649 1010 642 1018 q 736 914 697 954 q 747 903 739 910 q 754 890 754 896 q 715 851 744 851 m 413 -22 q 340 -14 376 -22 q 199 49 260 4 q 103 159 138 94 q 69 297 69 224 q 117 467 69 382 q 128 481 119 474 q 143 492 138 488 l 175 476 l 206 461 q 262 422 249 438 q 275 379 275 407 q 271 326 275 360 q 269 311 269 321 q 269 290 269 301 q 282 167 269 240 q 336 124 289 124 q 347 124 342 124 q 354 125 351 124 q 466 154 419 138 q 550 204 513 171 q 671 319 619 264 q 761 439 722 375 q 788 525 788 482 q 772 593 788 560 q 728 668 757 626 q 601 735 681 735 q 544 726 574 735 q 456 697 536 725 q 438 692 447 694 q 419 686 429 689 l 261 640 q 222 630 246 636 q 167 614 199 624 l 153 626 q 321 785 207 717 q 531 839 411 839 q 694 810 615 839 q 825 731 774 782 q 864 696 843 713 q 889 673 879 682 q 901 661 899 664 q 971 499 971 588 q 926 357 971 431 q 806 189 868 261 q 665 65 743 117 q 413 -22 535 -22 z "},"Ộ":{"ha":1026,"x_min":69,"x_max":971,"o":"m 708 878 q 678 890 688 878 q 601 972 635 935 q 543 1039 567 1008 q 534 1053 538 1047 q 529 1060 531 1058 q 396 931 528 1063 q 357 899 378 913 q 331 917 336 899 q 326 950 326 936 q 332 968 326 961 q 415 1089 365 1021 q 433 1113 424 1100 q 454 1138 443 1125 q 485 1172 476 1160 q 524 1189 500 1189 q 560 1172 546 1189 q 574 1153 564 1167 q 601 1115 585 1139 q 625 1083 615 1097 q 642 1058 635 1068 q 688 999 665 1026 q 729 949 710 972 q 740 938 732 944 q 747 922 747 928 q 708 878 736 878 m 413 -15 q 340 -7 376 -15 q 199 56 260 11 q 103 166 138 101 q 69 304 69 231 q 117 474 69 389 q 128 488 119 481 q 143 499 138 494 l 175 483 l 206 468 q 262 429 249 444 q 275 386 275 414 q 271 333 275 367 q 269 318 269 328 q 269 297 269 308 q 282 174 269 247 q 336 131 289 131 q 347 131 342 131 q 354 132 351 131 q 466 161 419 144 q 550 211 513 178 q 671 326 619 271 q 761 446 722 382 q 788 532 788 489 q 772 600 788 567 q 728 675 757 633 q 601 742 681 742 q 544 733 574 742 q 456 704 536 732 q 438 699 447 701 q 419 693 429 696 l 261 647 q 222 635 246 642 q 167 621 199 629 l 153 633 q 321 792 207 724 q 531 846 411 846 q 694 817 615 846 q 825 738 774 789 q 864 703 843 719 q 889 680 879 689 q 901 668 899 671 q 971 506 971 594 q 926 364 971 438 q 806 196 868 268 q 665 72 743 124 q 413 -15 535 -15 m 469 -240 q 438 -233 457 -246 q 410 -195 419 -221 q 410 -139 400 -169 q 463 -79 419 -108 q 510 -65 488 -64 q 561 -86 533 -67 q 589 -135 586 -104 q 560 -183 592 -164 q 545 -193 554 -186 q 522 -210 536 -200 q 495 -227 508 -219 q 469 -240 482 -235 z "},"Ồ":{"ha":1133,"x_min":69,"x_max":1064,"o":"m 793 1139 q 736 1146 768 1131 q 568 1235 656 1182 q 539 1271 550 1244 q 536 1325 529 1296 q 545 1340 539 1333 q 558 1349 551 1347 q 582 1349 571 1356 q 629 1318 617 1335 q 771 1201 682 1250 q 797 1185 793 1190 q 811 1151 801 1179 q 793 1139 806 1144 m 774 894 q 744 907 754 894 q 614 1050 660 990 q 601 1069 604 1063 q 472 946 599 1072 q 435 914 451 925 q 410 932 415 914 q 406 964 406 950 q 411 982 406 975 q 497 1086 442 1031 q 558 1151 550 1142 q 596 1168 574 1168 l 617 1168 q 629 1156 617 1168 q 658 1125 642 1143 q 690 1091 675 1107 q 710 1068 704 1075 q 754 1011 733 1038 q 793 963 775 985 q 804 951 796 958 q 811 938 811 944 q 774 894 801 894 m 449 -40 q 368 -32 408 -40 q 212 35 279 -12 q 107 151 144 83 q 69 297 69 219 q 122 476 69 386 q 135 492 125 486 q 144 498 140 494 q 150 503 147 501 l 186 488 l 219 471 q 281 430 267 446 q 296 385 296 414 q 292 329 296 365 q 290 313 290 322 q 290 290 290 303 q 294 231 290 264 q 304 160 297 199 q 364 114 311 114 q 383 115 379 114 q 507 147 456 129 q 600 199 558 164 q 733 322 676 263 q 833 447 790 381 q 863 539 863 496 q 845 610 863 575 q 796 690 828 646 q 657 761 742 761 q 593 751 624 761 q 564 742 588 750 q 496 721 540 735 q 486 718 490 719 q 476 715 482 717 q 466 713 471 714 q 456 710 461 711 l 281 661 q 238 649 264 656 q 176 633 213 642 l 161 646 q 347 814 222 742 q 578 871 446 871 q 759 841 672 871 q 903 756 846 811 q 924 738 914 746 q 946 719 935 729 q 974 696 964 706 q 988 683 985 686 q 1064 511 1064 606 q 1015 361 1064 439 q 882 183 951 260 q 726 53 813 107 q 449 -40 583 -40 z "},"Ổ":{"ha":1133,"x_min":69,"x_max":1064,"o":"m 543 1185 q 508 1239 508 1219 q 603 1315 508 1271 q 599 1358 617 1336 q 572 1382 590 1374 q 536 1386 554 1390 l 465 1381 q 460 1397 465 1381 q 457 1433 456 1413 q 475 1464 458 1453 q 530 1474 492 1474 q 607 1460 568 1475 q 622 1453 615 1457 q 633 1446 628 1449 q 671 1389 643 1440 q 674 1308 682 1332 q 633 1231 668 1268 q 543 1185 599 1194 m 824 928 q 796 939 804 928 q 675 1072 719 1017 q 663 1092 665 1085 q 542 975 661 1094 q 507 946 525 956 q 483 963 488 946 q 479 992 479 979 q 497 1029 479 1003 q 522 1065 506 1043 q 560 1118 538 1088 q 576 1140 567 1129 q 596 1161 586 1150 q 613 1180 606 1172 q 622 1193 619 1188 q 638 1204 628 1200 q 657 1208 647 1208 q 694 1196 678 1208 q 740 1142 710 1183 q 761 1111 751 1124 q 776 1090 771 1099 q 813 1041 799 1061 q 833 1010 826 1021 q 851 983 843 993 q 858 967 858 974 q 824 928 849 928 m 449 0 q 368 8 408 0 q 212 76 279 28 q 107 192 144 124 q 69 338 69 260 q 122 517 69 426 q 135 532 125 526 q 144 538 140 535 q 150 543 147 542 l 186 528 l 219 511 q 281 470 267 486 q 296 425 296 454 q 292 369 296 406 q 290 353 290 363 q 290 331 290 343 q 294 272 290 304 q 304 200 297 239 q 364 154 311 154 q 383 156 379 154 q 507 187 456 169 q 600 239 558 204 q 733 362 676 303 q 833 488 790 421 q 863 579 863 536 q 845 651 863 615 q 796 731 828 686 q 657 801 742 801 q 593 792 624 801 q 564 783 588 790 q 496 761 540 775 q 486 758 490 760 q 476 756 482 757 q 466 753 471 754 q 456 750 461 751 l 281 701 q 238 689 264 696 q 176 674 213 682 l 161 686 q 347 854 222 782 q 578 911 446 911 q 759 881 672 911 q 903 796 846 851 q 924 778 914 786 q 946 760 935 769 q 974 736 964 746 q 988 724 985 726 q 1064 551 1064 646 q 1015 401 1064 479 q 882 224 951 300 q 726 93 813 147 q 449 0 583 0 z "},"Ỗ":{"ha":1026,"x_min":69,"x_max":971,"o":"m 676 1114 q 561 1153 629 1108 q 552 1158 560 1154 q 531 1172 544 1163 q 458 1214 482 1204 q 433 1221 442 1221 q 407 1210 417 1221 q 393 1181 397 1199 q 369 1156 388 1156 q 350 1161 360 1156 q 333 1165 350 1161 q 301 1181 317 1169 q 283 1213 285 1192 q 293 1246 282 1232 q 338 1285 304 1260 q 388 1306 363 1306 q 429 1301 400 1306 q 463 1284 447 1294 q 497 1257 478 1274 q 553 1219 528 1232 q 618 1207 579 1207 q 642 1208 638 1207 q 702 1243 682 1225 q 735 1286 722 1261 q 750 1307 743 1301 q 768 1313 757 1313 q 813 1298 801 1313 q 825 1254 825 1283 q 797 1185 825 1217 q 737 1133 767 1149 q 676 1114 707 1117 m 725 814 q 694 826 704 814 q 617 908 651 871 q 560 975 583 944 q 551 989 554 983 q 546 996 547 994 q 413 867 544 999 q 374 835 394 849 q 348 853 353 835 q 343 886 343 872 q 349 904 343 897 q 432 1025 382 957 q 450 1049 440 1036 q 471 1074 460 1061 q 501 1108 493 1096 q 540 1125 517 1125 q 576 1108 563 1125 q 591 1089 581 1103 q 618 1051 601 1075 q 642 1019 632 1033 q 658 994 651 1004 q 704 935 682 963 q 746 885 726 908 q 757 874 749 881 q 764 858 764 864 q 725 814 753 814 m 413 -33 q 340 -25 376 -33 q 199 38 260 -7 q 103 148 138 83 q 69 286 69 213 q 117 456 69 371 q 128 469 119 463 q 143 481 138 476 l 175 465 l 206 450 q 262 411 249 426 q 275 368 275 396 q 271 315 275 349 q 269 300 269 310 q 269 279 269 290 q 282 156 269 229 q 336 113 289 113 q 347 113 342 113 q 354 114 351 113 q 466 143 419 126 q 550 193 513 160 q 671 308 619 253 q 761 428 722 364 q 788 514 788 471 q 772 582 788 549 q 728 657 757 615 q 601 724 681 724 q 544 715 574 724 q 456 686 536 714 q 438 681 447 683 q 419 675 429 678 l 261 629 q 222 619 246 625 q 167 603 199 613 l 153 615 q 321 774 207 706 q 531 828 411 828 q 694 799 615 828 q 825 719 774 771 q 864 685 843 701 q 889 662 879 671 q 901 650 899 653 q 971 488 971 576 q 926 346 971 419 q 806 178 868 250 q 665 54 743 106 q 413 -33 535 -33 z "},"Ö":{"ha":857,"x_min":68,"x_max":788,"o":"m 256 901 q 207 915 231 900 q 175 951 183 931 q 172 969 172 960 q 186 1004 172 990 q 218 1021 206 1021 q 224 1020 221 1021 q 231 1018 226 1019 q 256 1008 238 1015 q 288 992 275 1000 q 314 953 314 978 q 304 925 314 935 q 275 906 294 915 q 264 904 271 904 q 256 901 256 901 m 594 883 q 571 888 583 883 q 543 901 557 893 q 515 918 529 908 q 503 935 510 922 q 494 953 496 949 q 503 971 496 957 q 515 988 510 982 q 571 1007 539 1007 q 622 992 599 1007 q 656 950 646 976 q 658 941 657 944 q 658 935 658 938 q 646 906 658 918 q 594 883 624 883 m 467 1 q 439 3 453 1 q 410 8 425 6 q 385 14 406 10 q 338 26 364 18 q 289 44 311 33 q 124 192 172 94 q 69 417 75 290 q 111 652 68 556 q 240 824 154 749 q 372 878 303 878 q 464 856 421 878 q 683 681 600 789 q 785 421 767 572 q 787 398 786 411 q 788 367 788 385 q 779 269 788 315 q 741 180 771 224 q 646 92 711 136 q 467 1 581 49 m 447 153 q 475 156 464 153 q 555 201 517 167 q 622 281 593 235 q 663 375 651 328 q 671 444 671 411 q 624 601 671 528 q 488 733 576 674 q 403 713 468 721 q 353 703 376 708 q 324 692 331 699 q 239 563 269 642 q 208 400 208 483 q 224 293 208 347 q 272 226 235 256 q 447 153 311 192 z "},"Ọ":{"ha":1026,"x_min":69,"x_max":971,"o":"m 413 50 q 340 58 376 50 q 199 122 260 76 q 103 231 138 167 q 69 369 69 296 q 117 539 69 454 q 128 553 119 546 q 143 564 138 560 l 175 549 l 206 533 q 262 494 249 510 q 275 451 275 479 q 271 399 275 432 q 269 383 269 393 q 269 363 269 374 q 282 239 269 313 q 336 196 289 196 q 347 196 342 196 q 354 197 351 196 q 466 226 419 210 q 550 276 513 243 q 671 392 619 336 q 761 511 722 447 q 788 597 788 554 q 772 665 788 632 q 728 740 757 699 q 601 807 681 807 q 544 799 574 807 q 456 769 536 797 q 438 764 447 767 q 419 758 429 761 l 261 713 q 222 701 246 707 q 167 686 199 694 l 153 699 q 321 857 207 789 q 531 911 411 911 q 694 883 615 911 q 825 803 774 854 q 864 768 843 785 q 889 745 879 754 q 901 733 899 736 q 971 571 971 660 q 926 429 971 503 q 806 261 868 333 q 665 138 743 189 q 413 50 535 50 m 469 -240 q 438 -233 457 -246 q 410 -195 419 -221 q 410 -139 400 -169 q 463 -79 419 -108 q 510 -65 488 -64 q 561 -86 533 -67 q 589 -135 586 -104 q 560 -183 592 -164 q 545 -193 554 -186 q 522 -210 536 -200 q 495 -227 508 -219 q 469 -240 482 -235 z "},"Ò":{"ha":1015,"x_min":69,"x_max":946,"o":"m 590 886 q 458 925 521 881 q 415 964 442 940 q 353 1019 389 988 q 319 1076 321 1047 q 329 1114 319 1093 q 390 1138 340 1133 q 406 1138 400 1139 q 540 1078 507 1136 q 577 1026 556 1053 q 616 974 599 999 q 639 929 633 949 q 629 900 644 910 q 611 891 621 894 q 590 886 601 888 m 475 3 q 188 133 310 3 q 121 237 149 175 q 81 364 93 299 q 72 423 75 393 q 69 483 69 453 q 131 719 69 617 q 215 815 167 781 q 328 850 263 850 q 351 849 342 850 q 367 847 361 849 q 421 842 392 844 q 474 838 450 839 q 507 838 499 838 q 575 835 546 836 q 624 831 604 833 q 749 781 694 824 q 851 669 804 738 q 869 640 861 656 q 885 610 878 625 q 900 575 892 594 q 918 533 908 556 l 946 471 l 928 461 q 894 294 932 382 q 638 33 856 206 q 475 3 556 3 m 425 133 q 462 136 442 132 q 504 147 482 140 q 633 226 575 171 q 753 500 692 281 q 747 588 749 550 q 734 655 744 625 q 697 708 724 685 q 617 753 669 732 q 478 796 565 774 q 467 797 472 797 q 454 797 461 797 q 435 776 446 788 q 411 751 425 765 q 401 740 406 746 q 390 728 396 733 l 368 703 q 319 639 333 664 q 261 379 263 531 q 262 335 261 354 q 264 303 263 317 q 313 180 268 224 q 425 133 357 136 z "},"Ỏ":{"ha":1026,"x_min":69,"x_max":971,"o":"m 511 944 q 476 999 476 979 q 571 1075 476 1031 q 567 1118 585 1096 q 540 1142 558 1133 q 504 1146 522 1150 l 433 1140 q 428 1156 433 1140 q 425 1192 424 1172 q 443 1224 426 1213 q 498 1234 460 1233 q 575 1219 536 1235 q 590 1213 583 1217 q 601 1206 596 1208 q 639 1149 611 1200 q 642 1068 650 1092 q 601 991 636 1028 q 511 944 567 954 m 413 50 q 340 58 376 50 q 199 122 260 76 q 103 231 138 167 q 69 369 69 296 q 117 539 69 454 q 128 553 119 546 q 143 564 138 560 l 175 549 l 206 533 q 262 494 249 510 q 275 451 275 479 q 271 399 275 432 q 269 383 269 393 q 269 363 269 374 q 282 239 269 313 q 336 196 289 196 q 347 196 342 196 q 354 197 351 196 q 466 226 419 210 q 550 276 513 243 q 671 392 619 336 q 761 511 722 447 q 788 597 788 554 q 772 665 788 632 q 728 740 757 699 q 601 807 681 807 q 544 799 574 807 q 456 769 536 797 q 438 764 447 767 q 419 758 429 761 l 261 713 q 222 701 246 707 q 167 686 199 694 l 153 699 q 321 857 207 789 q 531 911 411 911 q 694 883 615 911 q 825 803 774 854 q 864 768 843 785 q 889 745 879 754 q 901 733 899 736 q 971 571 971 660 q 926 429 971 503 q 806 261 868 333 q 665 138 743 189 q 413 50 535 50 z "},"Ơ":{"ha":1044,"x_min":69,"x_max":1001,"o":"m 413 50 q 340 58 376 50 q 199 122 260 76 q 103 231 138 167 q 69 369 69 296 q 117 539 69 454 q 128 553 119 546 q 143 564 138 560 l 175 549 l 206 533 q 262 494 249 510 q 275 451 275 479 q 271 399 275 432 q 269 383 269 393 q 269 363 269 374 q 282 239 269 313 q 336 196 289 196 q 347 196 342 196 q 354 197 351 196 q 466 226 419 210 q 550 276 513 243 q 671 392 619 336 q 761 511 722 447 q 788 597 788 554 q 772 665 788 632 q 728 740 757 699 q 601 807 681 807 q 544 799 574 807 q 456 769 536 797 q 438 764 447 767 q 419 758 429 761 l 261 713 q 222 701 246 707 q 167 686 199 694 l 153 699 q 321 857 207 789 q 531 911 411 911 q 694 883 615 911 q 825 803 774 854 q 856 775 839 789 q 886 779 868 775 q 910 796 901 788 q 914 822 919 804 l 908 983 q 924 989 908 985 q 960 992 940 993 q 992 974 981 990 q 999 937 996 965 q 1001 873 1001 908 q 999 804 1001 838 q 989 751 996 771 l 975 726 q 931 697 969 718 q 971 571 971 638 q 926 429 971 503 q 806 261 868 333 q 665 138 743 189 q 413 50 535 50 z "},"Ớ":{"ha":1044,"x_min":69,"x_max":1001,"o":"m 300 1017 q 288 1025 293 1019 q 276 1036 282 1031 q 293 1069 288 1060 q 308 1084 299 1079 q 338 1097 317 1089 q 539 1236 461 1150 q 606 1271 561 1256 q 636 1268 619 1276 q 663 1233 656 1261 q 653 1163 669 1197 q 610 1118 638 1131 q 489 1063 547 1088 q 376 1019 431 1038 q 300 1017 331 1003 m 413 50 q 340 58 376 50 q 199 122 260 76 q 103 231 138 167 q 69 369 69 296 q 117 539 69 454 q 128 553 119 546 q 143 564 138 560 l 175 549 l 206 533 q 262 494 249 510 q 275 451 275 479 q 271 399 275 432 q 269 383 269 393 q 269 363 269 374 q 282 239 269 313 q 336 196 289 196 q 347 196 342 196 q 354 197 351 196 q 466 226 419 210 q 550 276 513 243 q 671 392 619 336 q 761 511 722 447 q 788 597 788 554 q 772 665 788 632 q 728 740 757 699 q 601 807 681 807 q 544 799 574 807 q 456 769 536 797 q 438 764 447 767 q 419 758 429 761 l 261 713 q 222 701 246 707 q 167 686 199 694 l 153 699 q 321 857 207 789 q 531 911 411 911 q 694 883 615 911 q 825 803 774 854 q 856 775 839 789 q 886 779 868 775 q 910 796 901 788 q 914 822 919 804 l 908 983 q 924 989 908 985 q 960 992 940 993 q 992 974 981 990 q 999 937 996 965 q 1001 873 1001 908 q 999 804 1001 838 q 989 751 996 771 l 975 726 q 931 697 969 718 q 971 571 971 638 q 926 429 971 503 q 806 261 868 333 q 665 138 743 189 q 413 50 535 50 z "},"Ợ":{"ha":1044,"x_min":69,"x_max":1001,"o":"m 413 50 q 340 58 376 50 q 199 122 260 76 q 103 231 138 167 q 69 369 69 296 q 117 539 69 454 q 128 553 119 546 q 143 564 138 560 l 175 549 l 206 533 q 262 494 249 510 q 275 451 275 479 q 271 399 275 432 q 269 383 269 393 q 269 363 269 374 q 282 239 269 313 q 336 196 289 196 q 347 196 342 196 q 354 197 351 196 q 466 226 419 210 q 550 276 513 243 q 671 392 619 336 q 761 511 722 447 q 788 597 788 554 q 772 665 788 632 q 728 740 757 699 q 601 807 681 807 q 544 799 574 807 q 456 769 536 797 q 438 764 447 767 q 419 758 429 761 l 261 713 q 222 701 246 707 q 167 686 199 694 l 153 699 q 321 857 207 789 q 531 911 411 911 q 694 883 615 911 q 825 803 774 854 q 856 775 839 789 q 886 779 868 775 q 910 796 901 788 q 914 822 919 804 l 908 983 q 924 989 908 985 q 960 992 940 993 q 992 974 981 990 q 999 937 996 965 q 1001 873 1001 908 q 999 804 1001 838 q 989 751 996 771 l 975 726 q 931 697 969 718 q 971 571 971 638 q 926 429 971 503 q 806 261 868 333 q 665 138 743 189 q 413 50 535 50 m 469 -240 q 438 -233 457 -246 q 410 -195 419 -221 q 410 -139 400 -169 q 463 -79 419 -108 q 510 -65 488 -64 q 561 -86 533 -67 q 589 -135 586 -104 q 560 -183 592 -164 q 545 -193 554 -186 q 522 -210 536 -200 q 495 -227 508 -219 q 469 -240 482 -235 z "},"Ờ":{"ha":1044,"x_min":69,"x_max":1001,"o":"m 561 947 q 507 972 531 947 l 472 1008 q 389 1098 422 1061 q 338 1154 356 1135 q 316 1192 324 1171 q 308 1231 308 1214 q 310 1242 311 1242 q 310 1243 308 1243 q 322 1251 311 1243 q 349 1249 329 1256 q 378 1232 368 1242 q 494 1133 443 1178 q 581 1053 544 1089 q 592 1036 588 1046 q 604 1008 597 1026 l 615 979 l 606 961 q 603 960 604 961 q 561 947 585 950 m 413 50 q 340 58 376 50 q 199 122 260 76 q 103 231 138 167 q 69 369 69 296 q 117 539 69 454 q 128 553 119 546 q 143 564 138 560 l 175 549 l 206 533 q 262 494 249 510 q 275 451 275 479 q 271 399 275 432 q 269 383 269 393 q 269 363 269 374 q 282 239 269 313 q 336 196 289 196 q 347 196 342 196 q 354 197 351 196 q 466 226 419 210 q 550 276 513 243 q 671 392 619 336 q 761 511 722 447 q 788 597 788 554 q 772 665 788 632 q 728 740 757 699 q 601 807 681 807 q 544 799 574 807 q 456 769 536 797 q 438 764 447 767 q 419 758 429 761 l 261 713 q 222 701 246 707 q 167 686 199 694 l 153 699 q 321 857 207 789 q 531 911 411 911 q 694 883 615 911 q 825 803 774 854 q 856 775 839 789 q 886 779 868 775 q 910 796 901 788 q 914 822 919 804 l 908 983 q 924 989 908 985 q 960 992 940 993 q 992 974 981 990 q 999 937 996 965 q 1001 873 1001 908 q 999 804 1001 838 q 989 751 996 771 l 975 726 q 931 697 969 718 q 971 571 971 638 q 926 429 971 503 q 806 261 868 333 q 665 138 743 189 q 413 50 535 50 m 603 956 q 599 951 599 950 q 603 957 599 951 l 606 961 q 603 956 610 964 z "},"Ở":{"ha":1044,"x_min":69,"x_max":1001,"o":"m 531 942 q 496 996 496 976 q 590 1072 496 1028 q 586 1115 604 1093 q 560 1139 578 1131 q 524 1143 542 1147 l 453 1138 q 448 1153 453 1138 q 444 1190 443 1169 q 463 1221 446 1210 q 517 1231 479 1231 q 594 1217 556 1232 q 609 1210 603 1214 q 621 1203 615 1206 q 658 1146 631 1197 q 661 1065 669 1089 q 621 988 656 1025 q 531 942 586 951 m 413 50 q 340 58 376 50 q 199 122 260 76 q 103 231 138 167 q 69 369 69 296 q 117 539 69 454 q 128 553 119 546 q 143 564 138 560 l 175 549 l 206 533 q 262 494 249 510 q 275 451 275 479 q 271 399 275 432 q 269 383 269 393 q 269 363 269 374 q 282 239 269 313 q 336 196 289 196 q 347 196 342 196 q 354 197 351 196 q 466 226 419 210 q 550 276 513 243 q 671 392 619 336 q 761 511 722 447 q 788 597 788 554 q 772 665 788 632 q 728 740 757 699 q 601 807 681 807 q 544 799 574 807 q 456 769 536 797 q 438 764 447 767 q 419 758 429 761 l 261 713 q 222 701 246 707 q 167 686 199 694 l 153 699 q 321 857 207 789 q 531 911 411 911 q 694 883 615 911 q 825 803 774 854 q 856 775 839 789 q 886 779 868 775 q 910 796 901 788 q 914 822 919 804 l 908 983 q 924 989 908 985 q 960 992 940 993 q 992 974 981 990 q 999 937 996 965 q 1001 873 1001 908 q 999 804 1001 838 q 989 751 996 771 l 975 726 q 931 697 969 718 q 971 571 971 638 q 926 429 971 503 q 806 261 868 333 q 665 138 743 189 q 413 50 535 50 z "},"Ỡ":{"ha":1044,"x_min":69,"x_max":1001,"o":"m 688 969 q 572 1008 640 964 q 563 1014 571 1010 q 542 1028 556 1018 q 469 1069 493 1060 q 444 1076 453 1076 q 418 1065 428 1076 q 404 1036 408 1054 q 381 1011 399 1011 q 361 1017 371 1011 q 344 1021 361 1017 q 312 1036 328 1025 q 294 1068 296 1047 q 304 1101 293 1088 q 349 1140 315 1115 q 399 1161 374 1161 q 440 1157 411 1161 q 474 1140 458 1150 q 508 1113 489 1129 q 565 1075 539 1088 q 629 1063 590 1063 q 653 1064 649 1063 q 713 1099 693 1081 q 746 1142 733 1117 q 761 1163 754 1157 q 779 1168 768 1168 q 824 1153 813 1168 q 836 1110 836 1139 q 808 1040 836 1072 q 748 988 778 1004 q 688 969 718 972 m 413 50 q 340 58 376 50 q 199 122 260 76 q 103 231 138 167 q 69 369 69 296 q 117 539 69 454 q 128 553 119 546 q 143 564 138 560 l 175 549 l 206 533 q 262 494 249 510 q 275 451 275 479 q 271 399 275 432 q 269 383 269 393 q 269 363 269 374 q 282 239 269 313 q 336 196 289 196 q 347 196 342 196 q 354 197 351 196 q 466 226 419 210 q 550 276 513 243 q 671 392 619 336 q 761 511 722 447 q 788 597 788 554 q 772 665 788 632 q 728 740 757 699 q 601 807 681 807 q 544 799 574 807 q 456 769 536 797 q 438 764 447 767 q 419 758 429 761 l 261 713 q 222 701 246 707 q 167 686 199 694 l 153 699 q 321 857 207 789 q 531 911 411 911 q 694 883 615 911 q 825 803 774 854 q 856 775 839 789 q 886 779 868 775 q 910 796 901 788 q 914 822 919 804 l 908 983 q 924 989 908 985 q 960 992 940 993 q 992 974 981 990 q 999 937 996 965 q 1001 873 1001 908 q 999 804 1001 838 q 989 751 996 771 l 975 726 q 931 697 969 718 q 971 571 971 638 q 926 429 971 503 q 806 261 868 333 q 665 138 743 189 q 413 50 535 50 z "},"Ő":{"ha":1040,"x_min":69,"x_max":971,"o":"m 435 944 q 421 981 421 958 q 436 1032 421 1001 q 483 1154 481 1131 q 499 1183 485 1171 q 535 1202 514 1196 q 571 1208 556 1208 q 582 1207 581 1208 q 607 1176 607 1200 q 605 1163 607 1175 q 600 1132 603 1151 q 506 992 594 1090 q 435 944 482 967 m 611 961 q 597 992 597 975 q 603 1017 597 1003 q 611 1032 610 1031 q 661 1154 661 1139 q 722 1193 683 1193 q 731 1193 725 1193 q 743 1192 736 1193 q 772 1183 763 1188 q 782 1169 782 1179 q 779 1158 782 1167 l 769 1136 q 682 1001 735 1072 q 672 990 676 994 q 665 982 668 985 q 646 975 661 978 q 626 968 635 972 q 611 961 618 964 m 413 50 q 340 58 376 50 q 199 122 260 76 q 103 231 138 167 q 69 369 69 296 q 117 539 69 454 q 128 553 119 546 q 143 564 138 560 l 175 549 l 206 533 q 263 495 250 511 q 275 451 275 479 q 271 399 275 432 q 269 383 269 393 q 269 363 269 374 q 282 239 269 313 q 336 196 289 196 q 347 196 342 196 q 354 197 351 196 q 466 226 419 210 q 550 276 513 243 q 671 392 619 336 q 761 511 722 447 q 788 597 788 554 q 772 665 788 632 q 728 740 757 699 q 601 807 681 807 q 544 799 574 807 q 456 769 536 797 q 438 764 447 767 q 419 758 429 761 l 261 713 q 222 702 246 708 q 167 686 199 696 l 153 699 q 321 857 207 789 q 531 911 411 911 q 694 883 615 911 q 825 803 774 854 q 864 768 843 785 q 889 745 879 754 q 901 733 899 736 q 971 571 971 660 q 926 429 971 503 q 806 261 868 333 q 665 138 743 189 q 413 50 535 50 z "},"Ō":{"ha":949,"x_min":69,"x_max":879,"o":"m 464 1003 q 365 1001 419 1003 q 246 993 311 999 q 138 1008 117 982 q 256 1086 199 1081 l 510 1124 q 583 1122 510 1124 q 801 1118 656 1121 q 793 1076 801 1100 q 754 1039 785 1053 q 682 1017 724 1025 q 597 1006 640 1010 q 518 1003 554 1003 q 464 1003 482 1003 m 406 3 q 233 60 311 3 q 114 211 156 118 q 69 399 69 319 q 69 417 69 410 q 71 431 69 425 l 71 506 q 136 615 72 592 q 185 647 168 628 q 229 710 201 665 q 238 721 235 714 l 258 747 q 344 840 304 810 q 446 871 383 871 q 649 841 563 871 q 797 731 735 811 q 879 511 879 624 q 846 363 879 436 q 625 81 764 178 q 406 3 515 3 m 325 133 q 353 122 331 125 q 406 122 376 119 q 465 134 436 125 q 514 158 494 143 q 603 262 568 204 q 681 411 639 319 l 706 465 q 731 568 731 518 q 614 751 731 642 q 547 779 589 776 q 478 753 513 781 q 372 651 418 703 q 295 538 326 600 q 243 390 264 475 q 242 376 242 388 q 242 363 242 371 q 243 349 242 356 q 244 330 244 340 q 246 307 244 319 l 267 260 l 325 133 z "},"Ǫ":{"ha":1133,"x_min":69,"x_max":1064,"o":"m 449 0 q 368 8 408 0 q 212 76 279 28 q 107 192 144 124 q 69 338 69 260 q 122 517 69 426 q 135 532 125 526 q 144 538 140 535 q 150 543 147 542 l 186 528 l 219 511 q 281 470 267 486 q 296 425 296 454 q 292 369 296 406 q 290 353 290 363 q 290 331 290 343 q 294 272 290 304 q 304 200 297 239 q 364 154 311 154 q 383 156 379 154 q 507 187 456 169 q 600 239 558 204 q 733 362 676 303 q 833 488 790 421 q 863 579 863 536 q 845 651 863 615 q 796 731 828 686 q 657 801 742 801 q 593 792 624 801 q 564 783 588 790 q 496 761 540 775 q 486 758 490 760 q 476 756 482 757 q 466 753 471 754 q 456 750 461 751 l 281 701 q 238 690 264 696 q 176 674 213 683 l 161 686 q 347 854 222 782 q 578 911 446 911 q 759 881 672 911 q 903 796 846 851 q 924 778 914 786 q 946 760 935 769 q 974 736 964 746 q 988 724 985 726 q 1064 551 1064 646 q 1015 401 1064 479 q 882 224 951 300 q 726 93 813 147 q 669 60 697 74 q 639 38 660 50 q 620 24 628 31 q 607 11 613 17 q 558 -72 576 -31 q 549 -121 549 -90 q 570 -172 549 -153 q 629 -199 592 -192 q 641 -200 635 -200 q 654 -200 647 -200 q 667 -200 661 -200 q 676 -201 674 -200 q 715 -210 693 -201 q 739 -246 739 -222 q 726 -274 739 -262 l 714 -283 q 693 -294 703 -293 q 628 -303 654 -300 q 589 -306 603 -307 q 473 -252 515 -297 q 431 -136 431 -207 l 432 -112 q 453 -18 435 -68 q 464 0 458 -8 q 449 0 457 0 z "},"Ø":{"ha":763,"x_min":83,"x_max":693,"o":"m 240 -119 q 213 -109 224 -119 q 201 -82 201 -99 q 202 -75 201 -79 q 204 -65 203 -71 q 213 -7 213 -33 q 200 60 213 28 q 163 129 188 92 q 83 371 83 249 q 92 451 83 410 l 96 478 q 97 492 97 485 q 99 504 97 499 q 139 620 107 565 q 219 715 171 675 q 325 772 268 756 q 397 781 353 781 q 460 829 446 783 l 469 863 q 478 892 475 881 q 483 910 482 904 q 513 949 492 935 q 560 964 533 964 q 613 944 590 964 q 632 904 632 928 q 629 886 632 894 l 590 789 q 579 738 579 758 q 601 679 579 706 q 619 655 611 669 q 629 635 626 640 q 693 406 693 525 q 638 176 693 293 q 413 7 571 28 l 381 3 l 350 -6 l 338 -31 q 326 -55 332 -44 q 315 -72 321 -65 q 268 -112 293 -101 q 240 -119 254 -119 m 256 219 q 262 222 258 221 q 269 225 265 224 q 279 232 276 226 l 396 639 q 398 653 397 646 q 399 668 399 661 l 399 686 q 390 693 396 688 q 385 694 386 696 q 257 628 303 679 q 211 497 211 576 q 211 413 211 450 q 213 353 211 376 q 224 277 215 310 q 256 219 233 244 m 401 121 q 482 171 454 135 q 529 264 510 207 q 554 352 546 315 q 563 425 563 389 q 533 540 563 486 q 456 380 494 483 q 392 151 418 276 l 392 149 q 396 136 392 144 l 401 121 z "},"Ǿ":{"ha":1044,"x_min":69,"x_max":971,"o":"m 300 1017 q 288 1025 293 1019 q 276 1036 282 1031 q 293 1069 288 1060 q 308 1084 299 1079 q 338 1097 317 1089 q 539 1236 461 1150 q 606 1271 561 1256 q 636 1268 619 1276 q 663 1233 656 1261 q 653 1163 669 1197 q 610 1118 638 1131 q 489 1063 547 1088 q 376 1019 431 1038 q 300 1017 331 1003 m 136 -8 q 83 25 108 -8 l 118 88 q 138 122 128 106 q 158 156 149 139 l 158 156 q 93 253 117 199 q 69 369 69 308 q 117 539 69 454 q 128 553 119 546 q 143 564 138 560 l 175 549 l 206 533 q 262 494 249 510 q 275 451 275 479 q 271 399 275 432 q 269 383 269 393 q 269 363 269 374 q 269 349 269 356 q 608 807 399 558 l 601 807 q 544 799 574 807 q 456 769 536 797 q 438 764 447 767 q 419 758 429 761 l 261 713 q 222 701 246 707 q 167 686 199 694 l 153 699 q 321 857 207 789 q 531 911 411 911 q 679 888 607 911 q 714 928 696 908 q 726 944 719 935 q 742 965 733 953 l 768 1006 q 806 1060 790 1042 q 840 1078 822 1078 q 846 1077 843 1078 q 851 1075 849 1076 q 860 938 868 982 q 838 872 854 908 q 808 818 822 835 q 825 803 817 811 q 864 768 843 785 q 889 745 879 754 q 901 733 899 736 q 971 571 971 660 q 926 429 971 503 q 806 261 868 333 q 665 138 743 189 q 413 50 535 50 q 340 58 375 50 q 226 103 279 72 l 224 99 l 136 -8 m 396 313 l 307 203 q 336 196 319 196 q 347 196 342 196 q 354 197 351 196 q 466 226 419 210 q 550 276 513 243 q 671 392 619 336 q 761 511 722 447 q 788 597 788 554 q 774 660 788 629 q 736 728 761 690 q 578 533 664 636 q 396 313 493 429 z "},"Õ":{"ha":924,"x_min":69,"x_max":854,"o":"m 206 876 q 149 904 168 876 q 138 943 138 924 q 161 996 138 976 q 219 1040 192 1022 q 272 1069 247 1058 q 432 1104 347 1104 q 546 1088 490 1104 q 628 1069 601 1069 q 677 1089 658 1069 q 722 1160 696 1108 q 725 1163 724 1161 q 729 1168 726 1165 q 739 1176 733 1171 q 767 1182 750 1182 q 821 1161 794 1182 q 854 1100 854 1136 q 846 1061 854 1082 q 781 976 824 1006 q 682 947 738 947 q 638 951 661 947 q 563 972 588 963 q 469 992 511 992 q 314 924 386 992 q 228 878 271 881 q 219 876 225 876 q 206 876 213 876 m 388 3 q 224 57 297 3 q 111 200 150 111 q 69 376 69 300 q 69 394 69 388 q 71 407 69 401 l 71 478 q 132 582 71 561 q 178 611 163 593 q 221 671 194 629 q 228 682 226 676 l 247 707 q 328 794 292 765 q 425 824 365 824 q 617 795 535 824 q 757 690 699 767 q 835 483 835 588 q 803 343 835 414 q 594 76 726 171 q 388 3 492 3 m 372 97 q 493 141 432 97 q 607 300 554 185 l 671 440 q 688 489 682 464 q 694 538 693 514 q 583 746 694 639 q 521 772 557 772 q 456 747 488 772 q 315 583 368 678 q 233 369 263 489 q 232 356 232 367 q 232 343 232 350 q 233 329 232 336 q 235 312 235 322 q 236 290 235 301 l 247 256 q 311 126 276 163 q 372 97 351 97 z "},"Œ":{"ha":1472,"x_min":83,"x_max":1403,"o":"m 444 8 q 258 68 342 8 q 136 231 174 128 q 83 531 83 381 q 85 578 83 553 q 90 635 88 604 q 154 786 101 729 q 301 867 207 843 q 396 879 351 879 q 622 822 496 879 l 654 803 q 678 788 669 793 q 690 781 688 783 q 792 813 738 813 q 828 810 807 813 q 858 806 850 807 l 964 792 q 1057 779 1024 782 q 1106 774 1076 778 q 1174 764 1135 769 l 1217 760 q 1291 751 1260 757 q 1350 729 1322 744 q 1376 685 1386 707 q 1339 647 1371 668 q 1322 643 1333 643 l 1307 644 q 1142 651 1225 647 q 978 660 1060 654 q 959 660 969 660 q 936 663 949 661 q 900 665 915 664 q 874 665 885 665 q 840 664 856 665 q 811 660 825 663 q 803 647 807 654 q 799 636 799 639 q 810 581 806 603 q 826 543 814 558 q 870 517 839 528 q 963 499 901 507 q 1010 501 983 499 q 1047 506 1036 504 q 1064 508 1054 507 q 1086 511 1074 510 q 1143 515 1124 513 q 1192 519 1157 517 q 1254 522 1226 522 q 1308 513 1285 522 q 1350 475 1331 503 q 1282 417 1339 431 q 1117 386 1190 399 q 982 368 1044 374 q 856 365 919 363 q 847 365 851 365 q 836 363 842 364 l 818 358 q 794 308 803 333 q 775 236 786 282 q 774 227 774 232 q 772 215 774 222 q 764 185 771 204 q 953 139 844 142 q 1271 135 1060 135 q 1332 131 1307 135 q 1381 113 1357 126 q 1396 97 1389 107 q 1403 78 1403 86 q 1379 40 1403 60 q 1338 28 1365 31 q 1308 25 1321 26 q 1288 22 1296 24 q 1075 10 1146 10 q 1022 12 1050 10 q 963 17 994 14 q 935 18 951 18 q 896 18 918 18 q 856 18 874 18 q 826 19 838 18 q 786 22 801 21 q 756 26 771 22 q 719 41 742 29 q 657 78 697 53 q 635 65 647 71 l 600 46 q 444 8 528 8 m 425 128 q 483 138 456 128 q 571 204 536 153 q 637 341 614 269 q 664 504 660 413 q 617 639 661 576 q 497 744 574 701 q 399 775 446 775 q 267 657 310 775 q 258 624 261 644 q 247 548 251 585 q 243 475 243 511 q 275 288 243 379 q 295 236 286 257 q 310 204 304 215 q 361 147 333 165 q 425 128 389 128 z "},"P":{"ha":957,"x_min":82,"x_max":915,"o":"m 129 0 q 92 13 103 0 q 83 57 82 25 l 86 113 q 107 358 94 278 q 122 446 113 399 q 141 532 132 493 q 153 585 150 571 q 169 656 163 625 q 181 707 176 686 l 108 719 q 92 782 90 756 q 133 872 94 826 q 203 926 163 906 q 286 954 243 947 q 346 959 318 957 q 397 961 374 961 q 783 881 589 961 q 807 868 794 875 q 831 851 819 861 q 850 835 842 842 q 861 825 858 828 q 915 729 915 782 q 894 656 915 696 q 857 601 885 633 q 522 379 731 456 q 479 369 497 369 q 422 390 449 369 q 376 447 394 411 l 415 472 q 474 511 449 494 q 514 540 499 528 q 614 621 567 582 q 700 696 661 660 q 736 747 717 710 q 713 801 725 796 q 699 806 706 804 q 688 808 693 807 l 417 831 q 356 779 368 835 l 239 239 q 230 200 233 218 q 224 167 226 182 l 214 114 l 201 51 q 183 16 196 29 q 147 1 171 3 l 129 0 z "}}}
